<svg id="Layer_1" data-name="Layer 1" xmlns="http://www.w3.org/2000/svg" viewBox="0 0 600 250"><title>mapOmLab</title><path d="M441.61,236.69a14.21,14.21,0,0,0-5.51-1.94,29.41,29.41,0,0,0-5.86-.12c-2,.11-3.93.26-5.93.22s-3.94-.32-5.9-.39a47.39,47.39,0,0,0-5.84,0c-1,.07-1.93.17-2.89.33-.47.07-.95.16-1.42.26l-.71.15-.78.15a19.88,19.88,0,0,1-6.06-.63,11.46,11.46,0,0,0-5.47.12.84.84,0,0,1-1-.55.89.89,0,0,1,0-.22v0L394,223.36c0-1.8,0-3.6,0-5.4s.16-3.58.19-5.35c.07-3.55-.05-7.06-.31-10.63s-.19-7.23-.18-10.8l-.57-42.86-.28-21.44-.4-21.44L392,84c0-.88,0-1.86-.06-2.55a2.27,2.27,0,0,0-.15-.73c-.05-.12,0-.06-.09-.11a2.3,2.3,0,0,0-.63-.13,3.92,3.92,0,0,1-2.24-.83,3,3,0,0,1-.89-1.23,3.73,3.73,0,0,1-.26-1.14c-.06-.65,0-1.13,0-1.45l0-.26s0,0,0,0l-.06-.16-.11-.33c-.15-.43-.28-.82-.41-1.12a2.26,2.26,0,0,0-.38-.63.75.75,0,0,0-.37-.22,3.64,3.64,0,0,0-1.64,0,.8.8,0,0,0-.36.2,1.07,1.07,0,0,0-.22.46,4.53,4.53,0,0,0-.13.94,9.13,9.13,0,0,1-.14,1.61,4.39,4.39,0,0,1-.93,2,4.62,4.62,0,0,1-1.7,1.23,8.9,8.9,0,0,1-1.57.51l-1.31.3c-.85.2-1.69.42-2.54.65-1.69.47-3.37,1-5.07,1.53l-2.54.82-1.23.41a3.36,3.36,0,0,0-.85.4,2.31,2.31,0,0,0-1,1.21,7.23,7.23,0,0,0-.31,2.13l-.2,5.34c-.12,3.56-.19,7.13-.24,10.69-.19,14.27-.07,28.57-.24,42.89s.36,28.55.35,42.87.09,28.6,0,42.9c-.61-14.29-1-28.58-1.55-42.88s-1.2-28.56-1.3-42.9-.54-28.58-.45-42.91c0-3.58.06-7.16.14-10.75l.15-5.38a10.09,10.09,0,0,1,.48-3.14,5.76,5.76,0,0,1,2.29-2.93,7.18,7.18,0,0,1,1.56-.75l1.31-.44,2.56-.84c1.71-.55,3.44-1.09,5.19-1.58.88-.24,1.77-.48,2.66-.69a14,14,0,0,0,2.27-.62c.53-.28.51-.27.65-.74a19.75,19.75,0,0,1,.31-2.77,4.64,4.64,0,0,1,1-1.9,4.29,4.29,0,0,1,1.9-1.17,6.82,6.82,0,0,1,3.67,0,4.36,4.36,0,0,1,1.89,1.16,5.33,5.33,0,0,1,1,1.63c.22.51.38,1,.52,1.38l.11.31,0,.15.09.29a4.93,4.93,0,0,1,.15,1.07c0,.57,0,1,0,1.23a.67.67,0,0,0,0,.16.59.59,0,0,0-.12-.16c-.12-.09,0,0,.26,0a5.18,5.18,0,0,1,2,.5,3.67,3.67,0,0,1,1.71,1.79,5.78,5.78,0,0,1,.45,1.87c.08,1.09.06,1.9.09,2.81l.33,21.45.32,21.45c.09,7.15.06,14.3.09,21.45,0,14.31.12,28.58-.08,42.93-.08,3.57-.17,7.12,0,10.64s.23,7.22.09,10.81c-.06,1.8-.21,3.61-.29,5.36s-.12,3.55-.14,5.33c0,3.56,0,7.13,0,10.72l-1.08-.81a13,13,0,0,1,6.23,0c2,.41,3.81,1,5.61.8l.67-.1.74-.14c.5-.08,1-.16,1.49-.22,1-.13,2-.2,3-.24a49.37,49.37,0,0,1,6,.14c2,.13,3.95.46,5.87.58s3.91,0,5.88,0a30.11,30.11,0,0,1,5.92.37A14.37,14.37,0,0,1,441.61,236.69Z"/><path d="M385.93,233,384.82,87.4l1.35,1.7a37.84,37.84,0,0,0-9.53-.91c-.81,0-1.63,0-2.45.08l-.6,0-.46,0a1.65,1.65,0,0,0-.52.16c-.06,0,0,0-.1.12a2.36,2.36,0,0,0-.12.67c0,.15,0,.32,0,.49v.62l0,1.26.21,20.09c.06,6.69.08,13.37.2,20.06.06,3.34.13,6.68.23,10l.16,5c.05,1.68.17,3.3.13,5.06l0,20.09-.06,20.08-.17,20.09c-.08,3.34,0,6.67,0,10a36.74,36.74,0,0,1-1.25,10,36.6,36.6,0,0,0,.69-10c-.14-3.32-.39-6.69-.45-10l-.66-20.07L371,172l-.46-20.07c0-1.59-.15-3.3-.24-5l-.24-5c-.15-3.36-.26-6.71-.36-10.06q-.3-10-.44-20.1l-.3-20.06,0-1.26v-.63c0-.25,0-.5,0-.77a5.9,5.9,0,0,1,.37-1.78,3.78,3.78,0,0,1,1.48-1.77,5.19,5.19,0,0,1,1.83-.65l.8-.09.65,0c.85,0,1.7-.08,2.56-.1a40.37,40.37,0,0,1,10.41,1h0a1.77,1.77,0,0,1,1.34,1.7c.05,12.13.15,24.27.07,36.4s-.13,24.27-.33,36.41-.44,24.27-.78,36.4S386.54,220.85,385.93,233Z"/><path d="M429.65,183.89a1.11,1.11,0,0,0,.45-.95c0-.36-.1-.72-.12-1.1l-.05-2.21-.1-4.43-.15-8.85-.28-17.71c-.14-11.81-.27-23.62-.32-35.42L429,95.52l0-4.43c0-1.46,0-3-.07-4.35a5.68,5.68,0,0,0-.8-3.2,4.24,4.24,0,0,0-2.93-.88L424,82.6c-.4,0-.82-.07-1.23-.11a11,11,0,0,1-2.57-.69,6.77,6.77,0,0,1-2.38-1.74,7.23,7.23,0,0,1-1.36-2.56A11.83,11.83,0,0,1,416,75l-.06-1a1.74,1.74,0,0,0-.12-.55.33.33,0,0,0-.12-.15,1.13,1.13,0,0,0-.39-.15,5.5,5.5,0,0,0-1.57,0,.89.89,0,0,0-.34.1s-.05,0-.12.16a2.49,2.49,0,0,0-.18.63l-.2,1a22,22,0,0,1-.5,2.34,6.46,6.46,0,0,1-1.39,2.66,4.25,4.25,0,0,1-1.5,1,7.29,7.29,0,0,1-1.42.41,11.6,11.6,0,0,1-2.58.15c-1.6-.06-3-.24-4.36-.23L403,79.55c.05,6.44-.15,12.8-.22,19.2l-.32,19.19c-.27,12.78-.48,25.58-.84,38.35l-.52,19.17-.61,19.17-.81,19.17-.42,9.59-.49,9.58c-.15-12.79,0-25.57-.07-38.36V175.43l.08-19.2.28-38.36.42-38.32v0a1.75,1.75,0,0,1,1.76-1.73c1.62,0,3.13.2,4.48.25A8.15,8.15,0,0,0,407.5,78a2.82,2.82,0,0,0,.71-.2.69.69,0,0,0,.3-.2,3.28,3.28,0,0,0,.6-1.25,20,20,0,0,0,.42-2l.22-1.14a6.3,6.3,0,0,1,.49-1.47,3.81,3.81,0,0,1,1.3-1.49,4.15,4.15,0,0,1,1.74-.63,7.78,7.78,0,0,1,1.41-.06,7.59,7.59,0,0,1,1.42.17,4.37,4.37,0,0,1,1.63.72A3.72,3.72,0,0,1,419,72a4.91,4.91,0,0,1,.39,1.59c0,.23,0,.51,0,.67l0,.49a8.26,8.26,0,0,0,.29,1.81,3.2,3.2,0,0,0,1.83,2.2,7.3,7.3,0,0,0,1.69.47c.32,0,.63.09,1,.1l1.1.07a11,11,0,0,1,2.54.42,5.47,5.47,0,0,1,2.63,1.63,6.07,6.07,0,0,1,1.24,2.7,13,13,0,0,1,.28,2.47c.06,1.58,0,3,0,4.5l0,4.43c0,5.91-.12,11.81-.22,17.71-.18,11.81-.44,23.61-.71,35.42l-.49,17.7-.24,8.85-.15,4.43-.08,2.21c0,.36.07.73.05,1.11A1.14,1.14,0,0,1,429.65,183.89Z"/><path d="M342.63,69.24a5.59,5.59,0,0,0-.52-2.47,2.82,2.82,0,0,0-1.88-1.47c-1.63-.42-3.27.31-5,.51s-3.42.41-5.09.68a21.3,21.3,0,0,0-4.84,1.28l.36-.52q.36,20.81.42,41.59c.09,13.86.05,27.72,0,41.59s-.11,27.72-.3,41.58l-.23,20.79-.32,20.79v0a1.51,1.51,0,0,1-.93,1.37,14,14,0,0,1-4.59,1.07c-1.53.11-3,0-4.34,0h0a1.43,1.43,0,0,1-1.43-1.43v0l.26-18.06.34-18c.13-6,.28-12,.52-18l.34-9,.41-9,.16,9,.1,9c0,6,.21,12,.31,18.05l.27,18,.2,18-1.47-1.45c1.46,0,2.85,0,4.13-.12a11.13,11.13,0,0,0,3.61-.89l-.92,1.39V212.77l.12-20.79c0-13.86.26-27.72.39-41.58s.4-27.72.72-41.58.64-27.72,1.1-41.58v0a.54.54,0,0,1,.36-.48A21.81,21.81,0,0,1,330,65.62c1.72-.19,3.44-.26,5.12-.43.86-.08,1.67-.23,2.54-.35a6,6,0,0,1,2.63.15,3,3,0,0,1,1.93,1.71A5.4,5.4,0,0,1,342.63,69.24Z"/><path d="M343.86,51.09a11.07,11.07,0,0,1,1.64,5.59,22.7,22.7,0,0,0,.91,5.65,7.84,7.84,0,0,0,1.28,2.39,5.07,5.07,0,0,0,2.09,1.49l1.36.43a11.5,11.5,0,0,1,1.44.55c.48.19.92.49,1.39.73a11.75,11.75,0,0,1,1.27,1,10.43,10.43,0,0,1,3.15,5.45,28.59,28.59,0,0,1,.68,6L359.46,92c.22,7.73.62,15.59.71,23.38l.14,11.68c0,3.89.22,7.73.29,11.64L361,162.1c.05,7.8.18,15.59.14,23.38s-.07,15.58-.13,23.37l-.18,11.69-.13,5.85a18.46,18.46,0,0,1-1.11,5.76c1.09-3.79.36-7.7.25-11.59l-.58-11.67q-.51-11.69-.89-23.36c-.3-7.79-.49-15.57-.73-23.35l-.54-23.34c0-3.88-.2-7.82-.21-11.72s0-7.81,0-11.7,0-7.77-.06-11.64-.05-7.8-.06-11.7l.05-11.7a26.35,26.35,0,0,0-.34-5.59,8.6,8.6,0,0,0-2.35-4.64,9.34,9.34,0,0,0-1-.86,12.15,12.15,0,0,0-1.15-.7,10.33,10.33,0,0,0-1.26-.58l-1.39-.54a6.33,6.33,0,0,1-2.5-2,8.45,8.45,0,0,1-1.27-2.83,22.45,22.45,0,0,1-.51-5.91A10.88,10.88,0,0,0,343.86,51.09Z"/><path d="M429.24,232.56c-1.44-6.11-1.08-12.55-.82-18.73s0-12.43-.46-18.62c-.22-3.1-.5-6.18-.85-9.27s-.61-6.25-.84-9.38q-.66-9.39-.93-18.77l-.66-18.7-.83-18.7c-.14-3.11-.3-6.22-.5-9.32l-.31-4.71c-.06-1.62,0-3.19-.05-4.7a21.93,21.93,0,0,0-.46-4.37,8.55,8.55,0,0,0-1.76-3.63c-1.73-2.07-4.65-2.9-7.58-2.79l.93-1c.05,4.44-.25,8.84-.43,13.23a128.58,128.58,0,0,0-.12,13.17,101.94,101.94,0,0,1-1-13.18c-.09-4.41-.14-8.8-.39-13.15a1,1,0,0,1,.88-1h.05a14.08,14.08,0,0,1,5,.42,9.77,9.77,0,0,1,4.5,2.69,11.1,11.1,0,0,1,2.49,4.62,23.68,23.68,0,0,1,.72,4.91c.09,1.6.11,3.16.22,4.66l.42,4.64c.27,3.12.5,6.24.72,9.37.43,6.25.7,12.48,1,18.73s.43,12.51.6,18.75.31,12.47.61,18.68c.15,3.1.35,6.21.56,9.3s.41,6.28.51,9.42a157.74,157.74,0,0,1-.54,18.83c-.29,3.14-.72,6.21-.9,9.32A50.94,50.94,0,0,0,429.24,232.56Z"/><path d="M345.1,79.13c.66,12.9,1,25.79,1.17,38.68.12,6.45.12,12.9.18,19.35v19.33c-.08,6.45-.07,12.9-.23,19.33l-.43,19.31c-.28,12.89-.61,25.79-1.5,38.67q-.88-19.35-1.27-38.67c-.29-12.9-.1-25.81-.12-38.69l.21-19.33c.13-6.44.21-12.88.4-19.32C343.84,104.9,344.29,92,345.1,79.13Z"/><path d="M467.18,181a2,2,0,0,0,1.82.8c.69,0,1.39-.25,2.13-.25l4.27-.19c2.85-.12,5.7-.19,8.54-.29,5.7-.16,11.39-.32,17.08-.39s11.38-.15,17.08-.18,11.39,0,17.06,0a1.73,1.73,0,0,1,1.75,1.73v.07h0a16.09,16.09,0,0,0,.57,3.64,12.54,12.54,0,0,1,.3,2.33,8.38,8.38,0,0,1-.31,2.57v0a1.74,1.74,0,0,1-1.61,1.25c-5.77.21-11.53.38-17.3.37s-11.52,0-17.28-.2-11.5-.34-17.25-.56-11.5-.49-17.25-.81c5.75-.41,11.5-.64,17.26-.85s11.5-.35,17.25-.46l17.22-.41c5.74-.19,11.47-.31,17.2-.59l-1.62,1.27a6.56,6.56,0,0,0-.08-3.22,18.44,18.44,0,0,1-.6-4.46l1.76,1.81c-5.72,0-11.39-.09-17.09-.23s-11.38-.23-17.07-.42-11.38-.39-17.07-.63c-2.85-.14-5.69-.25-8.53-.42l-4.27-.24c-.69-.08-1.39.05-2.13,0A2.17,2.17,0,0,1,467.18,181Z"/><path d="M294.78,159.56a55.87,55.87,0,0,1-8.78.8c-2.94.07-5.88-.05-8.8-.1-1.46,0-2.94-.08-4.36-.07s-2.85.14-4.29.29c-2.86.32-5.76.75-8.72,1l1.23-1.33c.25,9.55.28,19.08.43,28.58s.37,19,.48,28.59v8l0,.79a6.14,6.14,0,0,0,.08.75,4.18,4.18,0,0,0,.15.72,5.08,5.08,0,0,0,1.3,2.39,6.86,6.86,0,0,0,5.49,1.62c1-.07,2.26-.32,3.47-.47a25.59,25.59,0,0,1,3.73-.24c4.77.08,9.54.13,14.31.27,2.38,0,4.77.12,7.15.2l3.58.13a10.52,10.52,0,0,0,1.77,0,1.94,1.94,0,0,1,1.65.62,1.83,1.83,0,0,0-1.63-.41l-.88.16c-.31,0-.61.06-.91.08l-3.57.24q-3.57.22-7.15.41c-4.76.28-9.52.48-14.28.7a28.2,28.2,0,0,0-3.39.4c-1.15.18-2.25.47-3.6.64a12.16,12.16,0,0,1-4-.17,7.85,7.85,0,0,1-6-5.71,6.24,6.24,0,0,1-.23-1,7.28,7.28,0,0,1-.14-1c0-.33-.05-.69-.06-1l0-.9-.2-7.14c-.21-9.52-.51-19-.54-28.6-.06-4.77,0-9.56.09-14.33s.15-9.52.27-14.29v-.06a1.31,1.31,0,0,1,1.23-1.27c2.88-.15,5.79-.46,8.76-.59,1.48-.07,3-.08,4.48,0s3,.21,4.42.36c2.93.3,5.83.6,8.74.82A67.2,67.2,0,0,0,294.78,159.56Z"/><path d="M413.57,117.9c.9,9.63,1.06,19.29,1.43,28.88l.7,14.43c.14,4.86.05,9.72-.14,14.56-.12,2.44-.27,4.78-.31,7.17s-.05,4.77-.06,7.17c-.05,4.8,0,9.67-.32,14.51-.53,9.59-1.12,19.35-3.37,28.77.78-9.63.58-19.21.6-28.85,0-4.79-.12-9.56-.27-14.39-.06-2.42-.07-4.84-.05-7.27s.13-4.9.24-7.27q.38-7.17.32-14.34c0-2.38-.07-4.76-.11-7.19s0-4.85,0-7.26C412.39,137.15,413,127.54,413.57,117.9Z"/><path d="M231.27,235c-.83-8.49-1-17-1.37-25.48-.16-4.25-.52-8.37-.7-12.72s-.07-8.57-.07-12.79-.06-8.39-.34-12.6l-.91-12.69q-.23-3.18-.35-6.39a11.61,11.61,0,0,0-.28-2.83,3.22,3.22,0,0,0-1.37-1.87c-3.36-2.52-6.82-4.86-10.86-5.72l.58-.24a3.63,3.63,0,0,0-.8,1.78,11.36,11.36,0,0,0-.08,2.2,9.71,9.71,0,0,1-.12,2.34,3.89,3.89,0,0,1-1.07,2,3.74,3.74,0,0,0,.72-2.09,12,12,0,0,0-.2-2.22,12,12,0,0,1-.22-2.36,4.45,4.45,0,0,1,.79-2.45.59.59,0,0,1,.53-.24h.06a20.39,20.39,0,0,1,6.35,1.78,51.22,51.22,0,0,1,5.68,3.18,5.8,5.8,0,0,1,1.49,1.27,6,6,0,0,1,1,1.76,14.05,14.05,0,0,1,.6,3.47l.65,6.31c.45,4.21,1,8.44,1.26,12.72a125.65,125.65,0,0,1,.39,12.87c-.06,4.27-.18,8.5-.2,12.69,0,2.1.08,4.19.13,6.35s0,4.27,0,6.41C232.37,218.06,231.79,226.53,231.27,235Z"/><path d="M457.7,231.74a25,25,0,0,0-8.58.4c-1.42.27-2.82.56-4.28.81a16.65,16.65,0,0,1-2.29.21,3.81,3.81,0,0,1-2.56-.81,4.76,4.76,0,0,1-1.3-2.31,19.29,19.29,0,0,1-.48-2.25c-.23-1.46-.4-2.92-.52-4.39a83.65,83.65,0,0,1-.21-8.81c0-2.92.17-5.82.3-8.7l.07-2.15a21,21,0,0,1,.14-2.4,3.34,3.34,0,0,1,.88-1.83,2.73,2.73,0,0,1,1.15-.68,3.17,3.17,0,0,1,1.05-.13,4.94,4.94,0,0,1,.81.08l.51.09c.32.06.66.09,1,.14,2.67.3,5.56.13,8.64.4a21.23,21.23,0,0,1,2.32.33l1.05.21a7.83,7.83,0,0,0,.87.12c.14,0,.23,0,.35,0l.19,0c.1,0-.09,0-.12.1a1.25,1.25,0,0,0,.06-.28,4.5,4.5,0,0,0,.06-.8,24.66,24.66,0,0,0-.3-4,4.78,4.78,0,0,0-.49-1.45,1.54,1.54,0,0,0-.81-.66,5.44,5.44,0,0,0-1.61-.32c-.62-.06-1.31,0-2,0-1.41,0-2.83.12-4.26.2l-4.34.26-2.21.1-1.11,0h-.54l-.43,0a2.8,2.8,0,0,0-.63.12.37.37,0,0,0-.16.09,2.63,2.63,0,0,0-.2,1.23c0,1.46-.06,2.92-.11,4.38-.38,11.64-1.6,23.11-1.35,34.72-1.73-11.51-1.28-23.24-1.42-34.75,0-1.44-.06-2.88-.1-4.32a5,5,0,0,1,.65-3,3.38,3.38,0,0,1,1.51-1.24,5.18,5.18,0,0,1,1.49-.36c.23,0,.44,0,.65,0l.54,0,1.06-.05,2.13-.16,4.33-.39q2.18-.19,4.41-.27c.77,0,1.53,0,2.35,0a8.51,8.51,0,0,1,2.63.54,5,5,0,0,1,2.48,2,7.69,7.69,0,0,1,1,2.61,26.73,26.73,0,0,1,.41,4.7,8.65,8.65,0,0,1-.12,1.36,4.19,4.19,0,0,1-.7,1.73,3.22,3.22,0,0,1-1.91,1.24,4.15,4.15,0,0,1-.88.11,5.93,5.93,0,0,1-.74,0c-.46,0-.87-.11-1.27-.18l-1.08-.23a18,18,0,0,0-2-.3c-2.7-.29-5.63-.1-8.72-.52-.39-.07-.77-.12-1.16-.2l-.55-.11a1.09,1.09,0,0,0-.27,0c-.06,0-.07,0,0,0a.56.56,0,0,0,.22-.14c.13-.15,0-.11,0,.11s-.09,1.23-.14,1.94l-.14,2.18-.64,8.65c-.2,2.87-.29,5.72-.24,8.57,0,1.42.1,2.84.23,4.26s.32,2.88.93,3.52a2.16,2.16,0,0,0,1.46.55,13,13,0,0,0,2.06,0l4.31-.41A23.21,23.21,0,0,1,457.7,231.74Z"/><path d="M215.18,233.39c-.64-7.61-1-15.24-1.32-22.86L213,187.68c-.33-7.6-.65-15.2-1.22-22.77s-1.25-15.13-2.31-22.63l2,1.51c-.88.13-1.76.25-2.53.4a4.64,4.64,0,0,0-1.79.65l.73-1.63c.09.84.26,1.77.34,2.84,0,.26,0,.57,0,.81v.69l0,1.39.06,5.57.13,11.15c.05,7.44.09,14.89-.15,22.35-.12,3.72-.28,7.47-.52,11.16s-.24,7.39-.27,11.1,0,7.43-.09,11.16c0,1.86-.1,3.72-.2,5.58,0,.93-.15,1.87-.12,2.78s.17,1.84.23,2.77c-.15-.92-.37-1.82-.49-2.75s-.09-1.88-.13-2.8c-.06-1.86-.14-3.71-.24-5.57l-.64-11.13c-.2-3.72-.33-7.46-.31-11.21s.1-7.41.07-11.13c-.06-7.41-.23-14.83-.44-22.25-.12-3.72-.21-7.43-.28-11.15l-.1-5.59,0-1.39v-.7c0-.23,0-.38,0-.59-.06-.78-.23-1.69-.35-2.69a1.76,1.76,0,0,1,.72-1.62h0a7.94,7.94,0,0,1,3.14-1.26c1-.2,1.85-.31,2.72-.43h0a1.76,1.76,0,0,1,2,1.49v0q1.49,11.41,2.12,22.89t.63,22.93c.06,7.64-.06,15.26-.16,22.89Z"/><path d="M105.89,195.85a106.66,106.66,0,0,1-11.1,1.72c-3.72.38-7.46.66-11.19.82-1.87.09-3.73.19-5.59.24l-2.79.08c-.49,0-.88,0-1.45,0a9.51,9.51,0,0,1-1.67-.15,7.25,7.25,0,0,1-3.26-1.42,8,8,0,0,1-2.19-2.74,18.87,18.87,0,0,1-1.06-2.85,2.62,2.62,0,0,0-.92-1.44l1.69.25a4.44,4.44,0,0,0-2.82,3.08,11.06,11.06,0,0,0-.41,2.54l-.1,3c-.18,4-.32,7.95-.57,11.93l-.36,6-.44,6-.52,6-.3,3a10.63,10.63,0,0,0,.5,2.86,10.77,10.77,0,0,1-1.06-2.87l-.16-3-.25-6-.15-6-.08-6c-.06-4,0-8,0-12l.06-3a14.39,14.39,0,0,1,.5-3.35,8.44,8.44,0,0,1,1.77-3.3,8,8,0,0,1,3.16-2.1h0a1.75,1.75,0,0,1,1.66.27,5.61,5.61,0,0,1,1.35,1.48,7.46,7.46,0,0,1,.75,1.66,14.85,14.85,0,0,0,.82,2.41,4.24,4.24,0,0,0,3,2.46,5.62,5.62,0,0,0,1.11.14c.35,0,.9,0,1.34,0l2.8,0c1.86,0,3.72.09,5.58.13,3.71.06,7.43.18,11.14.2S102.14,195.9,105.89,195.85Z"/><path d="M281.17,26.34a43.17,43.17,0,0,0-.12,8.8c.22,2.93.48,5.89.46,8.94a1.13,1.13,0,0,1-.6,1l-.09,0a6.2,6.2,0,0,1-2,.63,8.15,8.15,0,0,1-2,0,12.9,12.9,0,0,0-2.94-.22l.6-.19c-.12.09-.15.15-.15.16s0,.06,0,.23a5.76,5.76,0,0,0,.08.76l.06.55,0,.57.16,3.92c.12,2.62.15,5.23.23,7.85s.12,5.23.14,7.84.08,5.23.05,7.85q0,7.85-.23,15.7a14.31,14.31,0,0,0,.17,3.64A3.83,3.83,0,0,0,277,97a27.29,27.29,0,0,0,3.48,1.6c1.21.51,2.41,1.06,3.61,1.59-1.28-.3-2.57-.57-3.83-.89a22.75,22.75,0,0,1-3.88-1.11,6.07,6.07,0,0,1-1.85-1.24,5.28,5.28,0,0,1-1.21-2,15.66,15.66,0,0,1-.67-4.14c-.35-5.23-.61-10.45-.81-15.69-.13-2.61-.16-5.23-.24-7.84s-.13-5.23-.15-7.85-.08-5.23-.06-7.85l0-3.93v-.41l0-.42a8.42,8.42,0,0,1-.05-1.2,3.44,3.44,0,0,1,.47-1.65A3.37,3.37,0,0,1,273,42.81l.09-.05a1.2,1.2,0,0,1,.51-.15,13.78,13.78,0,0,1,3.62.47,4.21,4.21,0,0,0,2.51-.18l-.68,1c.33-2.85.31-5.81.53-8.79A31.62,31.62,0,0,1,281.17,26.34Z"/><path d="M254.78,233c-.73-5.35-1.23-10.7-1.67-16.06l-.58-8-.44-8c-.23-5.37-.47-10.73-.56-16.1-.08-2.68-.13-5.37-.14-8s0-5.37,0-8.06l1.43,1.33c-1.8,0-3.59,0-5.36-.15l-5.27-.3c-1.75-.1-3.5-.13-5.25-.1a38.93,38.93,0,0,0-5.25.47,29.11,29.11,0,0,1,5.15-1.44,53.29,53.29,0,0,1,5.32-.66c1.78-.13,3.56-.19,5.32-.28s3.5-.14,5.23-.29a1.31,1.31,0,0,1,1.42,1.2h0v.12c.2,2.68.34,5.36.49,8s.28,5.37.37,8.05c.24,5.36.34,10.73.45,16.1l.06,8.06-.07,8.06C255.33,222.21,255.17,227.59,254.78,233Z"/><path d="M563.28,201.63a28.29,28.29,0,0,0-10.36-.57,47.18,47.18,0,0,0-10,2.54l0-1.43a25.08,25.08,0,0,0,10,1.34c3.43-.13,6.91-.65,10.5-.77l-1.2,1c.81-4,.39-8.28.4-12.71l1.39,1.51a129.9,129.9,0,0,0-17.51.49l-4.4.37-.56,0a2.18,2.18,0,0,0-.29.05,1.07,1.07,0,0,0-.4.17,1.41,1.41,0,0,0-.47.85,4.16,4.16,0,0,0-.09.75v1l0,2.21,0,4.44c.06,5.9.11,11.79.31,17.66l.18,4.44c0,1.51,0,3,.06,4.48s0,2.93.09,4.37l0,1.08a7.4,7.4,0,0,1,0,1.41,3.73,3.73,0,0,1-.75,1.86,3.48,3.48,0,0,1-1.78,1.13,6,6,0,0,1-1.56.17l-1.11,0-2.2,0-4.42,0-8.84.07c-5.91,0-11.84.14-17.78-.08-3-.11-5.94-.25-8.91-.51s-5.86-.46-8.8-.56-5.9-.14-8.85-.15h-4.44c-1.54.09-2.93-.77-4.4-.34,1.44-.56,3,.18,4.39,0s2.95-.25,4.42-.35c3-.21,5.92-.38,8.88-.45s5.95-.08,8.92.05,5.87.12,8.81.09c5.89-.07,11.78-.31,17.68-.56,3-.14,5.92-.22,8.89-.29l4.45-.07H537a2.46,2.46,0,0,0,.64-.07c.13-.05.1-.07.07,0s0,0,0-.18-.07-1.23-.1-1.94c-.07-1.51-.09-3-.11-4.49s0-2.94-.1-4.39l-.21-4.42c-.26-5.94-.32-11.87-.31-17.79v-7.82a6.79,6.79,0,0,1,.19-1.45,4.74,4.74,0,0,1,1.82-2.82,4.32,4.32,0,0,1,1.62-.72,5.52,5.52,0,0,1,.8-.12l.55,0,4.43-.3a129.2,129.2,0,0,1,17.93-.12h0a1.46,1.46,0,0,1,1.34,1.51c-.09,2.1-.05,4.26-.12,6.47a34,34,0,0,1-.78,6.69v0a1.24,1.24,0,0,1-1.2,1c-3.43,0-6.94.33-10.52.32a32.76,32.76,0,0,1-5.4-.43,21.75,21.75,0,0,1-5.23-1.57l0,0a.75.75,0,0,1,.1-1.41,45.68,45.68,0,0,1,10.44-1.94A27.07,27.07,0,0,1,563.28,201.63Z"/><path d="M539.77,170.7a25.53,25.53,0,0,1,.91,5.39c.05.45.12.88.21,1.31a14,14,0,0,1,.21,1.43,3.17,3.17,0,0,1-.3,1.73,1.77,1.77,0,0,1-.9.78,2.65,2.65,0,0,1-1,.16A18.81,18.81,0,0,1,536,181l-2.66-.54-5.33-1.14c-3.56-.73-7.09-1.59-10.64-2.42s-7-1.82-10.57-2.8a23.91,23.91,0,0,0-10-1.13,19.54,19.54,0,0,0-2.49.4c-.83.18-1.63.43-2.54.69-1.77.52-3.55,1-5.33,1.36-3.56.85-7.14,1.52-10.69,2.24A30.55,30.55,0,0,0,465.53,181c2.71-2.49,6.31-3.93,9.77-5s6.95-2.16,10.4-3.22l5.13-1.66c.83-.28,1.74-.61,2.69-.86a24.42,24.42,0,0,1,2.85-.6,26.77,26.77,0,0,1,11.46,1.06c3.46,1,6.95,2,10.43,3s7,1.94,10.47,3c1.74.52,3.49,1,5.23,1.56l2.6.83a21.93,21.93,0,0,0,2.44.71,1.65,1.65,0,0,0,.36,0s.08,0,.13-.06a1.81,1.81,0,0,0,.24-.9c0-.78-.09-1.77,0-2.69A34.14,34.14,0,0,0,539.77,170.7Z"/><path d="M292.72,29.64a14.6,14.6,0,0,1,1.19,4.78l.25,2.42c0,.39.11.78.18,1.16l.11.57c0,.22.08.45.1.67.18,1.75,0,3.41.46,4.55a2.8,2.8,0,0,0,1,1.31,2,2,0,0,0,.38.24l.26.14a1.94,1.94,0,0,1,.69.76A4.42,4.42,0,0,1,297.8,48l0,2.49v2.44l0,4.86-.22,9.73-.4,9.73c-.21,3.24-.34,6.48-.61,9.71s-.52,6.48-.83,9.71l-.54,4.84c-.18,1.5.15,3.26-.4,4.84.18-1.65-.48-3.13-.58-4.86s-.15-3.26-.22-4.89c-.1-3.24-.19-6.49-.2-9.74s0-6.48,0-9.73l.23-9.72.41-9.72.28-4.86.15-2.43.17-2.36a5.42,5.42,0,0,0,0-.61.9.9,0,0,0,.32.3,2.46,2.46,0,0,0-.27-.18c-.2-.15-.41-.28-.61-.46a5,5,0,0,1-1.66-2.63,8.29,8.29,0,0,1-.15-2.77c.07-.84.16-1.63.18-2.36V38.8l0-.64c0-.43,0-.85,0-1.26,0-.83.07-1.65.13-2.45A16.88,16.88,0,0,0,292.72,29.64Z"/><path d="M161.15,153a3,3,0,0,0-2,.8,2.65,2.65,0,0,0-.47,1.9l.41,4.5c.24,3,.46,6.05.61,9.07s.27,6.06.4,9.08l.2,9.09q.12,9.07-.18,18.18c-.06,3-.19,6.06-.33,9.1l-.29,4.55c-.07.76-.11,1.51-.19,2.28a3.27,3.27,0,0,0,0,1.08,1.54,1.54,0,0,0,.58.9,1.58,1.58,0,0,1-.84-.81,3.82,3.82,0,0,1-.27-1.17c-.07-.75-.17-1.51-.26-2.27l-.47-4.53c-.26-3-.51-6.05-.69-9.07q-.49-9.07-.6-18.17v-9.09c.06-3,.06-6.07.19-9.1s.24-6.06.41-9.1c.12-1.53.18-3,.35-4.58a3.3,3.3,0,0,1,1.1-2.24A3.15,3.15,0,0,1,161.15,153Z"/><path d="M498.94,230.91c-.9-2.86-1.58-5.77-2.25-8.68l-1.94-8.68c-.68-2.87-1.37-5.71-2.23-8.5-.44-1.38-.88-2.73-1.42-4a17.74,17.74,0,0,0-2-3.51l1.86.66a3.12,3.12,0,0,0-.62.26,1,1,0,0,0-.3.29,5.37,5.37,0,0,0-.5,1.68c-.34,1.59-.68,3.07-.93,4.64-.57,3.1-.91,6.26-1.3,9.44l-.57,4.79-.67,4.8c-.27,1.62-.53,3.18-.85,4.79a10.06,10.06,0,0,1-2,4.5,11.24,11.24,0,0,0,.94-4.62l.07-4.82.07-4.82.13-4.83q.15-4.86.76-9.75c.22-1.61.52-3.28.85-4.84a8.08,8.08,0,0,1,1-2.88,4.32,4.32,0,0,1,1.41-1.38,6.24,6.24,0,0,1,1.6-.66,1.77,1.77,0,0,1,1.87.66,24.85,24.85,0,0,1,3.75,8.72,80.12,80.12,0,0,1,1.72,8.89c.43,3,.69,5.95.94,8.92S498.78,227.92,498.94,230.91Z"/><path d="M205.28,201.22c-.39-3.74-.83-7.47-1.19-11.21L203,178.8c-.38-3.73-.75-7.47-1.07-11.21l-1-11.22.65.94a4.29,4.29,0,0,0-2.52-.24,23.08,23.08,0,0,0-2.93.86,13.75,13.75,0,0,1-1.71.45l-1.59.29-3.17.59L177,161.78q-3.18.63-6.37,1.21a9,9,0,0,0-1.37.3,2.24,2.24,0,0,0-.84.44.88.88,0,0,0-.28.53l-.23,1.54c-.71,4.32-1.69,8.46-1.51,12.46a27.38,27.38,0,0,0,.33,3c.09.52.17,1,.27,1.48a3.14,3.14,0,0,0,.28.87.43.43,0,0,0-.17-.12c-.05,0,0,0,.18,0a8.12,8.12,0,0,0,1.28-.2c1-.21,2.06-.47,3.11-.71l12.57-3,6.29-1.47c.24,0,.57-.13.89-.18l.92-.12c.59-.06,1.14-.09,1.66-.13l.75-.06.81-.09a7.14,7.14,0,0,1,2.14.08,4.22,4.22,0,0,1,2.34,1.33,4.87,4.87,0,0,1,1.07,2.23,10,10,0,0,1,.18,2l0,1.57c.07,2.1.24,4.21.44,6.34l.3,3.26a6.21,6.21,0,0,1-.18,2.2,3.92,3.92,0,0,1-1.68,2.22,6.83,6.83,0,0,1-2,.77c-.3.08-.6.13-.89.18l-.8.13-3.21.51c-4.27.66-8.53,1.25-12.74,2-2.1.37-4.17.79-6.27,1.25s-4.48.8-4.89,1.74a8.57,8.57,0,0,0-.78,2.59c-.19,1-.36,2.1-.52,3.15s-.32,2.1-.41,3.11l-.05.74v.68c0,.22,0,.4.08.58s.07.31.14.33c0,.25.91.4,1.88.34s2-.22,3.08-.37c2.1-.36,4.26-.66,6.39-1q6.39-1,12.8-1.89a20.31,20.31,0,0,1,3.33-.33,3.5,3.5,0,0,1,1.86.55,2.9,2.9,0,0,1,1.1,1.65,7.16,7.16,0,0,1,.18,1.76l0,1.6c0,1.06.05,2.13.12,3.2.13,2.14.37,4.28.52,6.44.07,1.07.16,2.16.13,3.23a3.34,3.34,0,0,0,.3,1.54,2.19,2.19,0,0,0,1.21,1,2.24,2.24,0,0,1-1.31-.93,3.48,3.48,0,0,1-.42-1.58c-.05-1.08-.21-2.13-.35-3.2-.31-2.13-.62-4.26-.87-6.41-.13-1.07-.23-2.16-.29-3.24l-.07-1.63a6,6,0,0,0-.21-1.44,1.71,1.71,0,0,0-1.91-1.23,20,20,0,0,0-3.07.48q-6.34,1.26-12.68,2.43c-2.12.41-4.21.78-6.35,1.22a32.75,32.75,0,0,1-3.31.52,8.71,8.71,0,0,1-.91,0,5,5,0,0,1-1-.07,4.12,4.12,0,0,1-1.13-.34,3.08,3.08,0,0,1-1-.9,3.88,3.88,0,0,1-.54-1.13,9.43,9.43,0,0,1-.17-1l0-.92,0-.88c.07-1.13.2-2.23.34-3.3s.28-2.15.45-3.25c.09-.55.19-1.11.34-1.69.06-.29.17-.61.26-.91a6.34,6.34,0,0,1,.45-1,4.37,4.37,0,0,1,1.62-1.63,8,8,0,0,1,1.81-.76c1.13-.35,2.17-.57,3.22-.83,2.1-.5,4.25-1,6.38-1.37,4.26-.82,8.53-1.48,12.76-2.2l3.17-.55.79-.14c.24,0,.47-.09.68-.15a3.62,3.62,0,0,0,1-.37c.18-.14.16-.11.23-.3a3.27,3.27,0,0,0,0-1l-.31-3.17c-.21-2.16-.4-4.34-.49-6.55l0-1.66a6.45,6.45,0,0,0-.11-1.25,1.37,1.37,0,0,0-.28-.66.74.74,0,0,0-.44-.21,4.14,4.14,0,0,0-1.08,0l-.78.1-.86.08c-.56,0-1.08.07-1.56.12-.24,0-.47.06-.69.09l-.69.15-6.29,1.47L172.46,186c-1.06.24-2.08.49-3.19.72a10.5,10.5,0,0,1-1.91.26,4,4,0,0,1-1.42-.22,3,3,0,0,1-.82-.45,3.51,3.51,0,0,1-.6-.63,5.69,5.69,0,0,1-.85-2.14c-.13-.61-.21-1.16-.3-1.71a26.07,26.07,0,0,1-.35-3.4c-.12-4.66,1-9,1.75-13.12l.29-1.65a4,4,0,0,1,1.28-2.23,7.07,7.07,0,0,1,3.78-1.44l6.35-1.09,12.74-2.19,3.2-.52,1.6-.24a12.46,12.46,0,0,0,1.42-.33,21.56,21.56,0,0,1,3.29-.84,7.68,7.68,0,0,1,1.92,0,7.14,7.14,0,0,1,1.88.55h0a1.07,1.07,0,0,1,.64.93l1.08,22.5L204.8,190C205,193.71,205.12,197.46,205.28,201.22Z"/><path d="M284.06,101a22.62,22.62,0,0,1-6.46,1.1,19.29,19.29,0,0,0-6,1.16l.73-.79a33.41,33.41,0,0,0-.48,6.89c0,2.35.12,4.74.12,7.2L271.25,131c-.27,4.78-.56,9.58-1,14.38-.24,2.38-.51,4.84-.8,7.15a8.31,8.31,0,0,0,.32,3.33,7.52,7.52,0,0,0,1.91,2.92,7,7,0,0,1-2.65-2.57,8.5,8.5,0,0,1-1.06-3.68c-.09-1.29-.08-2.43-.11-3.64l-.08-3.61c-.07-4.79-.09-9.6,0-14.41q.07-3.62.27-7.23c.14-2.39.37-4.85.47-7.14l.28-7.2a32.52,32.52,0,0,1,1.27-7.38l0-.13a1,1,0,0,1,.7-.66,18.2,18.2,0,0,1,6.78-.35A32.4,32.4,0,0,0,284.06,101Z"/><path d="M483.27,235a36.7,36.7,0,0,1-3-8.73c-.32-1.51-.62-3-.87-4.53l-.71-4.51c-.24-1.5-.43-3-.71-4.45-.13-.73-.29-1.45-.44-2.18s-.29-1.54-.42-2.29a24.4,24.4,0,0,0-2.35-8.13l3,.19a18.8,18.8,0,0,0-2.94,6.22c-.34,1.15-.62,2.36-.91,3.59s-.66,2.54-1,3.71l-2.11,7.25c-.72,2.42-1.44,4.86-2.3,7.26.17-2.55.43-5.06.72-7.59s.65-5,1.15-7.54c.26-1.28.45-2.42.64-3.68s.42-2.52.71-3.81a19.69,19.69,0,0,1,3.24-7.5,1.75,1.75,0,0,1,2.46-.37,1.71,1.71,0,0,1,.49.55h0a19.19,19.19,0,0,1,1.82,4.65,46.28,46.28,0,0,1,.83,4.66l.33,2.2c.11.78.23,1.55.32,2.32.18,1.55.34,3.08.43,4.61l.26,4.56c.07,1.52.14,3,.25,4.53A66.06,66.06,0,0,0,483.27,235Z"/><path d="M152.91,236.69a2.85,2.85,0,0,0,1.31-.34,1.14,1.14,0,0,0,.37-1c-.09-.88-.22-1.89-.3-2.83-.2-1.9-.33-3.81-.48-5.71l-.35-5.71-.29-5.69c-.18-3.79-.37-7.56-.63-11.32l-.42-5.64-.57-5.63,1.3,1.15a23.63,23.63,0,0,0-3.41-.18,1.3,1.3,0,0,0-.26,0,.6.6,0,0,0-.16.05c-.06,0-.06,0-.12.06s-.08.09-.12.2a5.41,5.41,0,0,0-.35,1.53c-.09.59-.15,1.21-.22,1.83s-.08,1.21-.15,1.85a8.44,8.44,0,0,1-.35,1.91,4.39,4.39,0,0,1-1,1.65,5.79,5.79,0,0,0,.38-3.55c-.09-.6-.19-1.22-.25-1.87s-.11-1.25-.14-1.9a6.6,6.6,0,0,1,.18-2.14,3.39,3.39,0,0,1,.27-.64,2.71,2.71,0,0,1,.51-.61,2.35,2.35,0,0,1,.64-.42,3.25,3.25,0,0,1,.63-.23,9.44,9.44,0,0,1,2.11-.28l1.91,0a1.27,1.27,0,0,1,1.27,1l0,.14c.19.94.42,1.88.59,2.83l.47,2.86c.3,1.91.53,3.83.71,5.74.35,3.84.51,7.69.51,11.53,0,1.91,0,3.83-.1,5.74s-.17,3.82-.3,5.73-.28,3.82-.47,5.72c-.09,1-.18,1.87-.32,2.89a2.34,2.34,0,0,1-.28.79,1.28,1.28,0,0,1-.67.55A2.68,2.68,0,0,1,152.91,236.69Z"/><path d="M291.9,16.44A27.06,27.06,0,0,1,293,23.93a72.19,72.19,0,0,1-.36,7.53c-.46,4.94-1,9.73-.45,14.37v0a1.76,1.76,0,0,1-1.53,2,1.81,1.81,0,0,1-.77-.08c-1-.33-1.92-.67-2.91-1.07a13.53,13.53,0,0,1-3-1.57,5.55,5.55,0,0,1-1.43-1.5,5.47,5.47,0,0,1-.77-1.88,14.85,14.85,0,0,1-.18-3.33c0-2.06.32-4.1.49-6.07a24.35,24.35,0,0,0,0-6,16.53,16.53,0,0,1,1.63,5.95c.14,1,.18,2,.27,3l.25,3a12.44,12.44,0,0,0,.46,2.67,2.48,2.48,0,0,0,1.16,1.46,12.33,12.33,0,0,0,2.4,1c.89.32,1.85.61,2.8.91l-2.3,1.9a34.27,34.27,0,0,1-.11-7.77A69.61,69.61,0,0,1,289.7,31c.49-2.43,1-4.83,1.41-7.24A53.8,53.8,0,0,0,291.9,16.44Z"/><path d="M308,107.18c.46,4.89.57,9.76.56,14.62s-.16,9.71-.44,14.56-.68,9.68-1.21,14.51a145.53,145.53,0,0,1-2.21,14.46c-.46-4.88-.57-9.75-.56-14.61s.15-9.72.44-14.56.68-9.69,1.22-14.52S307,112,308,107.18Z"/><path d="M193.74,134.4c-.18-4-.23-7.91-.3-11.82s-.15-7.8-.19-11.71,0-7.84.13-11.78c.06-2,.19-3.94.35-5.92,0-.5.1-1,.11-1.41a2,2,0,0,0-.15-1c-.05-.2-.55-.2-1-.06s-.94.29-1.43.41c.4-.31.78-.61,1.22-.91a2.54,2.54,0,0,1,.74-.35,1.24,1.24,0,0,1,1.05.11,1.45,1.45,0,0,1,.43.38,3.09,3.09,0,0,1,.24.43,4.09,4.09,0,0,1,.27.84c.12.55.18,1.05.26,1.53.26,2,.51,3.91.68,5.88q.6,5.88.65,11.83a94.54,94.54,0,0,1-.6,11.88A57.68,57.68,0,0,1,193.74,134.4Z"/><path d="M140.12,208.64a75.9,75.9,0,0,1,3.9,11.19,31,31,0,0,1,.85,6,10.78,10.78,0,0,1,0,1.69,3.5,3.5,0,0,1-.39,1.23,2.68,2.68,0,0,1-1.23,1.11,4.75,4.75,0,0,1-2.15.34c-.3,0-.58,0-.84,0l-.71-.05c-1.89-.12-3.8-.21-5.73-.24l-5.82,0c-1,0-2,0-3-.06l-2.9-.1a6.73,6.73,0,0,0-4.57,1.08l-.06,0a1.5,1.5,0,0,1-2.1-.29,1.44,1.44,0,0,1-.31-.94v-.07c6.07-.06,1.69.13,3,.06h0v.61l0,.61L118,232c0,.81,0,1.58,0,2.3l0,.51.08.41c0,.09.07.21.1.27s0,.14.12.17a3,3,0,0,0,1.69.41c1.55.06,3.17,0,4.86,0s3.29.37,4.92.61c-1.63.23-3.29.28-4.86.53s-3.17.66-4.88.8a7.82,7.82,0,0,1-1.38,0,3.45,3.45,0,0,1-1.65-.5,2.66,2.66,0,0,1-.75-.67,4.15,4.15,0,0,1-.47-.81c-.09-.25-.17-.51-.24-.76l-.14-.7a24.53,24.53,0,0,1-.24-2.58l-.06-1.24,0-.62v-.56h0c1.35-.08-3,.11,3,0v-.06l-2.47-1.19a8.65,8.65,0,0,1,3.16-1.66,13.59,13.59,0,0,1,3.31-.44l5.87,0c1.95,0,3.92,0,5.9.1a57.75,57.75,0,0,1,6,.46l.74.1.63.08a4.44,4.44,0,0,0,.74,0,.43.43,0,0,0-.15.17s0,0,0-.16a7.5,7.5,0,0,0,.13-1.24,36.74,36.74,0,0,0-.18-5.63C141.44,216.41,140.6,212.56,140.12,208.64Z"/><path d="M465.94,188a57.65,57.65,0,0,1,2.17,11.91,118,118,0,0,1,.43,12c0,4-.17,8-.36,11.93s-.13,7.94-.59,12a69.49,69.49,0,0,1-2.18-11.92c-.37-4-.45-8-.42-12s.17-8,.36-11.93S465.67,192.07,465.94,188Z"/><path d="M499.76,163.68A30.52,30.52,0,0,1,490,169.4c-1.75.69-3.52,1.29-5.26,1.87s-3.44,1.18-5.25,1.76a105.27,105.27,0,0,1-10.83,2.73c-1.82.37-3.65.67-5.48,1l-2.77.4c-.47.07-.94.11-1.37.19a1.84,1.84,0,0,1-.78,0,.92.92,0,0,1-.57-.48.91.91,0,0,0,.59.21,1.69,1.69,0,0,0,.57-.26c.43-.25.86-.43,1.28-.63.85-.4,1.71-.76,2.57-1.14,1.73-.69,3.47-1.38,5.22-2,3.5-1.24,7-2.34,10.51-3.43,1.73-.54,3.54-1.12,5.35-1.59s3.6-.89,5.38-1.31A82,82,0,0,0,499.76,163.68Z"/><path d="M183.43,94c-1,.44-1.94.81-2.84,1.28a6.4,6.4,0,0,0-2.24,1.63c-1,1.22-.79,3.25-.71,5.23s.37,4.1.47,6.18.17,4.16.18,6.24a118.07,118.07,0,0,1-.63,12.47,85.22,85.22,0,0,1-2.07,12.34c-.44-4.18-.59-8.32-.7-12.45s-.14-8.24-.16-12.36l0-6.17c0-2.05,0-4.09.13-6.23a19.12,19.12,0,0,1,.42-3.29,5.72,5.72,0,0,1,1.83-3.19,7.14,7.14,0,0,1,3.14-1.33A20,20,0,0,1,183.43,94Z"/><path d="M501,157.5c0,1-.06,2-.09,3,0,.5,0,1,0,1.47a2.53,2.53,0,0,0,.26,1.14,2.79,2.79,0,0,0,1.81,1.12c.94.26,1.9.59,2.86.87,3.82,1.14,7.62,2.35,11.42,3.58s7.57,2.53,11.33,4c1.88.69,3.74,1.44,5.61,2.21.92.41,1.85.8,2.77,1.23l.69.32a2.78,2.78,0,0,0,.64.24c.46.11,1,.1,1.49.2-.5.11-1,.26-1.51.33a2.91,2.91,0,0,1-.84,0l-.75-.11c-1-.15-2-.33-3-.49-2-.38-4-.77-5.92-1.24-3.92-.89-7.8-2-11.63-3.23a107.49,107.49,0,0,1-11.29-4.38c-.92-.43-1.83-.83-2.76-1.3a6.76,6.76,0,0,1-1.5-1,3.48,3.48,0,0,1-1.07-1.71,4.05,4.05,0,0,1,0-1.84,13.73,13.73,0,0,1,.42-1.5C500.26,159.39,500.63,158.45,501,157.5Z"/><path d="M99.7,202c.27,7.71.51,15.37,1,23l.38,5.72a19.45,19.45,0,0,0,.24,2.62,1.71,1.71,0,0,0,.87,1.27,8.58,8.58,0,0,0,2.32.77l2.75.69a4.4,4.4,0,0,0,2,.19c.16-.05.14-.06.18-.11a1.15,1.15,0,0,0,.14-.54,3.78,3.78,0,0,0,0-.49v-.23a1.66,1.66,0,0,1,0-.24,2.07,2.07,0,0,1,.2-.66,3.46,3.46,0,0,1,.29-.49s0-.05,0,0l0,.06,0,0,0,0,.11-.35.23-.68a23.67,23.67,0,0,0,.76-2.48,1.14,1.14,0,0,0,0-.21l0-.16s0,0,0,0a.2.2,0,0,0,.06.14s0,.11.11.14,0,0,0,0,0,0-.08,0a.68.68,0,0,0-.16-.06,14,14,0,0,0-2.48-.22c-3.77,0-7.7-.19-11.52-.38s-7.68-.5-11.51-.76l-5.74-.43c-1.82-.15-3.74,0-5.69,0l.48-.31a32.49,32.49,0,0,0-1.81,3.26,13.81,13.81,0,0,0-1.2,3.52,13.74,13.74,0,0,1,.61-3.75,34.08,34.08,0,0,1,1.36-3.57A.53.53,0,0,1,74,227h.07a58.15,58.15,0,0,1,5.81-.68l5.78-.1c3.84,0,7.69,0,11.52,0s7.61,0,11.51,0a15.69,15.69,0,0,1,3.25.29,3.35,3.35,0,0,1,.52.16,2.17,2.17,0,0,1,.58.26,2.77,2.77,0,0,1,.63.44,3.08,3.08,0,0,1,.56.7,4.12,4.12,0,0,1,.32.81,4.46,4.46,0,0,1,0,1.76,20.28,20.28,0,0,1-.88,3l-.24.68-.12.34-.06.16a2.51,2.51,0,0,1-.11.23,2.83,2.83,0,0,1-.17.29l-.08.13a1.78,1.78,0,0,0,.09-.32v-.15c0-.06,0-.13,0-.08v.12a6.31,6.31,0,0,1,0,.95,4.46,4.46,0,0,1-.78,2.14,3.72,3.72,0,0,1-2.15,1.45,7.32,7.32,0,0,1-3.73-.24l-2.83-.78a10.85,10.85,0,0,1-3.06-1.24,4.74,4.74,0,0,1-1.49-1.5,5.32,5.32,0,0,1-.71-1.88,9.64,9.64,0,0,1-.16-1.67l0-1.45c0-1.93,0-3.86,0-5.79A178,178,0,0,1,99.7,202Z"/><path d="M192.91,128.63A84.22,84.22,0,0,1,191.12,118c-.38-3.57-.66-7.14-.93-10.7l-.44-5.33-.37-5.35-.68-10.73,2.14,1.29a47.55,47.55,0,0,0-4.06,2.49A14.24,14.24,0,0,1,184.35,91a8.57,8.57,0,0,1-2.91.64,1.62,1.62,0,0,1-1.65-1.31,5.63,5.63,0,0,1,0-2,4.72,4.72,0,0,1,.86-1.9A11,11,0,0,1,183,84.24a13.67,13.67,0,0,0,3.28-3.56,10.71,10.71,0,0,0,1.54-4.44,14.14,14.14,0,0,0,.06-2.44l0-.61a3.6,3.6,0,0,1,.1-1.33,3.23,3.23,0,0,1,.69-1.26,7.28,7.28,0,0,1,.71-.69,1.73,1.73,0,0,1,1.72-.3l.06,0a5.58,5.58,0,0,1,2.66,2.15,8.68,8.68,0,0,1,1.08,2.79c.2.85.31,1.55.53,2.2s.47,1.46.72,2.18a19.72,19.72,0,0,0,4.5,7.46,19.92,19.92,0,0,0,1.65,1.46,12.43,12.43,0,0,1,1.95,1.89,11.84,11.84,0,0,1,2.47,4.85,18.33,18.33,0,0,1,.47,5.17c0,.84-.1,1.66-.19,2.48l-.14,1.21c-.05.39-.09.71-.11,1.08a28.73,28.73,0,0,0,.28,4.54c.09.8.18,1.61.23,2.44s.05,1.69,0,2.46l-.13,9.57-.22,9.56-.14,4.78c0,.79-.09,1.6-.08,2.38s.17,1.58.23,2.37c-.15-.78-.38-1.55-.5-2.35s-.13-1.59-.2-2.39l-.3-4.77-.55-9.54-.46-9.55c0-.81-.07-1.56-.15-2.31s-.2-1.52-.33-2.3a32.26,32.26,0,0,1-.51-5c0-.42,0-.9.07-1.3l.08-1.16c0-.78.09-1.54.08-2.29a15.49,15.49,0,0,0-.49-4.31,8.69,8.69,0,0,0-1.92-3.53,9.55,9.55,0,0,0-1.51-1.39,22.47,22.47,0,0,1-2-1.65,22.79,22.79,0,0,1-5.4-8.68c-.29-.78-.56-1.57-.8-2.35s-.44-1.74-.61-2.43a5.35,5.35,0,0,0-.62-1.66,2.15,2.15,0,0,0-1-.79l1.77-.28-.28.25s0,0,0-.07,0-.15,0,0l0,.75a18.35,18.35,0,0,1-.11,3,14.35,14.35,0,0,1-2.09,5.84A16.79,16.79,0,0,1,185.05,87a9.27,9.27,0,0,0-1.77,1.43,1.48,1.48,0,0,0-.3,1.29l-1.64-1.31A7.75,7.75,0,0,0,185.16,87a44.3,44.3,0,0,1,4.39-2.52l0,0a1.47,1.47,0,0,1,2,.73,1.54,1.54,0,0,1,.14.58l.4,21.44c0,3.58,0,7.15.12,10.72S192.49,125.07,192.91,128.63Z"/><path d="M532.76,199.57a47.36,47.36,0,0,1,2.45,9.22,68.24,68.24,0,0,1,.92,9.46,69.82,69.82,0,0,1-.34,9.48A50.46,50.46,0,0,1,534,237.1a93.19,93.19,0,0,1-1-9.43c-.2-3.11-.33-6.22-.42-9.32s-.14-6.2-.14-9.32S532.48,202.77,532.76,199.57Z"/><path d="M520.39,197.09a3.23,3.23,0,0,1,.11,2.21,13,13,0,0,1-.92,2,5.39,5.39,0,0,0-.66,2l-.19,2.22c-.27,3-.61,5.9-1,8.84s-.79,5.88-1.22,8.81l-.32,2.19-.16,1.1c0,.21,0,.3,0,.46l0,.49a7,7,0,0,1-.51,2.76,4.23,4.23,0,0,1-1.14,1.46,5,5,0,0,1-1.49.83h0a1.65,1.65,0,0,1-2.15-.93l0-.1v0a34,34,0,0,1-1.36-9.11c-.12-3-.15-5.84-.54-8.73s-.4-5.9-.77-8.79a28.3,28.3,0,0,0-.85-4.27,19.55,19.55,0,0,1-.62-2.13,1.85,1.85,0,0,0-.36-1,1.32,1.32,0,0,0-1-.31,1.38,1.38,0,0,1,1.07.23,2.05,2.05,0,0,1,.5,1,17.38,17.38,0,0,0,.82,2,29.83,29.83,0,0,1,1.31,4.25c.66,2.9,1,5.84,1.64,8.66s1,5.91,1.45,8.77a30.72,30.72,0,0,0,2,8.11l-2.2-1.06h0c.44-.12.58-.19.73-.39a4.13,4.13,0,0,0,.4-1.56l.1-.61a6.27,6.27,0,0,1,.13-.63l.27-1.08.54-2.15c.71-2.86,1.41-5.73,2.08-8.6s1.29-5.76,1.85-8.66l.41-2.17a6,6,0,0,1,.93-2.12,12.15,12.15,0,0,0,1.1-1.9A3.06,3.06,0,0,0,520.39,197.09Z"/><path d="M304.68,233a10.16,10.16,0,0,1-3.85,2.05,26,26,0,0,1-4.26.78c-2.73.27-5.42.65-8.22.83a42.57,42.57,0,0,1-8.51-.15,21,21,0,0,1-8.15-2.68c2.87.08,5.56,0,8.27-.11s5.39-.41,8.15-.6a57.45,57.45,0,0,1,8.41-.08C299.3,233.23,301.86,233.56,304.68,233Z"/><path d="M504.71,197.92a43.07,43.07,0,0,0-.48,8.2,57.09,57.09,0,0,1-.25,8.42c-.32,2.66-.56,5.41-1,8.19a27.62,27.62,0,0,1-2.39,8.18c-.15-2.87-.3-5.59-.4-8.36a55.88,55.88,0,0,1,.27-8.45c.36-2.65.51-5.38,1-8.21A16.92,16.92,0,0,1,504.71,197.92Z"/><path d="M132.7,207.81a24.15,24.15,0,0,0-1.55,6.18c-.19,1-.37,2.14-.67,3.24a16.69,16.69,0,0,1-1.27,3.25,1.41,1.41,0,0,1-1.89.6,1.36,1.36,0,0,1-.5-.45l-.11-.15a15.07,15.07,0,0,1-2-4.31c-.45-1.47-.73-2.92-1-4.29a30.54,30.54,0,0,0-1-3.91,12.43,12.43,0,0,0-1.69-3.33l2.7-.15a12.8,12.8,0,0,0-1.58,3.31,29.77,29.77,0,0,0-.85,3.9,38.12,38.12,0,0,1-.85,4.2,6.58,6.58,0,0,1-.91,2.07,3.9,3.9,0,0,1-1.69,1.39,4.24,4.24,0,0,0,1-1.72,7.32,7.32,0,0,0,.25-1.94c0-1.37,0-2.75-.08-4.16a23.69,23.69,0,0,1,.27-4.4,13.29,13.29,0,0,1,1.59-4.41,1.62,1.62,0,0,1,2.21-.59,1.52,1.52,0,0,1,.41.34l.08.09a14.17,14.17,0,0,1,2.42,4.2,26.17,26.17,0,0,1,1.14,4.42c.53,2.88.87,5.54,2,7.77h-2.5a25.37,25.37,0,0,0,2.66-5.48,30.69,30.69,0,0,1,1.35-3A10.9,10.9,0,0,1,132.7,207.81Z"/><path d="M145.89,202.87a6,6,0,0,0-2-2.91,5.8,5.8,0,0,0-3.07-.65c-1.15,0-2.43.09-3.73.11s-2.58,0-3.86,0c-2.57-.08-5.11-.25-7.66-.48s-5.09-.52-7.72-1a30,30,0,0,1,7.69-1.8,54.94,54.94,0,0,1,7.79-.27c1.29,0,2.58.11,3.86.21.64.06,1.27.1,1.93.17s1.35.17,2,.31a9.71,9.71,0,0,1,2.11.71,5.19,5.19,0,0,1,1.85,1.48A5.25,5.25,0,0,1,145.89,202.87Z"/><path d="M94.75,216.89a14.44,14.44,0,0,1-1.4-3.19c-.34-1.12-.61-2.25-.86-3.37a25.21,25.21,0,0,0-2-6.27l1.83.3a16,16,0,0,0-2.82,6.24c-.32,1.18-.65,2.4-1.08,3.65A15.85,15.85,0,0,1,86.6,218a1.66,1.66,0,0,1-2.3.46,1.63,1.63,0,0,1-.55-.62l0-.09a15,15,0,0,1-1.25-4c-.25-1.31-.39-2.58-.56-3.78A16.23,16.23,0,0,0,80,203.58l2.88.06a20.07,20.07,0,0,0-2,3.88c-.58,1.4-1,2.9-1.55,4.43a36.83,36.83,0,0,1-1.77,4.65,16.65,16.65,0,0,1-2.83,4.31l-.09.1a1.09,1.09,0,0,1-1.53.05,1.39,1.39,0,0,1-.15-.19,11.62,11.62,0,0,1-1.56-3.45,18.81,18.81,0,0,1-.54-3.58c-.09-1.17-.1-2.33-.18-3.47A14.63,14.63,0,0,0,70,207a12.53,12.53,0,0,1,1.32,3.26c.31,1.13.54,2.28.79,3.4a13,13,0,0,0,2.57,5.86l-1.77,0A17,17,0,0,0,75,215.53c.52-1.42.9-2.92,1.32-4.46s.83-3.13,1.39-4.73a19.86,19.86,0,0,1,2.3-4.67,1.71,1.71,0,0,1,2.38-.47,1.64,1.64,0,0,1,.49.49l0,0a15,15,0,0,1,1.74,3.85,23.85,23.85,0,0,1,.76,3.93c.16,1.27.28,2.48.47,3.63a14.69,14.69,0,0,0,.89,3.18l-2.89-.26a13,13,0,0,0,1.57-2.91c.44-1.08.79-2.25,1.23-3.44a28,28,0,0,1,1.55-3.61,13.06,13.06,0,0,1,2.43-3.27l.09-.09a1.09,1.09,0,0,1,1.53,0,1,1,0,0,1,.22.35,22.39,22.39,0,0,1,1.33,7c.09,1.14.13,2.28.26,3.41A16.8,16.8,0,0,0,94.75,216.89Z"/><path d="M458.52,202a83.63,83.63,0,0,1,1.37,9.33,68.84,68.84,0,0,1,.23,9.43c-.15,3.23-.76,6.2-.69,9.06a17,17,0,0,0,.16,2.14l.09.65a4.46,4.46,0,0,1,0,.73,5.38,5.38,0,0,1-.22,1.37c-.55,1.7-1.5,2.82-1.79,4.41-.52-1.58.1-3.34.07-4.69a4.72,4.72,0,0,0-.09-.95,2.59,2.59,0,0,0-.14-.42l-.19-.48a13.16,13.16,0,0,1-.7-2.45c-.63-3.35-.21-6.59-.08-9.56s.29-6.12.53-9.23A54.81,54.81,0,0,1,458.52,202Z"/><path d="M531.11,199.57c-.53,2.58-1,5.14-1.24,7.72s-.57,5.17-.92,7.78-.87,5.25-1.35,7.79-1.08,5.11-1.65,7.66h0a1.77,1.77,0,0,1-3.24.51,12.65,12.65,0,0,1-1.6-4.15,29.29,29.29,0,0,1-.36-4,76.2,76.2,0,0,1,0-7.86c.11-2.59.31-5.14.41-7.7s.12-5.11,0-7.71a36.77,36.77,0,0,1,1.72,7.64c.32,2.59.49,5.19.62,7.76s.25,5.1.54,7.6a31.4,31.4,0,0,0,.44,3.63,9.78,9.78,0,0,0,1.2,3l-3.25.52c.59-2.55,1.19-5.09,1.84-7.63l1-3.77.92-3.76c.58-2.53,1.2-5.1,1.94-7.64A39.42,39.42,0,0,1,531.11,199.57Z"/><path d="M106.71,175.64a2.71,2.71,0,0,1,.47,1.38,2.32,2.32,0,0,1-.62,1.51c-.71.78-1.62,1.28-2,1.76l-.68,1c-.22.36-.48.71-.69,1.07a19,19,0,0,0-1.15,2.17,13.71,13.71,0,0,0-1.13,4.54,32.09,32.09,0,0,0,.09,5l-1.94-1.47a14.37,14.37,0,0,1,3.66.09,26.44,26.44,0,0,1,3.35.75l3.15.91a27.32,27.32,0,0,0,3.24.7,11.36,11.36,0,0,1-3.36.69,27.62,27.62,0,0,1-3.4,0,26.67,26.67,0,0,0-6.13.18,1.59,1.59,0,0,1-1.9-1.24v-.08l0-.14a22.24,22.24,0,0,1-.23-5.73,13.12,13.12,0,0,1,1.9-5.68,13.71,13.71,0,0,1,1.78-2.32c.32-.36.66-.68,1-1l.53-.47c.17-.15.32-.29.61-.51a20.22,20.22,0,0,1,2.54-1.12,1.54,1.54,0,0,0,.76-.73A2.85,2.85,0,0,0,106.71,175.64Z"/><path d="M205.7,143.47a90.38,90.38,0,0,1-10.65,3.64c-3.59,1-7.2,1.89-10.85,2.66s-7.31,1.4-11,1.89a90.92,90.92,0,0,1-11.22.89,90.26,90.26,0,0,1,10.65-3.62c3.59-1,7.21-1.89,10.85-2.64s7.31-1.4,11-1.9A94.48,94.48,0,0,1,205.7,143.47Z"/><path d="M562.87,204.52a32.54,32.54,0,0,1,1.78,7.71A63.81,63.81,0,0,1,565,220c0,2.59-.14,5.14-.34,7.72a17.7,17.7,0,0,1-2.25,7.71,67,67,0,0,0-.55-7.66,61.71,61.71,0,0,1-.41-7.79c0-2.58.16-5.15.37-7.72S562.36,207.16,562.87,204.52Z"/><path d="M146.31,203.69a32.55,32.55,0,0,1,1.51,6.39,54.26,54.26,0,0,1,.24,12.82c-.11,1.07-.28,2.14-.45,3.19a5.46,5.46,0,0,1-1.3,3.17,7.86,7.86,0,0,0-.44-3.1,31.3,31.3,0,0,1-.6-3.22,54.18,54.18,0,0,1-.24-12.81A31.93,31.93,0,0,1,146.31,203.69Z"/><path d="M69.18,207c.25,2.41.41,4.66.56,6.95a69.18,69.18,0,0,1,.11,6.92c-.15,2.38-.32,4.62-.67,6.92a37,37,0,0,1-1.65,6.84,36.91,36.91,0,0,1-1.14-7,51.9,51.9,0,0,1-.09-6.93,59,59,0,0,1,.66-6.92A21.07,21.07,0,0,1,69.18,207Z"/><path d="M175.18,233.39a34.21,34.21,0,0,1,6-1c2-.18,4-.25,5.93-.26s3.94.08,5.92.26a34.32,34.32,0,0,1,6,1,23.27,23.27,0,0,1-5.92,1.78,35.74,35.74,0,0,1-12.09,0A23.58,23.58,0,0,1,175.18,233.39Z"/><path d="M11,235.45c7.09-.7,14.18-1,21.26-1.28,3.54-.15,7.08-.16,10.63-.24l10.62-.05,10.62.14c3.54.12,7.08.17,10.62.35,7.08.3,14.16.72,21.24,1.49-7.09.71-14.18,1.06-21.26,1.28-3.54.15-7.09.17-10.63.25l-10.62,0-10.62-.15c-3.54-.11-7.09-.17-10.63-.35C25.15,236.64,18.08,236.22,11,235.45Z"/><path d="M562.45,233.39a7.24,7.24,0,0,1-2-2.34,18.07,18.07,0,0,1-1.18-2.89,24.85,24.85,0,0,0-1.07-2.79c-.46-.93-.89-1.87-1.31-2.8-.85-1.86-1.69-3.69-2.67-5.4a28.24,28.24,0,0,0-3.38-4.72h0l3.08-.48a44.59,44.59,0,0,0-3.18,11.39c-.63,4-.92,8.06-1.46,12.1,0-4.07-.36-8.12-.31-12.25a47.34,47.34,0,0,1,1.6-12.43,1.71,1.71,0,0,1,2.12-1.19,1.74,1.74,0,0,1,.92.64l0,.06h0a31.13,31.13,0,0,1,3,5.73c.78,2,1.37,4,1.93,5.93.29,1,.57,2,.88,2.92a25.92,25.92,0,0,1,.7,3.07C560.45,229.92,560.94,231.94,562.45,233.39Z"/><path d="M175.59,161.21a20.24,20.24,0,0,1,1.42,5.48,39,39,0,0,1,.31,5.48,51.32,51.32,0,0,1-.33,5.4,37.54,37.54,0,0,1-1,5.5,17.08,17.08,0,0,1-1.8-5.41,29.45,29.45,0,0,1-.43-5.53,38.44,38.44,0,0,1,.46-5.47A29.16,29.16,0,0,1,175.59,161.21Z"/><path d="M107.12,177.71c1.5,1.36,2.63,3.23,4.13,4a13.8,13.8,0,0,1,4.81,4.23,15.25,15.25,0,0,1,2.4,6.11,34,34,0,0,1,.4,6.23l0,3c0,1,0,2-.11,3-.11,2-.27,4-.48,6-.38,4-.78,7.87-1,11.92a43.68,43.68,0,0,1-1.78-12c-.1-2-.09-4-.12-6l0-3v-3c0-3.93,0-7.68-1.61-10.87a14.28,14.28,0,0,0-3.49-4.28,8.69,8.69,0,0,1-1.84-2.68C107.92,179.55,107.56,178.62,107.12,177.71Z"/><path d="M277.46,127c.74,1.65,1.39,3.28,2.09,4.89s1.38,3.2,2.08,4.78c1.38,3.18,2.82,6.33,4.19,9.55l-3.26.19a45.29,45.29,0,0,0,1.78-7.39c.22-1.28.39-2.59.6-3.91a37.89,37.89,0,0,1,.77-4c.31,1.34.57,2.65.77,4a36.47,36.47,0,0,1,.4,4.06,25.53,25.53,0,0,1-1,8.3,1.73,1.73,0,0,1-2.16,1.16,1.71,1.71,0,0,1-1.06-.9l0-.07a62,62,0,0,1-3.82-10,40.54,40.54,0,0,1-1.1-5.28A27,27,0,0,1,277.46,127Z"/><path d="M306.74,115.84l-7.8.56a75.86,75.86,0,0,1-7.85.14c-1.33-.07-2.66-.17-4-.36s-2.65-.46-3.87-.7a16.84,16.84,0,0,0-7-.22l.89-1.23c-.06.74-.15,1.47-.24,2.21s-.15,1.47-.27,2.2c-.21,1.47-.45,2.94-.79,4.41-.34-1.47-.57-2.94-.78-4.41-.12-.73-.19-1.47-.28-2.2s-.17-1.47-.24-2.21a1.16,1.16,0,0,1,.7-1.15l.2-.08a13,13,0,0,1,4.21-1,20.41,20.41,0,0,1,4.17.22c1.34.19,2.59.45,3.81.61s2.48.34,3.74.47c2.53.28,5.1.5,7.7.88A37.48,37.48,0,0,1,306.74,115.84Z"/><path d="M176,184.31a14.82,14.82,0,0,1,1.39,4.22,23.43,23.43,0,0,1,0,8.46,15.23,15.23,0,0,1-1.4,4.23,14.87,14.87,0,0,1-1.39-4.23,21.61,21.61,0,0,1-.38-4.23,23.27,23.27,0,0,1,.38-4.23A15.47,15.47,0,0,1,176,184.31Z"/><path d="M171.05,233.39a52.78,52.78,0,0,1-8.26,1.39c-2.76.26-5.51.38-8.27.39s-5.51-.12-8.27-.38c-1.39-.15-2.71-.27-4.17-.55a9.84,9.84,0,0,0-4-.44c1.09-1,2.78-1.14,4.1-1.3s2.73-.38,4.09-.5q4.13-.39,8.27-.38c2.75,0,5.51.12,8.26.38A50.48,50.48,0,0,1,171.05,233.39Z"/><path d="M458.11,177.71a12.91,12.91,0,0,1,1.8,3.65,15.8,15.8,0,0,1,.75,3.86,13.25,13.25,0,0,1-.31,4,8.6,8.6,0,0,1-1.83,3.75,26.15,26.15,0,0,1-1-3.86,32.61,32.61,0,0,1-.44-3.66,23.91,23.91,0,0,1,0-3.78A12.25,12.25,0,0,1,458.11,177.71Z"/><path d="M394.59,233.8A71.28,71.28,0,0,1,378,234.91c-2.76,0-5.51-.15-8.26-.22s-5.48-.23-8.19-.21-5.4,0-8.07.24c-1.35.08-2.65.23-4,.42s-2.77.34-4.17.45a52.17,52.17,0,0,1-16.68-1,108.79,108.79,0,0,0,16.32-1.78l4-.77c1.35-.27,2.78-.53,4.18-.7a63,63,0,0,1,8.44-.44c5.63.1,11.1.6,16.6,1.23S389,233.52,394.59,233.8Z"/><path d="M175.59,149.66a6.39,6.39,0,0,1-1.09-2.2,13.54,13.54,0,0,1-.5-2.37,41.23,41.23,0,0,0-.66-4.26l1.79,1.39a32.35,32.35,0,0,0-6.8,2.31,25.38,25.38,0,0,1-3.84,1.25,10.25,10.25,0,0,1-4.16.17c1.22-.68,2.29-1.35,3.35-2.08s2.11-1.45,3.23-2.15a21.9,21.9,0,0,1,3.64-1.89,12.76,12.76,0,0,1,4.29-.94H175a1.59,1.59,0,0,1,1.61,1.39,15.84,15.84,0,0,1-.34,4.88A25.41,25.41,0,0,0,175.59,149.66Z"/><path d="M343,51.09a27.9,27.9,0,0,1,.59,3.68,25.2,25.2,0,0,1,.09,3.48c0,.59-.09,1.18-.18,1.79-.05.29-.09.6-.17.9s-.12.46-.18.77a8.19,8.19,0,0,1-.57,2A2.48,2.48,0,0,1,341,65.11a3,3,0,0,0-.08-1.71c-.15-.48-.35-1-.5-1.62a5.84,5.84,0,0,1-.15-1c0-.3-.05-.59-.08-.89q0-.9,0-1.8a13.22,13.22,0,0,1,.7-3.67A7.59,7.59,0,0,1,343,51.09Z"/><path d="M176,202.45a20.78,20.78,0,0,1,1.5,5,34.19,34.19,0,0,1,.21,10.1,20.32,20.32,0,0,1-1.3,5.08,20.7,20.7,0,0,1-1.5-5,33.07,33.07,0,0,1-.48-5,34.42,34.42,0,0,1,.28-5.06A20.73,20.73,0,0,1,176,202.45Z"/><path d="M542.25,236.27c2.4,0,4.11-.91,6.39-1.56a10.79,10.79,0,0,1,1.8-.4c.3-.05.66-.07,1-.09h.85l3.36,0q6.75,0,13.48.17c4.49.11,9,.36,13.47.63s9,.69,13.44,1.29c-4.5.53-9,.83-13.49,1.06s-9,.37-13.46.41-9,0-13.46-.07l-3.36-.08-1.56-.05c-.48,0-1,0-1.54,0l-1.69.08c-.58,0-1.2,0-1.8-.07A6.09,6.09,0,0,1,542.25,236.27Z"/><path d="M304.68,166.16a4.39,4.39,0,0,1,.84,2.53,4.69,4.69,0,0,1-.89,2.78,1.32,1.32,0,0,1-1.27.54L303,172a14.72,14.72,0,0,1-4.24-1.24,9.84,9.84,0,0,1-2-1.31,5.82,5.82,0,0,1-1.51-2c.88,0,1.63,0,2.36,0s1.43.11,2.13.22a15.93,15.93,0,0,1,4.19,1.19l-1.68.48a6.1,6.1,0,0,0,1.22-1.18,10.8,10.8,0,0,0,.6-.9C304.22,166.91,304.43,166.54,304.68,166.16Z"/><path d="M261.79,232.15a15.28,15.28,0,0,1-4.75,2.16,23.28,23.28,0,0,1-5,.77,25.74,25.74,0,0,1-5-.26,18.76,18.76,0,0,1-5-1.43,21.19,21.19,0,0,1,5-1.36,40.7,40.7,0,0,1,4.89-.49c1.62-.08,3.24-.07,4.87,0A30.7,30.7,0,0,1,261.79,232.15Z"/><path d="M150.43,237.51a11.21,11.21,0,0,1-3.25,1.06,11.89,11.89,0,0,1-3.21.09,9.89,9.89,0,0,1-3.22-.9,6.4,6.4,0,0,1-2.69-2.31,19.47,19.47,0,0,1,3.3-.42,18.77,18.77,0,0,1,3,.1,15,15,0,0,1,3.06.66A8.53,8.53,0,0,1,150.43,237.51Z"/><path d="M139.29,206.17a7.45,7.45,0,0,1,.92,3,9.31,9.31,0,0,1-.15,2.84,9,9,0,0,1-1,2.68,6.29,6.29,0,0,1-2.2,2.25,9.81,9.81,0,0,1-.49-3,11.8,11.8,0,0,1,.25-2.67,11.13,11.13,0,0,1,.89-2.58A7.94,7.94,0,0,1,139.29,206.17Z"/><path d="M315.41,165.33a13.14,13.14,0,0,1-4.92,1.83,26.28,26.28,0,0,1-5.05.35c-1.65,0-3.27-.17-4.88-.36a10.59,10.59,0,0,1-1.37-.23c-.43-.11-.83-.24-1.21-.37a5.5,5.5,0,0,0-2.37-.39,3.81,3.81,0,0,1,2.44-1.35c.45-.09.88-.16,1.27-.22l.55-.11a4.64,4.64,0,0,1,.57-.12,24.3,24.3,0,0,1,5.07-.4,44.32,44.32,0,0,1,4.91.41A45.4,45.4,0,0,1,315.41,165.33Z"/><path d="M282,15.62a14,14,0,0,1,1,2.55,10.33,10.33,0,0,1,.34,2.34A8.4,8.4,0,0,1,283,23a5.73,5.73,0,0,1-1.43,2.52,8.73,8.73,0,0,1-1.37-2.45,7.71,7.71,0,0,1-.45-2.48A7,7,0,0,1,280.2,18,4.75,4.75,0,0,1,282,15.62Z"/><path d="M175.18,150.9a6.4,6.4,0,0,1,1.59,2.25,7.62,7.62,0,0,1,.42,4.74,6.37,6.37,0,0,1-1.19,2.49,6.47,6.47,0,0,1-1.6-2.25,7.74,7.74,0,0,1-.58-2.33,7.58,7.58,0,0,1,.18-2.41A6.26,6.26,0,0,1,175.18,150.9Z"/><path d="M133.52,207.81a3.87,3.87,0,0,1,2.15,2,7,7,0,0,1,.7,2.43,9.22,9.22,0,0,1,0,2.17l-.35,2.51a3.59,3.59,0,0,1-2.35-1.78,6.3,6.3,0,0,1-.81-2.51,8.16,8.16,0,0,1,.1-2.28C133.07,209.57,133.26,208.86,133.52,207.81Z"/><path d="M98.05,210.29a5.93,5.93,0,0,1,.67,2.88,8.73,8.73,0,0,1-.41,2.55,9.61,9.61,0,0,1-1,2.24,12.31,12.31,0,0,1-1.72,2.23,5,5,0,0,1-1-2.83,7.43,7.43,0,0,1,.34-2.69,8.49,8.49,0,0,1,1.14-2.32A8.89,8.89,0,0,1,98.05,210.29Z"/><path d="M286.12,109.66a1.62,1.62,0,0,1-.73-1.51,1.67,1.67,0,0,1,.58-1.08,2.57,2.57,0,0,1,1-.55,3,3,0,0,1,1-.11,2.12,2.12,0,0,1,.44,0,2.26,2.26,0,0,0,.35,0l.87.08a8.62,8.62,0,0,1,2.29.58,3.35,3.35,0,0,1,2,2.1c-1.06.22-1.67.49-2.38.67a6.3,6.3,0,0,1-2.39.18,4.91,4.91,0,0,1-1.42-.4.85.85,0,0,1-.21-.11l-.13-.1a1,1,0,0,1-.21-.19.44.44,0,0,1-.07-.22c0-.09-.06-.22-.18-.22C286.69,108.83,286.43,109.21,286.12,109.66Z"/><path d="M197.86,98.52a11.84,11.84,0,0,1,2.46.08,6.63,6.63,0,0,1,2,.69,5.52,5.52,0,0,1,1.8,1.57,3.54,3.54,0,0,1,.73,2.61,20.8,20.8,0,0,1-2.38-.36,7,7,0,0,1-1.87-.71,6.25,6.25,0,0,1-1.74-1.41A4,4,0,0,1,197.86,98.52Z"/><path d="M286.12,115a6,6,0,0,1,1.37,1.72,4.1,4.1,0,0,1,0,3.72,3.23,3.23,0,0,1-1.77,1.57,10.93,10.93,0,0,1-1-1.87,4.45,4.45,0,0,1,0-3.34A3.92,3.92,0,0,1,286.12,115Z"/><path d="M291.48,101.41a4.36,4.36,0,0,1-1.82,1.17,4,4,0,0,1-1.7.18,3.86,3.86,0,0,1-1.6-.59,4.41,4.41,0,0,1-1.47-1.59,4.5,4.5,0,0,1,1.82-1.18,3.82,3.82,0,0,1,1.69-.17,3.9,3.9,0,0,1,1.61.59A4.41,4.41,0,0,1,291.48,101.41Z"/><path d="M116.2,223.49a9.3,9.3,0,0,1,1,1.49,2.33,2.33,0,0,1,.29,1,2.17,2.17,0,0,1-.28,1,8.84,8.84,0,0,1-1,1.5,2.59,2.59,0,0,1-1.74-.94,2.45,2.45,0,0,1-.54-1.54,2.54,2.54,0,0,1,.55-1.54A2.62,2.62,0,0,1,116.2,223.49Z"/><path d="M310.46,232.15a3.84,3.84,0,0,1-1.13,1.49,2.23,2.23,0,0,1-2.47.21,3.72,3.72,0,0,1-1.35-1.29,3.67,3.67,0,0,1,1.12-1.49,2.2,2.2,0,0,1,1.2-.48,2.27,2.27,0,0,1,1.27.27A3.81,3.81,0,0,1,310.46,232.15Z"/><path d="M190.44,91.51a3.56,3.56,0,0,1-.63,1.56,1.44,1.44,0,0,1-.84.58,1.39,1.39,0,0,1-1-.16,3.45,3.45,0,0,1-1.23-1.16,3.5,3.5,0,0,1,.62-1.57,1.44,1.44,0,0,1,.85-.57,1.46,1.46,0,0,1,1,.17A3.58,3.58,0,0,1,190.44,91.51Z"/></svg>