<svg id="Layer_1" data-name="Layer 1" xmlns="http://www.w3.org/2000/svg" viewBox="0 0 600 665.65"><defs><style>.cls-1{fill:#d3fffd;}.cls-2{fill:none;stroke:#13b8b2;stroke-miterlimit:10;stroke-width:8.03px;}</style></defs><title>mapOmLab</title><path class="cls-1" d="M64.69,232.11C70,221,74.18,209.36,80.78,199.06c9.54-14.88,10.43-28.92,1.2-44-2.93-4.78-3.71-10.73-6.58-15.56-6.22-10.5-5.65-20.43-.44-31.21,4.9-10.16,8.39-20.94,12.23-31.54,1.53-4.22,3.28-5.44,8.06-3.45,23.26,9.69,46.73,18.91,70,28.61a22,22,0,0,0,13.94,1c12.37-2.67,24.82-5,37.17-7.8a9,9,0,0,1,7.92,1.47c2.63,1.87,5.68,3.24,8.13,5.28,8.93,7.47,19.15,9.57,30.91,8.74,14.18-1,28.46-.91,42.7-.9,4.53,0,7.08-1.32,9.16-5.2C320.8,94,326.9,83.67,333.67,71.79c4,7.57,7.34,14,10.75,20.3,2.78,5.17,4.62,13.33,8.79,14.61,4.62,1.42,9.42-6,14.22-9.44,3.2-2.3,4.72-2.54,6.65,1.5,3.62,7.6,4.3,13.59-2.76,20.52-11.69,11.48-21.83,24.36-32.9,36.42-3.28,3.57-4.83,7.13-4.26,11.83.75,6.18,1.22,12.41,1.51,18.62.23,4.7,2.16,7.63,7.16,9,5.45,1.5,10.64,3.85,16.07,5.45a10,10,0,0,1,7.51,7.69c2.25,8.13,5,16.14,8,25.72,6.7-10.45,13.53-19.18,18.07-28.88,2.84-6.1-.58-13.47-1.08-20.28-.73-9.93-2-19.83-3.14-29.73-.55-4.65.8-5.61,5.31-3.36,13.59,6.74,27.29,13.27,41,19.81,3.26,1.56,5.35,4.26,7.73,6.66C457.89,194,473.34,209.86,489,225.51c3,3,3.69,5,.09,8-6.56,5.5-12.74,11.4-19.14,17.09-.91.8-2.22,2-3.15,1.84-2-.32-1.32-2.32-1.42-3.64-.44-5.79-1-11.6-1-17.4,0-3.7-1.39-5.22-5.3-5.29-5.91-.1-11.82-.43-17.71-.91-3.57-.29-5.13,1.19-5.94,4.3-1.11,4.23-2.95,8.3-3.81,12.56-2.94,14.66-10.05,27.09-20.47,38.25-8.7,9.31-16.23,19.6-24.62,29.18-2.81,3.22-2.35,6.46-2.06,10,.56,7,1.13,14,1.79,22.21-9.92-5.93-19.19-10.95-27.82-16.81-4.93-3.35-8.57-3.38-13.33,0a190.89,190.89,0,0,1-17.75,10.67c-3.36,1.85-4.69,3.71-3.16,7.49A150.8,150.8,0,0,1,329,357.9c.84,3,2.54,4,5.74,3.52,6.48-1,13-1.66,19.49-2.67,3.5-.55,5.14.71,6.18,3.84,2.64,7.92,5.76,15.69,8.3,23.64,1.11,3.45,3,5.35,6.71,5.77a9.48,9.48,0,0,1,2.55.59,32.21,32.21,0,0,0,29.38-1.92c4.41-2.51,8.33-2,12.88.32,40.09,20.52,80.85,39.88,119.88,62.27,5.38,3.09,6.55,6.06,5.11,11.48-2.46,9.25-4.33,18.65-6.3,28-.69,3.26-2,5.87-5.43,7.22-.2.08-.35.26-.55.34-16.8,6.81-27.27,19.46-35.28,34.38-3.71,6.92-10.4,11.15-16.3,16-12.87,10.66-25.92,21.12-38.93,31.61a12.5,12.5,0,0,0-4.6,7.28c-3.28,14.18-7.17,28.25-10,42.51-1.5,7.4-7,11.79-11.54,17-2.82,3.24-3.32-.39-4.1-2-7.87-15.64-9.25-31.52-5.63-48.79,6.1-29.08,10.15-58.55,15.21-87.83.56-3.25-.63-5.55-2.46-8C408.55,488,398.06,473.44,387.31,459a10,10,0,0,1-2-9.21c2.71-11.33,4.83-22.79,7.57-34.11,1.05-4.33-.08-6.24-4.54-7.78-23.24-8.08-46.3-16.61-69.53-24.69a24,24,0,0,1-12.49-9.3c-10.44-14.86-21.3-29.46-32.05-44.13-.67-.92-.9-2.45-3.13-2.31-.95,11.32,0,22.81-2.94,34.4q-8.35-17.75-16.72-35.49c-10.08-21.43-19.9-43-30.37-64.24-2.8-5.68-2.46-9.53,1.56-14.53,8.38-10.45,8.3-6.81-.27-17.36-10.29-12.68-21-25-31.5-37.55a16.5,16.5,0,0,0-9.62-5.94c-8.75-1.91-17.5-3.9-26.09-6.34-4.27-1.22-7.32-.34-10.86,2C119.25,198.82,94,215,68.85,231.23,67.85,231.88,66.86,232.94,64.69,232.11Z"/><path class="cls-1" d="M360.2,44.69c.66,8.13,1.15,14.26,1.71,21.34,4.13-2.88,5.26-6.84,7.6-9.86s4.47-6.49,7.42-10.84c2.05,7,3.94,12.64,5.31,18.42.87,3.69,2.69,4.2,5.14,1.75,6.17-6.14,11.33-4.49,17,.81a141.29,141.29,0,0,0,15.26,11.81c3.35,2.35,4.61,5.67,5,9.1,1.62,13.47,10.19,22.31,21,29.93,5.88,4.13,5.94,7.24,1.54,12.91-1.61,2.08-3.22,1.51-5.15,1-3.75-1-7.53-1.9-12.2-3.08,2.74,7.35,8.81,11.88,11.56,18.31-4.31,1.44-7.94-1.89-12.23-.57.42,4,5.07,5.28,7.05,9.43-7.07-1.83-13.47-3-19.47-5.21-4-1.46-4.16-6.14-5.58-9.48-2-4.63-4.12-6.51-8.94-3-5.87,4.33-8.73-1.33-13.08-3,1.88-2.79,4.3-3.62,6.45-4.34,8.15-2.75,12.21-9,15.83-15.76.69-1.29,1.8-2.47.4-3.93l-25-26.08c-.74.84-1.2,1.12-1.22,1.42-.44,8.76.46,7.64-8.49,5.51-2.34-.56-4.64-1.26-6.91-2-6.15-2-15.12-1.47-18-6.2-4.05-6.69-4.23-15.48-6.05-23.37a3.33,3.33,0,0,1,1-3.42Z"/><path class="cls-1" d="M245.46,63.32c3.21-2.53,6.44-5,9.62-7.58,2.79-2.25,4.91-3.52,6,1.5.76,3.55,14.16,7.71,17.39,5.68,2.21-1.38,1.61-3.75,1.62-5.71,0-4.29,1.7-4.32,5.15-2.5,4.43,2.35,7.81,5.08,8.31,10.28,1,10,6.24,17.91,13.76,24.63,3.21,2.86,3.92,4.86-.79,7.37s-8.57,4.94-13,0c-1.18-1.32-3.06-1.47-4.86-.64a13,13,0,0,1-1.86.58c-21.38,6.42-21.38,6.42-39.37-7.67,5.68-3.22,12.31-1.94,18.83-4.46a75.37,75.37,0,0,0-17.28-6.58c-4.55-1.26-6.31-3.25-5-7.69.54-1.9,1.13-4-.1-6-2.72,0-3.48,2.26-4.74,3.81-4.76,5.82-7.54,6.57-14.48,3.53-2.18-1-4.19-2.28-6.39-3.19-3.35-1.38-3.76-3.31-2.39-6.44q4.66-10.64,8.65-21.52c1.07-2.92,2.57-4,5.77-3.33,8.1,1.76,16.21,3.5,24.36,5,4.15.78,3,2.47,1.33,4.63-4,5-7.87,10.1-11.79,15.15Z"/><path class="cls-1" d="M262,27.15c-2.76,1-5.88,1.9-8.89,3.11-2.45,1-4.11.45-5.59-1.59-1.86-2.57,1-2.77,1.84-4.13,1.8-3.07,7.83-4.51,4.2-10.17-.82-1.27,1.53-6.16,6.43-3.4,4.28,2.41,7.74,5.32,9.75,9.67,1.29,2.82,3.51,3.67,6.35,2.34s1.25-3.49.54-5.34A23.94,23.94,0,0,0,275,14.23c-1.46-2.54-1.59-5.18,1.4-6.32,3.2-1.23,2.82,2.25,3.83,3.73,1.91,2.8,2,7.7,8.07,4.64,2-1,3.92,1.52,4.68,3.45,1.27,3.25-4.3,13.32-7.85,14.41-5.82,1.77-11.78,3.18-17.48,5.23-4.12,1.49-6.48-.15-7.87-3.23-1.6-3.55,2.5-2.87,4.06-4.09,1-.8,3.37-.74,2.13-2.94A3.51,3.51,0,0,0,262,27.15Z"/><path class="cls-1" d="M367.72,37c-5.55-.39-12.3.33-19,1.21-3.79.5-5.71-.73-6.33-4.36-1.12-6.54-2.62-13-3.63-19.57-.25-1.63-2.1-4.74,1.43-4.94,2.87-.17,5.77,1.48,5.16,5C344.2,21,348.91,22.79,354,24.67c3.38,1.24,6-.38,8.71-1.48,5-2,9.78-4.2,15.68-2.18,6.13,2.1,9.61,8.64,6.88,14.31-1,2.09-2.85,1.59-4.48,1.62C376.87,37,372.93,37,367.72,37Z"/><path class="cls-1" d="M323,66c.09,2.46-8.06,7-10.65,5.45-3.18-1.94-7-4.73-6.65-8.48.47-5,2.37-10,4.19-14.85.94-2.51,7.61-1,8.8,2.37C320.51,55.57,321.62,60.85,323,66Z"/><path class="cls-1" d="M300.75,24.64c2.93-4,1.74-8.37,6.74-8.68,1.13-.08,1.69-.84,1.43-1.62-2.21-6.6,3.14-5.32,6.63-5.6,5.31-.42,4.07,4.09,4.69,6.6,1.26,5.19-2.76,9.8-2.62,15.05,0,1.55-2.33,1.57-3.83,1.4-2.66-.3-5.32-2.42-5.13-4.11C309.33,22,305.92,23.2,300.75,24.64Z"/><path class="cls-1" d="M369.23,354.35c8.66-7.28,16.2-6,35.88,5.26-4,3.44-7.71,4.75-12.69,1.48C385.61,356.63,378.61,352.16,369.23,354.35Z"/><path class="cls-1" d="M433.53,368.5A190.56,190.56,0,0,1,409,369.91C413.81,360,419.11,359.58,433.53,368.5Z"/><path class="cls-1" d="M436.07,656.82c-3.4,1.58-7,.7-10.35,1.47-4.78,1.12-5.71-.37-4.6-4.75,2.13-8.4,2-8.53,8.71-2.95C432,652.41,434.87,653.79,436.07,656.82Z"/><path class="cls-1" d="M327.74,19.51c2.2,3.32,4.17,6,5.82,8.89s-1.11,4.58-2.16,6.72c-.56,1.13-1.84,1.53-2.57.43-1.7-2.53-5.36-4.24-4.71-7.78A15.53,15.53,0,0,1,327.74,19.51Z"/><path class="cls-1" d="M398.17,104c2.33,2.06,3.07,4.89,3.85,7.47.73,2.41-1.11,5.54-2.95,5.51-3.8-.07-4.55-4.08-5.24-6.79C393.22,107.76,395.72,105.85,398.17,104Z"/><path class="cls-1" d="M64.32,161.73c1.7,3.18,3,5.49,4.18,7.85.61,1.24,1.86,2.89,0,3.8a9.46,9.46,0,0,1-5.55,1c-1.88-.38-.91-2.48-.78-3.77C62.44,168,61.85,165.24,64.32,161.73Z"/><path class="cls-1" d="M456.67,641.64c-1.43-.26-3.86.87-3.53-1.38.38-2.53,2.14-5.59,4.74-5.72,2.07-.11,5.15,2.78,5,4.75C462.59,642.54,458.71,640.78,456.67,641.64Z"/><path class="cls-1" d="M536.93,653.23c5.86-2.61,7.86-.79,8,4.45C541.53,657.25,539.6,655.44,536.93,653.23Z"/><circle class="cls-2" cx="472.85" cy="546.6" r="10.35"/><circle class="cls-2" cx="364.41" cy="223.28" r="10.35"/></svg>