<svg id="Layer_1" data-name="Layer 1" xmlns="http://www.w3.org/2000/svg" viewBox="0 0 600 255.01"><title>mapOmLab</title><path d="M480.43,60.38a13.44,13.44,0,0,0-.51,2.72,18.17,18.17,0,0,0,.05,2.76c.17,1.83.54,3.63.84,5.49.15.93.27,1.87.33,2.83s0,1.88.07,2.82l.12,5.58c.12,7.44.21,14.89.22,22.33s0,14.88,0,22.33l-.28,22.32c-.39,14.86-.74,29.7-1.49,44.61-.21,3.72-.42,7.44-.72,11.16-.15,1.88-.33,3.7-.39,5.52s-.09,3.67-.06,5.51c.07,7.38.88,14.85.54,22.31-.6-7.43-1.95-14.72-2.62-22.21-.16-1.87-.26-3.75-.29-5.64s0-3.79.05-5.63l.18-11.13.18-22.3c.06-7.43.33-14.9.39-22.33l.51-22.3c.24-7.43.42-14.86.74-22.29s.63-14.86,1-22.3l.32-5.57c.05-.92.12-1.88.14-2.76s0-1.81-.07-2.73c-.12-1.84-.33-3.71-.31-5.6a17.72,17.72,0,0,1,.27-2.82A13.84,13.84,0,0,1,480.43,60.38Z"/><path d="M143.89,165.64a2.67,2.67,0,0,1,1.36,1.33,4.78,4.78,0,0,1,.29,1.93c0,1.26.07,2.49.11,3.76.12,2.52.2,5,.29,7.55.18,5,.27,10.06.37,15.1s.17,10.06.15,15.09V218a59.46,59.46,0,0,1-1.2,7.7,2,2,0,0,1-1.92,1.71h0c-7,.24-13.93.46-20.91.56s-14,.09-20.92,0-14-.32-20.93-.72-13.93-.92-20.87-1.76l41.77-1.13,20.86-.59,20.88-.5-2,1.71c.45-2.59,1.15-5,1.29-7.17l.24-7.5c.13-5,.39-10.05.59-15.07s.48-10,.81-15.07c.16-2.52.31-5,.5-7.54.12-1.24.14-2.54.36-3.78a4.54,4.54,0,0,0,0-1.8A2.62,2.62,0,0,0,143.89,165.64Z"/><path d="M487.67,90.64c.24,11.46.06,22.88-.26,34.3-.12,5.71-.39,11.41-.59,17.12L486,159.17c-.61,11.36-1,22.76-1.67,34.19-.2,2.85-.37,5.71-.63,8.57s-.56,5.71-.89,8.55c-.7,5.68-1.47,11.34-2.36,17-.05-5.73.17-11.44.29-17.15s.23-11.39.28-17.09c.11-11.4.11-22.84.76-34.29l1.06-17.1c.43-5.69.79-11.39,1.31-17.09C485.07,113.38,486.16,102,487.67,90.64Z"/><path d="M495.56,138.67c1.95.75,4,.55,6.09.64a13.73,13.73,0,0,1,3.19.46,8.84,8.84,0,0,1,3,1.58.84.84,0,0,1-.08,1.32l-.08.05a15.67,15.67,0,0,1-3.39,1.65,11,11,0,0,1-3.87.51,18.8,18.8,0,0,1-1.9-.19,15.65,15.65,0,0,0-1.65-.17,9.45,9.45,0,0,0-3.05.23,4.42,4.42,0,0,0-3.33,3.76,28,28,0,0,0-.23,6.58c.15,4.71.28,9.43.34,14.14s.17,9.44.18,14.15,0,9.44,0,14.16l-.06,7.07-.15,7.08c0,2.36-.11,4.73-.19,7.08s0,4.68,0,7c0,4.7.14,9.44,0,14.17-.7-4.68-1.38-9.35-1.91-14.06s-.8-9.48-1-14.18l-.3-7.08-.21-7.07q-.22-7.08-.33-14.16c-.08-4.71-.11-9.43-.12-14.15s0-9.44,0-14.16v-2.66l0-1a15.35,15.35,0,0,1,.61-3.89,9,9,0,0,1,2.09-3.76,7.38,7.38,0,0,1,3.9-2,11.57,11.57,0,0,1,4,0c.64.07,1.24.24,1.86.36a15.47,15.47,0,0,0,1.6.3,10.67,10.67,0,0,0,6.24-1.24l-.16,1.36a7,7,0,0,0-2.29-1.55,11.84,11.84,0,0,0-2.83-.8c-1-.18-2-.29-3.06-.51A9.13,9.13,0,0,1,495.56,138.67Z"/><path d="M477.14,55.12A6.15,6.15,0,0,1,479,57.58a3.52,3.52,0,0,0,2.1,1.88c1,.33,2,.64,2.95,1s1.94.77,2.86,1.27a34.31,34.31,0,0,1,10,7.6,52.41,52.41,0,0,1,7.17,10.35,108.89,108.89,0,0,1,5.21,11.38,128.82,128.82,0,0,1,6.78,24,191.56,191.56,0,0,1,2.7,24.78q.5,12.39.52,24.75c0,8.25-.09,16.48-.33,24.71L518.24,214c-.08,2.05-.12,4.11-.24,6.19s-.3,4.13-.54,6.18c-.43,4.11-1,8.18-1.5,12.27,0-4.12.22-8.24.33-12.35,0-2,.09-4.1.06-6.14s-.12-4.09-.19-6.15q-.37-12.36-.52-24.69c-.15-8.23-.17-16.45-.36-24.66s-.35-16.41-.75-24.6a196.87,196.87,0,0,0-2.41-24.28,137.51,137.51,0,0,0-5.93-23.58c-2.77-7.63-5.82-15.27-10.86-21.53a33.68,33.68,0,0,0-9-7.93c-.85-.56-1.78-1-2.66-1.46s-1.86-.82-2.81-1.24a4.11,4.11,0,0,1-2.17-2.34A5.94,5.94,0,0,0,477.14,55.12Z"/><path d="M399.51,160.38c-4.38.47-8.8.73-13.15,1.05-2.08.15-4.3.6-4.72,1.84a5.88,5.88,0,0,0-.37,2.53c0,1,.15,2,.24,3.16.45,4.39.66,8.8.88,13.21s.24,8.81.29,13.21c0,8.81-.23,17.59-.57,26.36l-.27,6.58-.16,3.29a20.22,20.22,0,0,1-.38,3.46,7.9,7.9,0,0,1-.61,1.79,4.6,4.6,0,0,1-1.32,1.57,4.87,4.87,0,0,1-3.71.62,12.65,12.65,0,0,1-1.66-.45c-.3-.09-.49-.16-.73-.21a4.77,4.77,0,0,0-.76,0c-1.05,0-2.16.29-3.26.33,1.07-.28,2.06-.74,3.19-1a5.26,5.26,0,0,1,.89-.08,7.55,7.55,0,0,1,.89.1,10.45,10.45,0,0,0,1.56.16,3.68,3.68,0,0,0,2.57-.73,3.84,3.84,0,0,0,.91-2.43,21.42,21.42,0,0,0,0-3.1l-.19-3.29c-.11-2.2-.17-4.4-.25-6.6-.28-8.79-.34-17.57-.36-26.34,0-4.38,0-8.75-.05-13.13s-.12-8.74-.18-13.11c0-1.08-.07-2.21,0-3.43a8,8,0,0,1,1-3.83,4.62,4.62,0,0,1,1.62-1.58,6,6,0,0,1,1.91-.71,14.89,14.89,0,0,1,3.54-.24C390.75,159.62,395.11,159.92,399.51,160.38Z"/><path d="M404.77,80.77a13.81,13.81,0,0,0,3.29,1,7.08,7.08,0,0,1,3.31,1.55,5,5,0,0,1,1.14,1.6,7.62,7.62,0,0,1,.33.91l.12.46.06.23.05.13a.65.65,0,0,0,.6.5,4.65,4.65,0,0,0,1.38,0l1.68-.25a12.08,12.08,0,0,1,1.86-.12,16.94,16.94,0,0,1,1.86,0,5.22,5.22,0,0,1,2.19.65,3.88,3.88,0,0,1,1.67,2,6.81,6.81,0,0,1,.44,2.15l.12,3.51c.18,4.6.23,9.2.35,13.8l.14,13.82c0,9.21-.19,18.44-.66,27.66l-.05.86-.08.94c-.06.62-.15,1.22-.25,1.81l-.63,3.38a11.91,11.91,0,0,0,.23,6.23l.28.84a5.12,5.12,0,0,1,.25.93,10.75,10.75,0,0,1,.23,1.85,25.71,25.71,0,0,1-.13,3.54c-.19,2.28-.34,4.57.62,6.71a8.8,8.8,0,0,1-1.37-3.22,24.61,24.61,0,0,1-.42-3.49c-.09-1.16-.14-2.29-.33-3.36a8.27,8.27,0,0,0-.39-1.54,5.56,5.56,0,0,0-.29-.71l-.37-.76a14.11,14.11,0,0,1-1.07-7.35c.09-1.2.25-2.35.36-3.46,0-.55.09-1.09.11-1.62v-.79l0-.86c-.13-9.19-.27-18.39-.26-27.59l.09-13.81c.11-4.61.15-9.21.36-13.82l.12-3.4a3.84,3.84,0,0,0-.13-1.24,1.19,1.19,0,0,0-.41-.67,5.52,5.52,0,0,0-2.65-.6,10.69,10.69,0,0,0-1.58-.06c-.55,0-1.13.07-1.76.08a6.5,6.5,0,0,1-2.05-.27,2.63,2.63,0,0,1-1.09-.71,2.18,2.18,0,0,1-.36-.57,1.89,1.89,0,0,1-.19-.6l-.05-.29,0-.19,0-.38a6.27,6.27,0,0,0-.17-.75,4,4,0,0,0-.67-1.31C409.28,82.5,406.58,82.24,404.77,80.77Z"/><path d="M387,102.49a23.5,23.5,0,0,1,.72-5.16,8.92,8.92,0,0,1,1.08-2.54,6.35,6.35,0,0,1,2.14-2,11.56,11.56,0,0,1,5.46-1.28,42.08,42.08,0,0,1,5.29.21,1.49,1.49,0,0,1,1.36,1.41v.15c.14,2.79.29,5.57.39,8.37s.23,5.61.24,8.43,0,5.66-.2,8.5-.36,5.59-.57,8.38-.46,5.57-.65,8.35-.46,5.55-.63,8.33c-.42,5.56-.66,11.11-.82,16.75a99.71,99.71,0,0,1-2-16.79c-.11-2.82-.14-5.64-.14-8.45s.12-5.62.2-8.42l.4-8.38c.13-2.76.22-5.51.26-8.29l.12-8.36q0-4.18.23-8.42l1.37,1.57c-1.65-.28-3.3-.55-4.91-.71a10.27,10.27,0,0,0-4.54.39A4.82,4.82,0,0,0,390,95.73a9.33,9.33,0,0,0-1.29,2A33.67,33.67,0,0,0,387,102.49Z"/><path d="M464,159.72a5.28,5.28,0,0,1,2.31,1.22,5.41,5.41,0,0,1,1.39,2.35,26.63,26.63,0,0,1,.66,5.19c.21,3.37.4,6.75.51,10.13.27,6.75.33,13.5.28,20.25s-.26,13.49-.67,20.24-.9,13.48-1.84,20.23c-.82-6.76-1.21-13.52-1.46-20.27s-.33-13.5-.27-20.25.27-13.5.67-20.24c.17-3.38.43-6.75.71-10.12a29.74,29.74,0,0,0,.27-4.91A4.73,4.73,0,0,0,464,159.72Z"/><path d="M427.8,169.59a19,19,0,0,1-.94-4.47,9.45,9.45,0,0,1,.82-4.73A10.92,10.92,0,0,1,429,158.3a1.85,1.85,0,0,0,.34-1.35c0-.57-.22-1.26-.32-2.15l-.07-1.19-.06-1.12q-.43-9-.54-18c-.06-6,0-12,.11-18l.14-4.48c0-1.48.11-3.07.27-4.57.31-3,.75-6,1.16-8.94l0-.17a1.05,1.05,0,0,1,.63-.83,7.54,7.54,0,0,1,3.82-.68,11,11,0,0,1,3.49,1c1.05.47,2,1,3,1.41a6.63,6.63,0,0,0,3.22.54,6.3,6.3,0,0,1-3.42.21c-1.15-.2-2.25-.54-3.31-.81a9.18,9.18,0,0,0-3-.38,5.85,5.85,0,0,0-2.64.86l.65-1c0,3-.17,6-.19,9s.09,5.9.16,8.9c.13,6,.13,12,.05,18s-.3,12-.62,17.95l-.05,1.12-.07,1.06c0,.6.09,1.39,0,2.32a4.24,4.24,0,0,1-1.19,2.76,8,8,0,0,0-2.74,5.38A26.35,26.35,0,0,0,427.8,169.59Z"/><path d="M450.83,99.2a17.28,17.28,0,0,1,7.61-2.39,16.35,16.35,0,0,1,4.13.22,20.26,20.26,0,0,1,4,1.11,1.38,1.38,0,0,1,.87,1.19v.16c.27,4.9.47,9.8.54,14.7s.07,9.8,0,14.7c-.07,2.45-.09,4.87-.29,7.37s-.48,4.92-.77,7.36-.68,4.86-1.1,7.28c-.18,1.21-.38,2.42-.59,3.63a5.31,5.31,0,0,1-.52,1.88,4,4,0,0,1-1.35,1.34,4.21,4.21,0,0,0,.88-1.54,5.45,5.45,0,0,0,0-1.72c-.09-1.24-.13-2.47-.16-3.7-.1-2.46-.06-4.92-.08-7.36.08-4.9,0-9.69-.14-14.61s-.08-9.77,0-14.66.3-9.78.59-14.67l.88,1.36A23.22,23.22,0,0,0,462,99.39a20.41,20.41,0,0,0-3.58-.8A21.58,21.58,0,0,0,450.83,99.2Z"/><path d="M414,191.3a13.32,13.32,0,0,1-2.62,1.44,20.46,20.46,0,0,1-2.88.9c-2,.45-3.95.67-5.85,1-1,.14-1.9.28-2.8.5l-2.87.61a12.23,12.23,0,0,0-4.83,1.92l.05-2.9a14.3,14.3,0,0,0,3.13,1.48,7.17,7.17,0,0,0,3.11.27,7.61,7.61,0,0,0,1.58-.35c.19-.05.71-.22,1.1-.29a9.07,9.07,0,0,1,1.23-.17,33.06,33.06,0,0,1,4.2.09l.89,0,1.05,0c.7,0,1.42.07,2.15.16a10.23,10.23,0,0,1,4.65,1.6,6.33,6.33,0,0,1,2.46,3.41l.19.63.11.61a16.79,16.79,0,0,1,0,4.47L417,214.55c-.38,2.58-.67,5.17-1,7.76a124.05,124.05,0,0,0-.74,15.7,63.26,63.26,0,0,1-2-15.82c-.05-2.67.07-5.33.2-8,.05-1.33.18-2.65.28-4s.25-2.67.32-3.87A15.56,15.56,0,0,0,414,203l-.07-.36-.11-.31a2.25,2.25,0,0,0-.24-.54,2.16,2.16,0,0,0-.7-.74,6.48,6.48,0,0,0-2.78-.84,16.85,16.85,0,0,0-1.78-.15l-.93,0c-.36,0-.73,0-1.07,0-1.4-.08-2.64-.25-3.69-.19-.26,0-.5,0-.73.08s-.36.08-.81.19a11.5,11.5,0,0,1-2.3.37,11.15,11.15,0,0,1-4.66-.67,15.55,15.55,0,0,1-3.87-2.14l-.11-.08a1.7,1.7,0,0,1-.34-2.37,1.78,1.78,0,0,1,.51-.44,15.49,15.49,0,0,1,6.19-1.88c1-.11,2-.16,2.94-.26s2-.13,3-.15c2,0,3.93.1,5.85,0A17.45,17.45,0,0,0,414,191.3Z"/><path d="M61.66,177.48a12.92,12.92,0,0,1-.19-3.94,7.21,7.21,0,0,1,1.68-3.92,9.32,9.32,0,0,1,3.7-2.33,18.37,18.37,0,0,1,4-.91c5.15-.61,10.23-.94,15.36-1.1s10.24-.13,15.36.08c2.56.1,5.11.3,7.67.49l1,.09a6.56,6.56,0,0,1,1.12.19,5.31,5.31,0,0,1,1.93,1,19.8,19.8,0,0,0,3,2.45,13.05,13.05,0,0,1-3.58-1.45,4.67,4.67,0,0,0-1.61-.39,4.25,4.25,0,0,0-.79.05l-1,.13c-2.55.28-5.1.57-7.65.76-5.1.41-10.2.67-15.29.82s-10.21.2-15.26.18a20.3,20.3,0,0,0-3.53.26,7,7,0,0,0-3,1.18,6,6,0,0,0-2,2.7A17.6,17.6,0,0,0,61.66,177.48Z"/><path d="M180.44,176.17a42.16,42.16,0,0,0,21.21,5.49c7.47-.17,15.08-.29,22.61-.19s15.09.33,22.63.73c3.77.18,7.54.45,11.32.74,1.88.18,3.77.32,5.65.52l2.82.3c.43.05.93,0,1.43.08a1.47,1.47,0,0,1,1.14.88,1.37,1.37,0,0,0-1.17-.55c-.44,0-.87.17-1.39.23l-2.84.23c-1.89.16-3.78.26-5.67.39-3.78.2-7.56.38-11.33.48q-11.34.33-22.66.21c-7.57-.1-15.06-.31-22.69-.77a38.83,38.83,0,0,1-11.36-2.63A31.67,31.67,0,0,1,180.44,176.17Z"/><path d="M59.68,238a16.45,16.45,0,0,1-2.61-8.71c-.16-3.06,0-6.06-.17-8.84l-.22-2.18c-.08-.75-.13-1.5-.19-2.25-.11-1.5-.19-3-.25-4.49-.12-3-.13-6-.11-9s.12-6,.22-8.92c0-1.49.13-3,.12-4.35a12.28,12.28,0,0,1,.65-5.13,4.34,4.34,0,0,1,2.48-2.33,3.45,3.45,0,0,1,.78-.2,4.09,4.09,0,0,1,.69-.09c.39,0,.78,0,1.18-.05a14.29,14.29,0,0,1,4.81.68,7.63,7.63,0,0,1,3.87,3,8.91,8.91,0,0,1,.57,1.05c.13.36.28.75.39,1.08a20,20,0,0,0,1,2,13.42,13.42,0,0,1-1.52-1.72l-.61-.9a6.58,6.58,0,0,0-.7-.78,6.24,6.24,0,0,0-3.5-1.74,12.23,12.23,0,0,0-4,.08l-1,.19a2.72,2.72,0,0,0-.41.1.87.87,0,0,0-.29.12,1.08,1.08,0,0,0-.56.74,12.31,12.31,0,0,0,0,3.7c.15,1.59.12,3.08.17,4.57,0,3,0,6,0,8.92l-.12,8.87-.06,8.9c-.07,3.18-.74,6.1-1.06,9A19.55,19.55,0,0,0,59.68,238Z"/><path d="M248.86,220.9c.35,3.78,1.23,7.42,1,11.45a18.54,18.54,0,0,1-.46,3c-.14.49-.27,1-.45,1.48a13,13,0,0,1-.62,1.51,6.48,6.48,0,0,1-2.6,2.81,7.64,7.64,0,0,1-3.63.81c-.53,0-1,0-1.42,0a5.82,5.82,0,0,0-.6,0l-.75,0a5.75,5.75,0,0,1-4-1.3,7.2,7.2,0,0,1-2-3.33,28.72,28.72,0,0,1-.76-2.92,32.58,32.58,0,0,0-1.28-5.09,10,10,0,0,0-2.62-3.91l2.41-.43a30.27,30.27,0,0,0-1.85,2.9,22.92,22.92,0,0,0-1.49,3.12,25.38,25.38,0,0,0-1.1,3.36c-.3,1.16-.53,2.34-.73,3.56a19,19,0,0,1-.41-3.69,20.86,20.86,0,0,1,.27-3.77,23.18,23.18,0,0,1,1-3.7,23.85,23.85,0,0,1,1.55-3.51,1.53,1.53,0,0,1,2.08-.64l.15.09.18.12a12.59,12.59,0,0,1,4.14,5,28.42,28.42,0,0,1,1.8,5.72c.22.88.43,1.75.69,2.51a3.88,3.88,0,0,0,.77,1.49,1.76,1.76,0,0,0,1.21.32h.66c.29,0,.54,0,.81,0l1.39.06a4.15,4.15,0,0,0,1.85-.19,2.77,2.77,0,0,0,1.26-1.17,14.42,14.42,0,0,0,1.09-2.19,20.28,20.28,0,0,0,.78-2.47C247.93,228.52,247.89,224.61,248.86,220.9Z"/><path d="M138,173.54c.2,1.63.37,3.26.52,4.9a.45.45,0,0,1-.35.48l-.09,0a44.92,44.92,0,0,1-10.83,1.16c-3.62,0-7.19-.23-10.68-.2-.88,0-1.74,0-2.61,0l-2.62.12c-1.8.09-3.59.18-5.38.21-3.59.1-7.17.11-10.75.07s-7.15-.1-10.71-.24-7.12-.21-10.68-.37l-10.68-.36-5.35-.16-1.34,0-.67,0a3.47,3.47,0,0,1-.73-.08,24.28,24.28,0,0,1-2.57-.91c.89.06,1.79.31,2.64.3a3.08,3.08,0,0,0,.61-.05l.66-.1,1.33-.21c1.77-.3,3.56-.48,5.34-.71,3.57-.38,7.15-.69,10.73-.85,7.17-.38,14.32-.42,21.45-.41l10.67,0h5.32l2.73,0c.92,0,1.84.07,2.75.13,7.27.57,14.14,2.09,21.21,1.62l-.43.51C137.61,176.8,137.77,175.17,138,173.54Z"/><path d="M73.5,217a78,78,0,0,1-1.27-13.91l-.15-6.84c0-1.13-.07-2.26-.15-3.37a33.54,33.54,0,0,1-.07-3.67,14,14,0,0,1,.82-4,8.13,8.13,0,0,1,2.74-3.62,8.73,8.73,0,0,1,4.12-1.47,16.19,16.19,0,0,1,3.88.08,18.27,18.27,0,0,1,6.94,2.6A12.68,12.68,0,0,1,95.21,188a15.89,15.89,0,0,0-5.77-3.39,19.59,19.59,0,0,0-6.3-1.14,15.7,15.7,0,0,0-3,.29,5.2,5.2,0,0,0-2.27,1c-1.11.87-1.65,2.66-1.76,4.68a31.94,31.94,0,0,0,0,3.24c0,1.19,0,2.37,0,3.55-.08,2.35-.27,4.68-.53,7C75,207.82,74.29,212.33,73.5,217Z"/><path d="M240.3,184.06l.16.85c.07.28.17.54.26.8a2.73,2.73,0,0,0,.92,1.17,4,4,0,0,0,2.84.28c.52-.1,1-.25,1.59-.4s1.18-.26,1.75-.39c1.16-.22,2.34-.42,3.51-.54,4.69-.53,9.33-.4,13.76-.67a47.51,47.51,0,0,0,6.5-.78l1.67-.35a16,16,0,0,1,1.93-.27,20.78,20.78,0,0,1,3.79.05c4.92.53,9.14,2.14,13.49,2.45h.21a1.09,1.09,0,0,1,1,1c.07,1.64,0,3.29.06,4.94s-.05,3.3-.15,5c-.46-1.6-.85-3.2-1.23-4.81s-.74-3.21-1-4.83l1.21,1.06c-4.89.53-9.59-.72-13.83-.87a21.1,21.1,0,0,0-3.1.1,14.1,14.1,0,0,0-1.47.26l-1.69.38a39.16,39.16,0,0,1-7.18.79c-4.75.13-9.31-.37-13.8-.47-1.12,0-2.24-.06-3.36,0-.57,0-1.11,0-1.66.08a18.07,18.07,0,0,1-1.83.07,8,8,0,0,1-1.92-.27,3.74,3.74,0,0,1-1.73-1.07,3.33,3.33,0,0,1-.77-1.78c0-.31,0-.61,0-.9Z"/><path d="M404.77,88c-1.79.24-3.55.52-5.37.68a25.44,25.44,0,0,1-2.76.08c-.88,0-1.75,0-2.61.07a13,13,0,0,0-4.75,1.07,5.54,5.54,0,0,0-2.83,3,12.24,12.24,0,0,0-.59,4.57,47.5,47.5,0,0,0,.6,5.12,83.24,83.24,0,0,1,.8,10.94,72.25,72.25,0,0,1-.76,11c-.13.9-.29,1.81-.46,2.71l-.26,1.35c-.08.41-.17.82-.23,1.24-.25,1.67-.41,3.38-.5,5.12-.15,3.5-.1,7.1-.3,10.73s-.56,7.17-1,10.76c-.47-3.58-.74-7.18-1-10.73s-.8-7.09-.94-10.76a37.57,37.57,0,0,1,.13-5.6c0-.47.12-.94.18-1.42l.18-1.3q.16-1.31.3-2.61a96,96,0,0,0,.5-10.46c0-3.49-.22-7-.54-10.5s-.93-7.57,1-11.51a8.35,8.35,0,0,1,4.8-4.18,14.52,14.52,0,0,1,5.79-.58c.94.06,1.85.22,2.76.36s1.72.28,2.61.38C401.17,87.71,403,87.78,404.77,88Z"/><path d="M252.8,168.93a4.23,4.23,0,0,1-1.82,2.76,24.3,24.3,0,0,1-2.82,1.68,6.58,6.58,0,0,0-2.11,1.73,3.85,3.85,0,0,0-.62,2.26l-.75-1.41c3.47,1.61,7.33,1.34,11.5.92,1-.09,2.11-.2,3.22-.25s2.17-.05,3.21-.07l6.3-.06c4.2,0,8.41,0,12.63.1s8.47.35,12.71.89c-4.19.88-8.37,1.47-12.58,2s-8.41.88-12.65,1.09c-2.11.11-4.23.17-6.36.21-1.06,0-2.13,0-3.1,0l-3.1.14a36.13,36.13,0,0,1-6.63-.13,16,16,0,0,1-6.56-2.32l-.17-.11a1.29,1.29,0,0,1-.58-1.3,6.51,6.51,0,0,1,1.76-3.56,7.51,7.51,0,0,1,3.19-1.75c1.07-.33,2.08-.56,3-.92A4.21,4.21,0,0,0,252.8,168.93Z"/><path d="M295.57,178.14A3.53,3.53,0,0,1,297.2,180a8.82,8.82,0,0,1,.37,2.51,13,13,0,0,0,.21,2.26,3.57,3.57,0,0,0,.88,1.64l-.77-.42c2.59,0,5.16-.06,7.73-.11l7.72-.32,15.49-.78c2.59-.11,5.2-.2,7.8-.24.63,0,1.35,0,1.91,0l.86,0,.85-.11a13.5,13.5,0,0,0,3.37-.92,23.35,23.35,0,0,0,6.26-3.86,56.38,56.38,0,0,0,5.55-5.4,31.67,31.67,0,0,1-4.24,6.7,21.67,21.67,0,0,1-2.84,2.91,17.6,17.6,0,0,1-3.42,2.39,16.61,16.61,0,0,1-4,1.58l-1.06.25-1.08.14c-.74.1-1.32.13-2,.19-2.59.23-5.17.43-7.77.61-5.18.35-10.41.58-15.65.52a104.68,104.68,0,0,1-15.7-1.3l-.15,0a.89.89,0,0,1-.61-.39,5.21,5.21,0,0,1-.88-2.77,11.85,11.85,0,0,1,.27-2.54,8.47,8.47,0,0,0,.21-2.27A3.41,3.41,0,0,0,295.57,178.14Z"/><path d="M97.18,215.64c-1.17-6.59-1.92-13.21-2.52-19.85-.16-1.66-.32-3.31-.44-5L94,188.33c0-.19,0-.44,0-.7s0-.51,0-.76a9.92,9.92,0,0,1,.21-1.52,7.83,7.83,0,0,1,1.34-3A5.3,5.3,0,0,1,99,180.22a8.24,8.24,0,0,1,1-.07c.29,0,.67,0,.89.08s.68.08,1.06.1c.75,0,1.55,0,2.43.09a19.11,19.11,0,0,1,2.79.3,9.38,9.38,0,0,1,3,1.15,8.15,8.15,0,0,1,2.38,2.37,11.71,11.71,0,0,1,.74,1.39c.17.45.4,1,.49,1.36a62.81,62.81,0,0,1,2.44,9.9,33.18,33.18,0,0,1,.38,5.18,32.09,32.09,0,0,1-.53,5.14c-.62,3.24-1.13,6.45-.42,9.75a14.05,14.05,0,0,1-1.46-4.86A36.27,36.27,0,0,1,114,207a33.12,33.12,0,0,0-1-9.49c-.79-3.09-1.86-6.15-3-9.25l-.11-.29-.1-.22-.19-.45a7.59,7.59,0,0,0-.45-.8,4.19,4.19,0,0,0-1.15-1.08,5.66,5.66,0,0,0-1.63-.58,15.29,15.29,0,0,0-2.16-.2c-.78,0-1.64-.06-2.54-.12-.45,0-.93-.09-1.41-.15l-.35,0h-.25a1.17,1.17,0,0,0-.77.46,4.32,4.32,0,0,0-.68,1.46,7.42,7.42,0,0,0-.18.94c0,.16,0,.33,0,.49a4.53,4.53,0,0,0,0,.54l0,2.49c0,1.65,0,3.31,0,5C97.93,202.33,97.77,209,97.18,215.64Z"/><path d="M120.21,185.38a20.9,20.9,0,0,1,2.73,8.41c.39,3,.45,5.86.66,8.77l.38,8.72.23,8.72-1.3-1.89a13.53,13.53,0,0,0,6.57.54c2.33-.3,4.8-1,7.59-1.33l-1.85,2.08q0-5,.19-10c.07-3.33.21-6.66.37-10,.06-1.66.16-3.33.26-5s.19-3.33.34-5c.25-3.32.53-6.65.93-10,.41,3.33.69,6.66.94,10,.15,1.67.23,3.33.33,5s.21,3.33.27,5c.16,3.33.3,6.66.37,10s.16,6.65.19,10a2.08,2.08,0,0,1-1.82,2.08h0c-2.31.28-4.79,1-7.54,1.35a19.14,19.14,0,0,1-4.29.09,16.14,16.14,0,0,1-4.27-1l-.06,0a2,2,0,0,1-1.24-1.87l.23-8.72.38-8.72c.16-2.91.4-5.83.49-8.68A25.13,25.13,0,0,0,120.21,185.38Z"/><path d="M116.92,142.62c2.32-.35,4.65-.63,7-.82s4.67-.31,7-.38,4.71,0,7.07.13,4.72.39,7.07.75a2,2,0,0,1,1.59,1.44l0,.08a32.63,32.63,0,0,1,.39,11.9c-.18,1.88-.43,3.71-.53,5.5l-.06.72a6.93,6.93,0,0,1-.14,1,5.45,5.45,0,0,1-.92,2,4.61,4.61,0,0,1-1.86,1.46,5.57,5.57,0,0,1-2,.45l-5.67.08c-1.88,0-3.79,0-5.69-.07A39.18,39.18,0,0,1,118.89,165a73.11,73.11,0,0,0,11.2-.5l5.56-.67c1.85-.22,3.79-.48,5.59-.64.65-.08.89-.3,1-.5a1.53,1.53,0,0,0,.18-.54c0-.13,0-.26,0-.41V161c.06-2,.23-3.88.41-5.74a35,35,0,0,0-.13-10.55l1.6,1.52c-2.22-.45-4.46-.83-6.73-1.16s-4.54-.63-6.83-.89-4.6-.49-6.91-.76S119.24,143,116.92,142.62Z"/><path d="M248.86,235.38c.92,1.7,2,3.36,3.48,3.78a5.93,5.93,0,0,0,2.32.25c.41,0,.83-.09,1.25-.16l1.43-.2a78.57,78.57,0,0,1,11.54-.59c3.81,0,7.57.25,11.33.44s7.5.29,11.41.43a38.79,38.79,0,0,1-11.29,2.89,89,89,0,0,1-11.51.48c-3.8,0-7.56-.24-11.3-.34l-1.43-.05a11,11,0,0,1-1.6-.14,7.19,7.19,0,0,1-3.16-1.21,5.56,5.56,0,0,1-2-2.64A9.19,9.19,0,0,1,248.86,235.38Z"/><path d="M122.84,228.8a20.15,20.15,0,0,1-12.07,12.41,33.18,33.18,0,0,1-8.79,1.92c-2.94.25-6,.17-8.73.16-5.66,0-11.37.14-17.14,0a104.42,104.42,0,0,1-17.34-1.59l-.13,0a1.51,1.51,0,0,1-1.2-1.76,1.39,1.39,0,0,1,.28-.63c1.17-1.55,2.39-3.06,3.6-4.58s2.43-3,3.68-4.51l.08-.11a.68.68,0,0,1,.63-.23,4.39,4.39,0,0,1,2.22.92,4,4,0,0,1,1.2,2c.44,1.37.4,2.71,1.08,3.91a5.52,5.52,0,0,1-1.08-1.75c-.29-.62-.52-1.26-.82-1.82a3,3,0,0,0-1.14-1.27,3.13,3.13,0,0,0-1.57-.35l.71-.34c-1,1.68-2,3.35-3,5s-2,3.31-3.07,4.94l-1-2.42c2.8.26,5.62.37,8.44.47s5.65,0,8.49,0c5.68,0,11.42-.19,17.22.05,2.94.15,5.66.38,8.44.29a31.64,31.64,0,0,0,8.09-1,20.64,20.64,0,0,0,7.29-3.49A25.62,25.62,0,0,0,122.84,228.8Z"/><path d="M425.17,194.59c.44,3.76.7,7.4.95,11.06s.43,7.3.49,11a100.9,100.9,0,0,1-.36,11.11c-.09.92-.2,1.85-.33,2.78s-.27,1.75-.36,2.68a22.73,22.73,0,0,1-.45,2.85,6.86,6.86,0,0,1-1.26,2.62,13.45,13.45,0,0,0-.37-5.39,28.5,28.5,0,0,1-.34-2.84l-.22-2.74c-.27-3.65-.48-7.31-.54-11a92.11,92.11,0,0,1,.42-11.12A46.4,46.4,0,0,1,425.17,194.59Z"/><path d="M332.41,213a11.16,11.16,0,0,1-.64-5,22,22,0,0,1,.94-5,25.93,25.93,0,0,1,2-4.75A17.38,17.38,0,0,1,338,194a1.5,1.5,0,0,1,2-.08l.14.11a7.51,7.51,0,0,1,2.47,4.19,22.67,22.67,0,0,1,.31,4.16l.35,7.62q.3,7.67.36,15.35a38.21,38.21,0,0,0,.42,7.27,5.83,5.83,0,0,0,1.17,2.68,5.39,5.39,0,0,0,2.58,1.51,31.35,31.35,0,0,0,7.28,1c2.52.08,5.35.19,7.63,1.51-2.53-.66-5-.19-7.55.14a27.58,27.58,0,0,1-8,.06,8.06,8.06,0,0,1-4.18-1.95,9.09,9.09,0,0,1-2.36-4,34.08,34.08,0,0,1-1-8q-.36-7.69-.49-15.39c0-2.59-.07-5.09,0-7.76a22.73,22.73,0,0,0,0-3.51,4.17,4.17,0,0,0-1.11-2.45l2.15,0a17.15,17.15,0,0,0-3.07,3.27,26.77,26.77,0,0,0-2.41,4,24.91,24.91,0,0,0-1.7,4.45A12.89,12.89,0,0,0,332.41,213Z"/><path d="M379.78,238A4.79,4.79,0,0,0,383,240.5a10.34,10.34,0,0,0,4.14-.31,87.33,87.33,0,0,1,9-1.22c6-.56,11.84-.87,17.36-2.29a15.62,15.62,0,0,1,5.16-.46,9.09,9.09,0,0,1,1.41.25c.24.06.49.15.73.23l.65.27c.64.25,1.26.57,1.92.78a33.71,33.71,0,0,0,8.23,1.81c5.74.57,11.86.14,17.86,1.08-6,.82-11.77,2.18-18,2.22a30.22,30.22,0,0,1-9.37-1.3c-.78-.21-1.52-.55-2.28-.83l-.38-.14a3.58,3.58,0,0,0-.35-.09,6.13,6.13,0,0,0-.8-.12,12,12,0,0,0-3.74.4c-6.1,1.54-12.31,1.59-18.26,1.48-3,0-5.94-.11-8.9,0a11.18,11.18,0,0,1-4.74-.64,5,5,0,0,1-1.94-1.49A5.37,5.37,0,0,1,379.78,238Z"/><path d="M223.86,202.48a26.38,26.38,0,0,0,.17-2.66,17,17,0,0,1,.29-2.76,7.3,7.3,0,0,1,1.25-2.86A8,8,0,0,1,228,192a1.62,1.62,0,0,1,2.16.54l.15.25a43.07,43.07,0,0,1,5.35,12.88,40.28,40.28,0,0,1,1,6.9,30.85,30.85,0,0,1-.34,7c-.87-2.19-1.59-4.34-2.32-6.47l-2.15-6.32c-1.44-4.16-3-8.25-4.67-12.35l2.32.79a5.79,5.79,0,0,0-1.75.94,6.08,6.08,0,0,0-1.37,1.66,24.66,24.66,0,0,0-1.14,2.3A11,11,0,0,1,223.86,202.48Z"/><path d="M166.62,187.35a12,12,0,0,0-1.19,2.94,11.77,11.77,0,0,0-.28,3c0,2,.46,4.06.72,6.26.06.56.12,1.11.15,1.7s0,1.22,0,1.72v3.17l0,6.38c0,4.27,0,8.59-.32,12.93a51.6,51.6,0,0,1-2.43,12.88l-.9-12.89c-.29-4.27-.56-8.55-.58-12.9,0-2.16,0-4.35.18-6.53.08-1.09.17-2.19.3-3.28a30.21,30.21,0,0,0,.22-3,34.25,34.25,0,0,1,.55-6.64,11.64,11.64,0,0,1,1.25-3.23A9,9,0,0,1,166.62,187.35Z"/><path d="M427.8,180.12a44.11,44.11,0,0,1,8.27-1.67c1.37-.16,2.77-.26,4.1-.36a21.61,21.61,0,0,0,3.64-.5,11.22,11.22,0,0,0,3.13-1.3l1-.59a7.17,7.17,0,0,1,1.23-.49,8.69,8.69,0,0,1,2.47-.41,12.87,12.87,0,0,1,4.49.77,17.94,17.94,0,0,1,3.88,1.91c-2.88.16-5.68,0-8,.63a6.75,6.75,0,0,0-1.53.58,5.68,5.68,0,0,0-.64.38l-.71.54a12.19,12.19,0,0,1-4.37,2.09,17.8,17.8,0,0,1-4.57.4c-1.43,0-2.78-.18-4.17-.33A44.9,44.9,0,0,1,427.8,180.12Z"/><path d="M231.09,239.33a83.09,83.09,0,0,1-19.73,2.7c-6.64.26-13.26,0-19.84-.31s-13.12-.83-19.66-1.28-13.05-.77-19.7-.83a88.43,88.43,0,0,1,19.76-2.47c6.64-.22,13.25,0,19.83.36s13.12.82,19.65,1.24S224.45,239.41,231.09,239.33Z"/><path d="M246.22,172.88a11.9,11.9,0,0,1,.62-4.57c.47-1.48,1.07-2.89,1.57-4.26a14.64,14.64,0,0,0,1-4,8.84,8.84,0,0,0-.44-3.76,1.67,1.67,0,0,1,1.05-2.11,1.73,1.73,0,0,1,.9,0l.17,0a8.45,8.45,0,0,1,3.63,1.78,9.49,9.49,0,0,1,2.33,3.19,26.3,26.3,0,0,0,1.31,2.62,2.09,2.09,0,0,0,1.31,1l-1.46.15c1.51-.74,2.77-1.22,3.89-1.87.29-.16.49-.3.8-.51l.93-.63c.63-.41,1.25-.83,1.91-1.24a20,20,0,0,1,2.12-1.21,8.35,8.35,0,0,1,2.73-.88,5.85,5.85,0,0,1,3.13.51,10.64,10.64,0,0,1,2.22,1.36c1.27,1,2.38,2,3.51,2.94l3.25,3.1c2.13,2.11,4.26,4.21,6.26,6.48-2.63-1.49-5.12-3.12-7.61-4.76l-3.68-2.51c-1.22-.84-2.46-1.69-3.65-2.39a10.84,10.84,0,0,0-1.66-.81,2.08,2.08,0,0,0-1.23-.11A11,11,0,0,0,268,162c-.58.39-1.18.83-1.78,1.25l-.91.64c-.29.21-.71.49-1.06.69a41.13,41.13,0,0,1-4.15,2l-.15.07a1.78,1.78,0,0,1-1.32.08c-.37-.12-.74-.26-1.11-.4a11.47,11.47,0,0,1-1.06-.64,6.76,6.76,0,0,1-1.54-1.75,20.45,20.45,0,0,1-1.46-3.19,6.53,6.53,0,0,0-1.26-2.08,5.44,5.44,0,0,0-2-1.21l2.11-2.12a11.82,11.82,0,0,1,0,5.16,16.93,16.93,0,0,1-1.92,4.46c-.8,1.33-1.66,2.54-2.4,3.81A14.82,14.82,0,0,0,246.22,172.88Z"/><path d="M355.43,176.83a43.41,43.41,0,0,0,8.25,3.29c1.41.44,2.85.89,4.29,1.42a30.18,30.18,0,0,1,4.31,1.91,1.85,1.85,0,0,1,1,1.86l0,.13a6,6,0,0,1-1.14,2.82,6.14,6.14,0,0,1-2.44,1.87,7.11,7.11,0,0,1-1.43.42,5.94,5.94,0,0,1-.75.08l-.55,0c-.69,0-1.38.06-2.07.06-2.75.07-5.51,0-8.26-.11s-5.49-.36-8.23-.69c-1.37-.16-2.73-.37-4.1-.59l-1-.17-.26,0a1.28,1.28,0,0,1-.41-.12,1.72,1.72,0,0,1-.53-.44,19.85,19.85,0,0,1-1.06-1.86c.58.39,1.09.95,1.6,1.27a.7.7,0,0,0,.33.12c.05,0,0,0,.09,0l.25,0,1-.15c1.37-.17,2.74-.34,4.11-.47,2.74-.26,5.47-.45,8.2-.59s5.44-.24,8.16-.31l2-.05h.47l.27,0a3.29,3.29,0,0,0,.54-.14,1.91,1.91,0,0,0,1.29-1.46l.93,2c-2.31-1.52-5-2.77-7.65-4.25A22.76,22.76,0,0,1,355.43,176.83Z"/><path d="M449.51,74.85a18.13,18.13,0,0,1,1.14,4.6,26.38,26.38,0,0,1,.12,4.7,35.64,35.64,0,0,1-1.86,9.1l-.05.16a2,2,0,0,1-2,1.32c-1.07-.09-2.07-.23-3-.32a8.54,8.54,0,0,0-2.44,0,2.12,2.12,0,0,0-1.6,1.2,11.66,11.66,0,0,0-.82,2.91,6.93,6.93,0,0,1-.91-3.29c0-.31.06-.64.13-1a6.36,6.36,0,0,1,.41-1,4.54,4.54,0,0,1,1.56-1.54,8.51,8.51,0,0,1,3.64-1.05,29.92,29.92,0,0,1,3.23-.08L445,92.11c.71-2.88,1.47-5.69,2.22-8.52l1.12-4.29C448.68,77.86,449.05,76.39,449.51,74.85Z"/><path d="M342.28,217.62a32.74,32.74,0,0,1,7.26-1.64,70.22,70.22,0,0,1,7.2-.49c2.39-.06,4.76,0,7.15.09a63.29,63.29,0,0,1,7.33.72,23.54,23.54,0,0,1-7.05,2.6,38.83,38.83,0,0,1-7.34.82,48.22,48.22,0,0,1-7.31-.42A36.44,36.44,0,0,1,342.28,217.62Z"/><path d="M370.56,188.67a5.07,5.07,0,0,1,2.64,2,7.42,7.42,0,0,1,1.09,3.28c.11,1.16.15,2.11.21,3.16l.15,3.1q.25,6.18.31,12.34c0,4.12,0,8.23-.13,12.37a115,115,0,0,1-1,12.47A82,82,0,0,1,371.5,225a115.47,115.47,0,0,1-.78-12.47,108.59,108.59,0,0,1,.61-12.49c.12-1,.25-2.08.4-3.11l.49-3a6.41,6.41,0,0,0-.07-2.76A5.44,5.44,0,0,0,370.56,188.67Z"/><path d="M430.43,234.06a9.23,9.23,0,0,1,5.26-5.19,11.54,11.54,0,0,1,3.84-.79c.32,0,.67,0,1,0l.7,0a11.57,11.57,0,0,0,1.42-.14c1.91-.25,4-.9,6.28-1.36a12.29,12.29,0,0,1,7.2.27A48.51,48.51,0,0,0,450,229.7a21.21,21.21,0,0,1-6.8,2.42,14.33,14.33,0,0,1-2,.12l-1-.07-.75-.08a15.71,15.71,0,0,0-2.91,0A16.8,16.8,0,0,0,430.43,234.06Z"/><path d="M444.25,167.62a9.46,9.46,0,0,0-5.22-.19c-.87.16-1.77.32-2.72.41l-.71,0-.62.05a7.72,7.72,0,0,0-1.2.23,4.35,4.35,0,0,0-3.21,2.56,7.89,7.89,0,0,0-.5,2.14,11.55,11.55,0,0,0,0,1.18l0,1.33c.17,7.18.25,14.36.3,21.52l.1,21.5c0,7.17.11,14.34,0,21.58a161.75,161.75,0,0,1-3.27-21.42q-1-10.8-1-21.63c-.06-7.22.19-14.43.64-21.62l.1-1.37a12.81,12.81,0,0,1,.19-1.5,9.16,9.16,0,0,1,1.06-3,6.56,6.56,0,0,1,2.32-2.36,7.23,7.23,0,0,1,3-1,10.68,10.68,0,0,1,1.49,0l1.36.12c.85.06,1.74,0,2.66.06a15.34,15.34,0,0,1,2.77.25A6.85,6.85,0,0,1,444.25,167.62Z"/><path d="M122.18,120.91c-.2-2.24,0-4.44-.38-6.52a43.45,43.45,0,0,1-.53-6.71A12.17,12.17,0,0,1,122,104a8.42,8.42,0,0,1,2.24-3.42,9.22,9.22,0,0,1,1.62-1.25,19.14,19.14,0,0,1,1.76-.87c.6-.2,1.2-.43,1.8-.58l1.79-.37-1.51,1c.08-.13.17-.25.26-.37a3.07,3.07,0,0,1,.45-.43,2.64,2.64,0,0,1,.71-.36,2.28,2.28,0,0,1,.78-.12,2.82,2.82,0,0,1,1.48.47c.21.13.36.23.22.15a1.76,1.76,0,0,0-.35-.13l-.15,0h0l.06,0,.23.05a18.36,18.36,0,0,1,1.89.43,12.21,12.21,0,0,1,1.88.7c.31.14.62.27.92.44l.9.55a9.85,9.85,0,0,1,2.93,3.06,11.22,11.22,0,0,1,1.4,3.81,21.63,21.63,0,0,1-.19,7.34l-.17.87c-.06.28-.1.52-.14.79a14.93,14.93,0,0,0-.11,1.66c0,1.13,0,2.32-.1,3.5-.37-1.12-.78-2.2-1.1-3.35a12.9,12.9,0,0,1-.37-1.79c0-.31-.06-.64-.08-.94L141,114a26.75,26.75,0,0,0-1-6.42,7.23,7.23,0,0,0-3.25-4.26l-.6-.34c-.2-.1-.43-.17-.65-.27a11.15,11.15,0,0,0-1.38-.45c-.46-.15-1-.2-1.48-.32l-.19,0-.28-.06a2.64,2.64,0,0,1-.55-.21c-.4-.22-.47-.29-.52-.31a1.44,1.44,0,0,0,.69.16,1.71,1.71,0,0,0,.56-.09,1.5,1.5,0,0,0,.52-.26,1.63,1.63,0,0,0,.3-.28,1.43,1.43,0,0,0,.14-.2l-1.52,1a10.22,10.22,0,0,0-5,1.84,7.06,7.06,0,0,0-2.31,4.53c-.38,2-.45,4.14-.71,6.36A30.53,30.53,0,0,1,122.18,120.91Z"/><path d="M182.41,172.22a14.55,14.55,0,0,1-3.27,3.95,31.05,31.05,0,0,1-4.13,3l-4.15,2.58a24.64,24.64,0,0,0-3.57,2.76l.65-1.83a3.47,3.47,0,0,0,.72,1.85c.07.05.09.07.33.1a2.25,2.25,0,0,0,.43,0l.85-.14a36.74,36.74,0,0,1,7.31-.32,70.89,70.89,0,0,1,7.06.74c2.32.36,4.62.71,7,1.14a42.47,42.47,0,0,1-7,1.2c-2.35.23-4.68.35-7,.54a59.39,59.39,0,0,0-6.66.83l-.88.16a6,6,0,0,1-1.3.08,4.53,4.53,0,0,1-2.88-1.11,5.52,5.52,0,0,1-1.54-2.29,10.17,10.17,0,0,1-.51-2.14v-.06a2,2,0,0,1,.66-1.77,21,21,0,0,1,4.51-2.94c1.56-.78,3.12-1.39,4.65-2s3-1.19,4.5-1.85A25.39,25.39,0,0,0,182.41,172.22Z"/><path d="M166,220.25a13.93,13.93,0,0,1,6.28-2.75,24.59,24.59,0,0,1,6.73-.25,42.3,42.3,0,0,1,6.41,1.12c.52.14,1,.27,1.56.42a7.41,7.41,0,0,0,1.37.33,31.31,31.31,0,0,1,3.31.47,17.08,17.08,0,0,1-3.06,1.6,7.16,7.16,0,0,1-1.85.38c-.55.05-1.11.1-1.66.12a49.07,49.07,0,0,1-6.46-.23c-2.09-.18-4.13-.45-6.19-.65S168.28,220.45,166,220.25Z"/><path d="M118.89,131.43a6.09,6.09,0,0,1-1.08-2.69,10.48,10.48,0,0,1,0-3,20.62,20.62,0,0,0,.4-5.27,1.24,1.24,0,0,1,1-1.41,1.3,1.3,0,0,1,.8.15l.23.14a23.61,23.61,0,0,0,5.9,2.5,16.91,16.91,0,0,0,6.13.41,25.82,25.82,0,0,0,6.14-1.58,62.34,62.34,0,0,0,6.07-2.71l.09-.05a2,2,0,0,1,2.67.89l.12.29a37.88,37.88,0,0,1,1.95,12.66,26.53,26.53,0,0,1-1,6.35,22.78,22.78,0,0,1-2.52,5.78,41.44,41.44,0,0,0,.86-6.07,32.78,32.78,0,0,0-.19-6,50.13,50.13,0,0,0-3-11.45l2.88,1.14a48.34,48.34,0,0,1-6.49,3.08,25.94,25.94,0,0,1-7.27,1.67,18.61,18.61,0,0,1-7.55-1.06,21.07,21.07,0,0,1-6.37-3.76l2.08-1.12a11.94,11.94,0,0,1-.54,3.06c-.3.94-.67,1.81-1,2.67a12,12,0,0,0-.69,2.58A7,7,0,0,0,118.89,131.43Z"/><path d="M200.17,218.27a31.15,31.15,0,0,1-.87-5.7,36.28,36.28,0,0,1,.12-5.8,37.89,37.89,0,0,1,3-11.29,2.11,2.11,0,0,1,3.91.12v0c1.3,3.65,3.15,7.3,4.45,11.35a27,27,0,0,1,1.29,6.29,16.37,16.37,0,0,1-.72,6.32,29.31,29.31,0,0,0-1.39-5.91,46.28,46.28,0,0,0-2.34-5.43A93.81,93.81,0,0,1,202.36,197l3.91.16a69.54,69.54,0,0,0-3.67,10.17c-.49,1.75-.92,3.54-1.31,5.36S200.57,216.39,200.17,218.27Z"/><path d="M319.25,215.64a27.25,27.25,0,0,1-1.19-5.15,30.23,30.23,0,0,1-.27-5.3,26.67,26.67,0,0,1,2.5-10.47l.06-.13a2,2,0,0,1,2.51-1,9,9,0,0,1,3.58,2.49,10.56,10.56,0,0,1,2,3.57c.82,2.42.9,4.6,2,6.78a8.18,8.18,0,0,1-2.72-2.55c-.74-1-1.33-2-1.95-2.95a10.2,10.2,0,0,0-1.94-2.25,7.14,7.14,0,0,0-2.32-1.21l2.56-1.12a61.23,61.23,0,0,0-2.67,9.28c-.35,1.61-.66,3.25-1,4.92S319.74,213.92,319.25,215.64Z"/><path d="M488.33,113c1,1.9,1.91,3.74,3.07,4.59a3.91,3.91,0,0,0,1.76.74,8.79,8.79,0,0,0,2.26,0c.43,0,.8-.08,1.32-.14a13.85,13.85,0,0,1,1.7-.1,13.87,13.87,0,0,1,9,3.41c-2.18.21-4.16.2-6,.33-.93.06-1.83.14-2.7.27-.44.06-.87.13-1.29.22s-1.09.19-1.66.23a8.94,8.94,0,0,1-3.7-.43,6.22,6.22,0,0,1-3.19-2.47,6.69,6.69,0,0,1-1-3.46A8.84,8.84,0,0,1,488.33,113Z"/><path d="M196.23,207.75c.42,2.7.65,5.25.87,7.8s.39,5.09.47,7.66a69.89,69.89,0,0,1-.13,7.78c-.12,1.34-.26,2.56-.52,4a4.46,4.46,0,0,1-1,2.06,3.46,3.46,0,0,0-1,1.62,2.17,2.17,0,0,1-.24-1,8.25,8.25,0,0,1,.14-1.06,3.6,3.6,0,0,0,0-1.66l0-.17-.05-.24-.11-.48-.19-1c-.13-.64-.24-1.28-.34-1.92a61.19,61.19,0,0,1-.77-7.78,42.21,42.21,0,0,1,.45-7.92A24,24,0,0,1,196.23,207.75Z"/><path d="M429.77,206.43c2.2.16,4.14.37,6.08.53s3.85.33,5.81.56a45.56,45.56,0,0,1,5.95,1,18,18,0,0,1,5.85,2.48,38.11,38.11,0,0,1-6.17.83,35,35,0,0,1-6.13-.14,23,23,0,0,1-6.13-1.55A13.23,13.23,0,0,1,429.77,206.43Z"/><path d="M431.75,187.35a5.85,5.85,0,0,1,2-2.69,8.65,8.65,0,0,1,3.12-1.49,16.87,16.87,0,0,1,3.22-.46c1-.06,2-.07,3-.06,2,0,3.85.12,5.74.18s3.77,0,5.95-.08a11.12,11.12,0,0,1-5.49,3.37,21.75,21.75,0,0,1-6.25.76c-2,0-4.08-.3-5.78-.42A11.32,11.32,0,0,0,431.75,187.35Z"/><path d="M326.49,239.33a14.5,14.5,0,0,1-.75-3.87,16.18,16.18,0,0,1,.24-4,19.21,19.21,0,0,1,3.26-7.48,1.94,1.94,0,0,1,2.69-.46,1.8,1.8,0,0,1,.35.32l.11.13a15.14,15.14,0,0,1,2.37,3.84,22.49,22.49,0,0,1,1.3,4.14,71,71,0,0,1,1,8l-2-1.27a8.86,8.86,0,0,1,2.9,0c.89.11,1.7.31,2.47.47a8.61,8.61,0,0,0,2.25.23,5.88,5.88,0,0,0,2.28-.65,5,5,0,0,1-2,1.74,8.33,8.33,0,0,1-2.63.69c-.87.1-1.7.14-2.45.22a7.28,7.28,0,0,0-2,.48,1.43,1.43,0,0,1-1.87-.73l-.06-.17-.11-.37c-.75-2.62-1.23-5.25-1.85-7.67a18.91,18.91,0,0,0-2.74-6.47h3.15a25.19,25.19,0,0,0-3.79,5.85,26.28,26.28,0,0,0-1.26,3.39C327,236.81,326.73,238,326.49,239.33Z"/><path d="M331.09,240.64c-3.27.53-6.54.86-9.82,1.21l-4.92.42-4.91.34-2.46.16-2.42.12c-1.62.1-3.28.18-5,.22a30,30,0,0,1-10.36-1.47h0a2.1,2.1,0,0,1-1.37-1.61,29.36,29.36,0,0,1-.13-9.49,37,37,0,0,1,2.56-8.95l.07-.16a1.61,1.61,0,0,1,2.11-.85,1.86,1.86,0,0,1,.47.29,15.68,15.68,0,0,1,3.26,4.3A25.44,25.44,0,0,1,300,230l1.18,4.76a24.06,24.06,0,0,0,1.63,4.58,17.82,17.82,0,0,1-2.75-4.15c-.75-1.49-1.36-3-2.05-4.48a17.51,17.51,0,0,0-5.22-7.26l2.65-.71a44.3,44.3,0,0,0-1.74,8.3,29.5,29.5,0,0,0,.31,8.24l-1.38-1.62a29.8,29.8,0,0,0,9,1.41c1.59.06,3.2,0,4.86.07s3.32.08,4.95.14l4.91.19,4.91.27C324.53,240,327.81,240.21,331.09,240.64Z"/><path d="M212,210.38c0-1.55.06-3,.11-4.56s.13-3,.3-4.54a32.25,32.25,0,0,1,.84-4.6,26.42,26.42,0,0,1,1.65-4.5,2.06,2.06,0,0,1,2.75-1,2.16,2.16,0,0,1,.67.52l0,.06a22,22,0,0,1,3.32,5.15,22.33,22.33,0,0,1,1.78,5.78,29,29,0,0,1,.37,5.86,37.35,37.35,0,0,1-.65,5.76c-.65-1.85-1.09-3.7-1.59-5.5s-1-3.57-1.56-5.26a28.93,28.93,0,0,0-4.88-9.1l3.48-.4a35.58,35.58,0,0,0-1.75,3.8c-.53,1.31-1,2.68-1.47,4.07s-.93,2.83-1.48,4.25A25.62,25.62,0,0,1,212,210.38Z"/><path d="M246.22,188.67c.44,2.49.79,4.77,1.21,7s.86,4.5,1.25,6.8a60.08,60.08,0,0,1,.84,7.08,22.85,22.85,0,0,1-.66,7.37,61.16,61.16,0,0,1-2.61-6.78,51.72,51.72,0,0,1-1.75-7,29.66,29.66,0,0,1-.38-7.37A16.71,16.71,0,0,1,246.22,188.67Z"/><path d="M144.55,225.51a4.75,4.75,0,0,1,3.34,2.72,7.87,7.87,0,0,1,.55,4.31,24,24,0,0,1-.77,3.49c-.29,1.05-.6,2-.8,3.12l-.22-.43c-.08-.08-.1-.08-.1-.07s0,0,0,0a.41.41,0,0,0,0,.08,1,1,0,0,0,.09.18,2.44,2.44,0,0,0,.3.37,4.88,4.88,0,0,0,.89.72,2.84,2.84,0,0,1-1.23.44,2.74,2.74,0,0,1-.7,0,2.45,2.45,0,0,1-.37-.08l-.21-.07-.11-.06a.86.86,0,0,1-.21-.17l-.21-.43a7.7,7.7,0,0,1-1-4.12,17.82,17.82,0,0,1,.52-3.67,25.64,25.64,0,0,0,.6-2.91A9.5,9.5,0,0,0,144.55,225.51Z"/><path d="M296.22,197.22a20.45,20.45,0,0,1,.17-3.94,29.72,29.72,0,0,1,.76-3.71,1.73,1.73,0,0,1,2.12-1.23,1.83,1.83,0,0,1,.35.14l.33.17a9.56,9.56,0,0,1,3.45,3.12,11.6,11.6,0,0,1,1.66,4.11,22.92,22.92,0,0,1,.37,4c0,1.29,0,2.53,0,4a10.17,10.17,0,0,1-2.51-3.31c-.62-1.2-1.09-2.4-1.56-3.49a18.11,18.11,0,0,0-1.48-2.89,10.59,10.59,0,0,0-2-2.26l2.8-.91a30,30,0,0,1-1.94,3.25A19.19,19.19,0,0,1,296.22,197.22Z"/><path d="M124.16,142a6.28,6.28,0,0,1-.65-3.31,9.82,9.82,0,0,1,.88-3.33,41.43,41.43,0,0,1,3.18-5.23,2.06,2.06,0,0,1,2.24-.92h0a8,8,0,0,1,2,.79,8.52,8.52,0,0,1,1.66,1.28,12.89,12.89,0,0,1,2,2.93l.71,1.35.3.57.11.2s.05.1,0,.1-.11.06-.15.12a.08.08,0,0,0,0,.07h.07a1.49,1.49,0,0,0,.54-.35c.21-.17.42-.37.67-.56a1.31,1.31,0,0,1,.87-.31,1.22,1.22,0,0,0-.34.69c-.07.25-.11.52-.17.8a2.56,2.56,0,0,1-.4.95,2.91,2.91,0,0,1-.24.27,3.37,3.37,0,0,1-.37.24,1.84,1.84,0,0,1-.94.14,4.33,4.33,0,0,1-2.07-1.1,16.15,16.15,0,0,1-1.27-1.17,22.16,22.16,0,0,0-2.07-2,4.9,4.9,0,0,0-1.91-1l2.26-.91a39.68,39.68,0,0,1-4,4.68,16.32,16.32,0,0,0-1.71,2.17A12.81,12.81,0,0,0,124.16,142Z"/><path d="M433.72,223.54a30,30,0,0,0,4.37-2.56,29,29,0,0,1,4.46-2.61,13.41,13.41,0,0,1,5.53-1.09,16.86,16.86,0,0,1,5.38,1,20.65,20.65,0,0,1-4.85,2.3c-1.57.56-3,1.08-4.37,1.69a29,29,0,0,1-4.87,1.78A8,8,0,0,1,433.72,223.54Z"/><path d="M403.46,60.38a18.28,18.28,0,0,1,1.68,4.75,22.93,22.93,0,0,1,.52,4.81,19.44,19.44,0,0,1-.61,4.89,12.08,12.08,0,0,1-2.25,4.63,25.28,25.28,0,0,1-1.07-4.86,34.74,34.74,0,0,1-.31-4.66,27.46,27.46,0,0,1,.41-4.75A15.06,15.06,0,0,1,403.46,60.38Z"/><path d="M395.56,187.35l4.72-.55a39.3,39.3,0,0,1,4.53-.25,17.47,17.47,0,0,1,4.82.68A8.67,8.67,0,0,1,414,190c-1.78.23-3.24.4-4.72.56a37.21,37.21,0,0,1-4.53.24,17.47,17.47,0,0,1-4.82-.68A8.71,8.71,0,0,1,395.56,187.35Z"/><path d="M419.91,159.72a15.7,15.7,0,0,1-4.49,2,24,24,0,0,1-4.57.78,23.27,23.27,0,0,1-4.64-.12,15.46,15.46,0,0,1-4.72-1.33,15.26,15.26,0,0,1,4.48-2,22.63,22.63,0,0,1,4.58-.78,23.18,23.18,0,0,1,4.63.13A15.57,15.57,0,0,1,419.91,159.72Z"/><path d="M285,151.17a52.83,52.83,0,0,0,3,6.07c1.11,1.87,2.33,3.63,3.61,5.42s2.63,3.59,3.89,5.51a33.31,33.31,0,0,1,3.32,6.22l.14.37a.67.67,0,0,1-.35.85,29.26,29.26,0,0,1-3.12,1.22,30.21,30.21,0,0,1,2-2.67l-.21,1.23c-1.67-1.59-3.27-3.18-4.83-4.87a42.14,42.14,0,0,1-4.33-5.5,22.76,22.76,0,0,1-3-6.6A14.38,14.38,0,0,1,285,151.17Z"/><path d="M495.56,137.35a14.4,14.4,0,0,1,3.91-2.6,21,21,0,0,1,4.17-1.43,20.51,20.51,0,0,1,4.38-.55,14,14,0,0,1,4.65.64,14.28,14.28,0,0,1-3.9,2.6,20.05,20.05,0,0,1-4.18,1.43,20.51,20.51,0,0,1-4.38.54A14.26,14.26,0,0,1,495.56,137.35Z"/><path d="M507.41,122.88a10.3,10.3,0,0,1-3.66,2.45,30.36,30.36,0,0,1-4.11,1.29c-1.34.33-2.62.66-3.77,1.06a12.11,12.11,0,0,0-3.07,1.55l-.08-3.49a13,13,0,0,0,3.45,1.49c1.27.38,2.67.64,4.13,1a26.73,26.73,0,0,1,4.48,1.27,10.18,10.18,0,0,1,3.94,2.62,20.62,20.62,0,0,0-4.39-.53c-1.44,0-2.89,0-4.39,0a24.91,24.91,0,0,1-4.71-.38,13.32,13.32,0,0,1-4.8-1.91l0,0a2.1,2.1,0,0,1-.59-2.91,2.4,2.4,0,0,1,.54-.56,12.44,12.44,0,0,1,4.45-1.91,21.45,21.45,0,0,1,4.4-.48c1.41,0,2.76,0,4.11,0A20.45,20.45,0,0,0,507.41,122.88Z"/><path d="M294.91,199.19A21.61,21.61,0,0,1,296,203.4a25.5,25.5,0,0,1,.33,4,19.31,19.31,0,0,1-.4,4.1,11.2,11.2,0,0,1-1.7,4.14,14.79,14.79,0,0,1-1.63-4.1,17.5,17.5,0,0,1-.5-4.14,14.81,14.81,0,0,1,.59-4.24A9.46,9.46,0,0,1,294.91,199.19Z"/><path d="M235.7,206.43a41.64,41.64,0,0,0,.56-4.27A22.49,22.49,0,0,1,237,198a12.08,12.08,0,0,1,.92-2.23,6.78,6.78,0,0,1,1.79-2.18,3.81,3.81,0,0,1,1.56-.73,3.14,3.14,0,0,1,1.63.11,3.84,3.84,0,0,1,2,1.66,7,7,0,0,0-2.12.42c-.52.25-.55.53-.69.88-.3.73-.65,2.05-1,3.29a18.53,18.53,0,0,1-1.68,4.09A6.63,6.63,0,0,1,235.7,206.43Z"/><path d="M503.46,239.33c.82,0,1.6.08,2.39.1l2.4,0c1.58,0,3.18-.09,4.77-.13l9.55-.28c6.37-.19,12.74-.24,19.11-.23s12.75.15,19.12.45,12.76.67,19.15,1.47c-6.37,1-12.75,1.48-19.13,1.83s-12.77.51-19.16.48-12.78-.22-19.17-.71c-3.19-.21-6.39-.56-9.57-1-1.6-.26-3.19-.43-4.78-.77l-2.37-.49C505,239.83,504.21,239.58,503.46,239.33Z"/><path d="M84,236a36.6,36.6,0,0,1,2-3.33c.72-1.06,1.46-2.09,2.24-3.08a1.2,1.2,0,0,1,1.17-.45l.36.06a4.62,4.62,0,0,1,2.69,1.7,9.34,9.34,0,0,1,1.2,2.31,4.35,4.35,0,0,0,.67,1.28,1.09,1.09,0,0,0,.56.27l-1.84.47c1.13-1,2.29-2,3.6-3,.35-.24.69-.48,1-.7a11.25,11.25,0,0,1,1.25-.66,4.84,4.84,0,0,1,3.46-.29,4.73,4.73,0,0,1,1.5.79,10.22,10.22,0,0,1,1,1,14.45,14.45,0,0,1,1.41,2,26.8,26.8,0,0,1,2,4.25c-1.33-.88-2.52-1.89-3.7-2.83-.58-.46-1.15-.93-1.71-1.29a5.34,5.34,0,0,0-.78-.45c-.23,0-.45-.17-.58-.12a1.77,1.77,0,0,0-.92.39,6.69,6.69,0,0,0-.71.5l-.78.64c-1.07.92-2.18,2-3.34,2.92l-.11.1a2,2,0,0,1-1.73.38,5.89,5.89,0,0,1-1.61-.66A4.93,4.93,0,0,1,91.08,237,7.48,7.48,0,0,1,90,234.47a10.86,10.86,0,0,0-.46-1.54,1.4,1.4,0,0,0-.63-.74l1.53-.39c-1,.78-2,1.52-3.09,2.24A36.51,36.51,0,0,1,84,236Z"/><path d="M448.2,159.72a9.15,9.15,0,0,1,3.66-1.68,15.64,15.64,0,0,1,3.61-.39A19.36,19.36,0,0,1,459,158a19.67,19.67,0,0,1,3.72,1.07,7.59,7.59,0,0,1-3.44,2.25,11.57,11.57,0,0,1-3.78.57,13.52,13.52,0,0,1-3.65-.52A12.74,12.74,0,0,1,448.2,159.72Z"/><path d="M433.72,216.3c1.28-.85,2.31-1.45,3.35-2a25.11,25.11,0,0,1,3.22-1.53,14.73,14.73,0,0,1,3.71-.94,7.76,7.76,0,0,1,4.2.56,21.82,21.82,0,0,1-3.08,2.57,15.69,15.69,0,0,1-3.32,1.76,11.58,11.58,0,0,1-3.95.8A6.73,6.73,0,0,1,433.72,216.3Z"/><path d="M395.56,186a5.25,5.25,0,0,1,3.29-2.91,10.81,10.81,0,0,1,4-.52,25.49,25.49,0,0,1,3.45.41,24.6,24.6,0,0,0,3.7.39,5.2,5.2,0,0,1-3.29,2.91,10.79,10.79,0,0,1-4,.52,31.32,31.32,0,0,1-3.45-.42A22.35,22.35,0,0,0,395.56,186Z"/><path d="M415.3,173.54a8.83,8.83,0,0,1-3.58,3.34,15.05,15.05,0,0,1-4.43,1.53,20.42,20.42,0,0,1-4.46.34,21.84,21.84,0,0,1-4.63-.61,10.87,10.87,0,0,1,4-2.66,22.12,22.12,0,0,1,4.3-1.23c1.42-.26,2.81-.42,4.22-.54S413.58,173.52,415.3,173.54Z"/><path d="M445.56,168.27a10.71,10.71,0,0,1,3.55-1.82,14.93,14.93,0,0,1,3.59-.62,14,14,0,0,1,3.64.29,10.54,10.54,0,0,1,3.7,1.5,10.62,10.62,0,0,1-3.55,1.82,14,14,0,0,1-3.59.62,15,15,0,0,1-3.64-.29A10.93,10.93,0,0,1,445.56,168.27Z"/><path d="M144.55,240a21.83,21.83,0,0,1-6.68,2.8,29.54,29.54,0,0,1-7.13.86,30.12,30.12,0,0,1-7.14-.85,21.61,21.61,0,0,1-6.68-2.81,62.49,62.49,0,0,1,7-.5c2.28-.06,4.52-.08,6.77-.07s4.48,0,6.76.07A64.56,64.56,0,0,1,144.55,240Z"/><path d="M117.58,139.33a4.77,4.77,0,0,1-1-2.13,6.77,6.77,0,0,1,0-2.29,9.8,9.8,0,0,1,1.65-3.95l.08-.13a1.94,1.94,0,0,1,1.56-.84,5,5,0,0,1,2.64.59,3.77,3.77,0,0,1,1.18,1.06,2.63,2.63,0,0,1,.35.63,2.7,2.7,0,0,1,.21.6,5.07,5.07,0,0,1,.06,2,10.09,10.09,0,0,0-.19,1.83,3.51,3.51,0,0,1-1.68-1.23,12.42,12.42,0,0,0-1.07-1.21c-.31-.26-.46-.18-.54-.14a2.57,2.57,0,0,1-.69.08l1.64-1a34.25,34.25,0,0,1-2,2.9l-1.06,1.44C118.38,138.09,118.05,138.66,117.58,139.33Z"/><path d="M437.67,224.19a9.42,9.42,0,0,1,3.45-1.32,12.12,12.12,0,0,1,3.34-.12,12,12,0,0,1,3.24.77,9.31,9.31,0,0,1,3.13,2,9.38,9.38,0,0,1-3.46,1.33,12.2,12.2,0,0,1-6.58-.67A9.18,9.18,0,0,1,437.67,224.19Z"/><path d="M450.17,88a4,4,0,0,1,1.59,1.44,12.69,12.69,0,0,0,1,1.31.59.59,0,0,0,.33.18.11.11,0,0,0,.05,0,.06.06,0,0,0,0-.06c0-.06.31-.08.67-.13l.31,0,.16,0,.29,0a5.91,5.91,0,0,1,1.28-.06,4.35,4.35,0,0,1,1.52.38,3.15,3.15,0,0,1,1.73,3.79,4.47,4.47,0,0,1-1.06,1.87c-.41-.62-.67-1.21-1-1.66s-.66-.75-.81-.66-.05.23-.34.3c-.13,0-.28.08-.48.14l-.42.1-.56.11a4.87,4.87,0,0,1-2.83-.37,6.22,6.22,0,0,1-.76-.5,5.1,5.1,0,0,1-.59-.65,4.73,4.73,0,0,1-.37-.7,6,6,0,0,1-.2-.65C449.4,90.34,450,89.43,450.17,88Z"/><path d="M392.93,179.46a13.89,13.89,0,0,1,4.53-1,20.51,20.51,0,0,1,8.55,1.31,13.83,13.83,0,0,1,4,2.3,14.18,14.18,0,0,1-4.53,1,21,21,0,0,1-4.35-.21,21.7,21.7,0,0,1-4.2-1.11A14.43,14.43,0,0,1,392.93,179.46Z"/><path d="M120.21,182.75c0,1.36,0,2.36,0,3.34a17.61,17.61,0,0,1-.36,2.86,11.61,11.61,0,0,1-1.09,3,6.5,6.5,0,0,1-2.49,2.66,13.74,13.74,0,0,1-.76-3.38,10.4,10.4,0,0,1,.21-3.18,8.3,8.3,0,0,1,1.41-3.17A5.25,5.25,0,0,1,120.21,182.75Z"/><path d="M128.1,228.14a5.2,5.2,0,0,1,3.63,1.44,7.1,7.1,0,0,1,2,3.38,8,8,0,0,1,.05,3.69,7.36,7.36,0,0,1-1.7,3.33,12.26,12.26,0,0,1-1.63-3.2c-.35-1-.6-1.91-.82-2.77l-.64-2.59Z"/><path d="M389,167.62a42.76,42.76,0,0,1,4.49-1,32,32,0,0,1,4.3-.47,18.32,18.32,0,0,1,4.56.37,9.54,9.54,0,0,1,4.41,2.08,34.69,34.69,0,0,1-4.46,1.25,26.23,26.23,0,0,1-4.37.53,16.7,16.7,0,0,1-4.62-.45A9.06,9.06,0,0,1,389,167.62Z"/><path d="M308.07,203.8a13,13,0,0,0,0-2.56,14.62,14.62,0,0,1,0-2.64,7.11,7.11,0,0,1,1-3,7,7,0,0,1,2.46-2.32,2,2,0,0,1,2.44.33l.08.08a9,9,0,0,1,2,3.2,13.78,13.78,0,0,1,.78,3.28c.13,1.06.16,2.08.2,3.09s.07,2,.18,3.16A7.85,7.85,0,0,1,315,204a21.58,21.58,0,0,1-1.47-2.86,17,17,0,0,0-2.46-4.53l2.52.41a5.39,5.39,0,0,0-1.34.92,6.34,6.34,0,0,0-1.11,1.56c-.35.67-.71,1.46-1.17,2.26A5.53,5.53,0,0,1,308.07,203.8Z"/><path d="M194.91,194.59a8.15,8.15,0,0,1,2.13,2.69,10.19,10.19,0,0,1,1,5.92,8.09,8.09,0,0,1-1.15,3.23,8,8,0,0,1-2.13-2.69,9.82,9.82,0,0,1-.94-2.88,10,10,0,0,1,0-3A8.22,8.22,0,0,1,194.91,194.59Z"/><path d="M118.89,153.8c0,2.18.1,4,.3,5.91s.4,3.75.49,5.74a23.4,23.4,0,0,1-.42,6.19,36.06,36.06,0,0,1-1.68,5.84,18.11,18.11,0,0,1-1.64-6.09c-.17-1.87-.39-3.75-.49-5.74a23.41,23.41,0,0,1,.43-6.19A10.8,10.8,0,0,1,118.89,153.8Z"/><path d="M495.56,241.3c-3.31,0-6.41.07-9.54.26s-6.24.46-9.44.58a55.14,55.14,0,0,1-9.75-.34c-.81-.11-1.66-.28-2.43-.43s-1.45-.25-2.26-.35c-1.59-.23-3.47-.55-4.73-1.69a12.63,12.63,0,0,0,4.67-.39,15,15,0,0,1,2.53-.34l2.37-.13c3.11-.18,6.24-.43,9.43-.56a58.11,58.11,0,0,1,9.75.34A25,25,0,0,1,495.56,241.3Z"/><path d="M433.72,171.56a15.78,15.78,0,0,1,2.41-1.85,10.42,10.42,0,0,1,2.3-1.07,9,9,0,0,1,2.67-.44,6.52,6.52,0,0,1,3.15.73,8.2,8.2,0,0,1-2,2.41,7.53,7.53,0,0,1-2.5,1.33,7.13,7.13,0,0,1-3,.3A5,5,0,0,1,433.72,171.56Z"/><path d="M141.26,144.59a19.76,19.76,0,0,1,1.55,2.6,7.46,7.46,0,0,1,.7,2.71,5.94,5.94,0,0,1-.7,3.23,3.71,3.71,0,0,1-2.86,2,18.49,18.49,0,0,0-.36-2.8,14.48,14.48,0,0,1-.31-2.18,9.82,9.82,0,0,1,.22-2.72A4.78,4.78,0,0,1,141.26,144.59Z"/><path d="M437.67,172.88c1.23-.26,2.09-.42,2.94-.52a10.63,10.63,0,0,1,2.52,0,8.31,8.31,0,0,1,2.69.83,5.14,5.14,0,0,1,2.38,2.31,13.59,13.59,0,0,1-2.92,1,8.23,8.23,0,0,1-2.72.09,7.32,7.32,0,0,1-2.84-1A4.58,4.58,0,0,1,437.67,172.88Z"/><path d="M69,240a4.74,4.74,0,0,1-2.25,1.47,19.68,19.68,0,0,1-2.55.78,40.25,40.25,0,0,1-5.17.82,78.68,78.68,0,0,1-10.29.22c-3.41-.14-6.8-.47-10.17-.94-1.69-.24-3.37-.51-5-.82s-3.34-.72-5.06-.87a9.53,9.53,0,0,1,2.53-.79c.86-.18,1.72-.29,2.58-.42,1.72-.22,3.44-.34,5.14-.42,3.42-.15,6.82-.12,10.2,0s6.74.39,10.09.69l5,.44c.84.08,1.67.12,2.5.14a10.44,10.44,0,0,0,1.25,0A3.16,3.16,0,0,0,69,240Z"/><path d="M136,149.85c.52,1.1,1,1.6,1.43,1.74a4.3,4.3,0,0,1,1.29.81,6.3,6.3,0,0,1,1.63,2.09,4.3,4.3,0,0,1,.28.81,3.78,3.78,0,0,1,.08.89,3.36,3.36,0,0,1-.22.87,2.47,2.47,0,0,1-.54.69,4.12,4.12,0,0,0-2.09-1.06,5.45,5.45,0,0,1-1.91-1.08,4.67,4.67,0,0,1-1.63-2.86,2.63,2.63,0,0,1,0-1,2.24,2.24,0,0,1,.33-.86A2.6,2.6,0,0,1,136,149.85Z"/><path d="M407.74,170.25a3.08,3.08,0,0,1,.91-3.16,4.53,4.53,0,0,1,3.17-1.14,5.49,5.49,0,0,1,2.55.7,19.37,19.37,0,0,1,2.25,1.62A4.12,4.12,0,0,1,414,170a9.16,9.16,0,0,1-2.28.23,9.6,9.6,0,0,1-1.53-.18A7.19,7.19,0,0,0,407.74,170.25Z"/><path d="M401.49,80.77A4.7,4.7,0,0,1,400,83.4a17,17,0,0,1-1.54,1.3c-.35.3-.49.21-.88.53a10.38,10.38,0,0,0-1.36,2.12,3.22,3.22,0,0,1-1.93-2.63,3.55,3.55,0,0,1,.39-2,3.61,3.61,0,0,1,.58-.83,3.27,3.27,0,0,1,.68-.62,4.86,4.86,0,0,1,2.74-.94A10.46,10.46,0,0,1,401.49,80.77Z"/><path d="M83.37,238a18,18,0,0,1-1.9-1.47c-.58-.53-1.11-1.07-1.64-1.63a31.11,31.11,0,0,1-2.78-3.54l2.86.68-2.47,1.81c-.81.6-1.59,1.22-2.38,1.84s-1.56,1.29-2.35,2L70.21,240a10.57,10.57,0,0,1,2.17-6.75,14.94,14.94,0,0,1,2.44-2.64,18.18,18.18,0,0,1,2.89-2l.23-.12a1.92,1.92,0,0,1,2.61.76l0,.05a30.5,30.5,0,0,1,1.77,4.14c.24.73.47,1.46.64,2.22A16.06,16.06,0,0,1,83.37,238Z"/><path d="M306.75,206.1a5.48,5.48,0,0,1,1.66,2.06,4.82,4.82,0,0,1,0,4.11,5.38,5.38,0,0,1-1.66,2.06,5.38,5.38,0,0,1-1.66-2.06,4.82,4.82,0,0,1,0-4.11A5.48,5.48,0,0,1,306.75,206.1Z"/><path d="M140,135.38a3.46,3.46,0,0,1,2.5,1.29,4.25,4.25,0,0,1,.93,2.46,4.3,4.3,0,0,1-.62,2.44,4,4,0,0,1-2.16,1.7,9,9,0,0,1-1.12-2.28,5.93,5.93,0,0,1-.33-1.66,6,6,0,0,1,.16-1.58C139.45,137.14,139.61,136.44,140,135.38Z"/><path d="M124.16,159.06a3.24,3.24,0,0,0-.1-1.79c-.15-.56-.35-1.14-.48-1.84a4.79,4.79,0,0,1,.18-2.5,5.05,5.05,0,0,1,1.73-2.24,1.59,1.59,0,0,1,1.57-.2l.3.12a7.63,7.63,0,0,1,2.47,1.67,12.65,12.65,0,0,1,1.64,2c.46.66.83,1.29,1.19,1.87a17.33,17.33,0,0,0,1.09,1.55l-2-.1a.93.93,0,0,0,.52-.21,2.58,2.58,0,0,0,.54-1,11.67,11.67,0,0,1,.63-1.48,2.37,2.37,0,0,1,1.21-1.17,2.86,2.86,0,0,0,0,1.42c.09.44.22.88.32,1.41a4.41,4.41,0,0,1,0,1.87,3.79,3.79,0,0,1-1.32,2,1.48,1.48,0,0,1-1.65.09l-.32-.2a9.38,9.38,0,0,1-2.1-1.76,22.81,22.81,0,0,1-1.5-1.88,12,12,0,0,0-2.4-2.7l1.88-.09a2.57,2.57,0,0,0-.79.46,2.44,2.44,0,0,0-.6,1.12c-.18.54-.31,1.22-.58,1.9A2.91,2.91,0,0,1,124.16,159.06Z"/><path d="M120.21,153.8a3.14,3.14,0,0,1,2.38,1.23,4.72,4.72,0,0,1,.92,1.75,3.14,3.14,0,0,1,.07,1.42,8,8,0,0,0-.08,2.18,2.63,2.63,0,0,1-2.75-.43,4.06,4.06,0,0,1-1.33-2.07,3.82,3.82,0,0,1,0-1.9C119.56,155.36,119.86,154.82,120.21,153.8Z"/><path d="M285,157.09a4.9,4.9,0,0,1,.63,2.29,3.62,3.62,0,0,1-.42,1.7,3.57,3.57,0,0,1-1.22,1.26,4.74,4.74,0,0,1-2.28.67,4.7,4.7,0,0,1-.63-2.29,3.48,3.48,0,0,1,.42-1.7,3.6,3.6,0,0,1,1.23-1.26A4.85,4.85,0,0,1,285,157.09Z"/><path d="M240.3,182.75a2.94,2.94,0,0,1-1.63-1.65,2.71,2.71,0,0,1,.16-2.15,2.79,2.79,0,0,1,1.81-1.48,2.47,2.47,0,0,1,2.3.67,12.21,12.21,0,0,0-.29,2c0,.41,0,.58-.05.74a3.2,3.2,0,0,1-.63.63A16.87,16.87,0,0,1,240.3,182.75Z"/></svg>