<svg id="Layer_1" data-name="Layer 1" xmlns="http://www.w3.org/2000/svg" viewBox="0 0 150 146"><defs><style>.cls-1{fill:#3b3b3b;}</style></defs><title>icons</title><path class="cls-1" d="M61.42,84.67c-.87,1.27-.79,1.85,1,1.83,6.9-.07,13.79,0,20.69,0,8.67,0,13.33,6,11.29,14.4-.28,1.16-.76,1.62-2,1.59-3.13-.07-6.27,0-9.4,0-19.65,0-39.3,0-58.94,0A9.1,9.1,0,0,1,16,98.58a7.36,7.36,0,0,1-.57-6.85,3.37,3.37,0,0,0,.39-1.38C18.48,87,22,86.23,26.05,86.44c4.58.24,9.19,0,13.78.09a3,3,0,0,0,3.1-1.74C48.43,75.15,54,65.58,59.62,56c2.52-4.35,5-8.73,7.59-13a2.33,2.33,0,0,0-.12-2.85c-2.25-3.33-4.26-6.82-6.41-10.22-2.67-4.23.89-10.48,5.75-11.35a7.91,7.91,0,0,1,8.62,4c1.85,3.14,1.91,3.18,3.76.15a8.52,8.52,0,0,1,6.81-4.51c3.3-.29,5.56,1.36,7.18,3.91A7.62,7.62,0,0,1,93,30.24c-1.44,2.61-3,5.18-4.44,7.75Q80,52.75,71.41,67.5C70.92,68.34,61.61,84.4,61.42,84.67Z"/><path class="cls-1" d="M111.46,85.62c.5,1,1.33.86,2.16.86,5.78,0,11.57,0,17.35,0a8,8,0,0,1,6.09,13.14,8,8,0,0,1-6.48,2.82q-3.87,0-7.73,0c-1.1,0-1.61.11-.86,1.37,2.38,4,4.76,8,7,12.07a7.52,7.52,0,0,1-.67,8.88c-2.13,2.65-5.28,3.41-8.74,2.65-2.53-.55-3.65-2.32-4.76-4.23q-9.67-16.72-19.32-33.47C95,89,85.24,72,83.34,68.63c-3.23-5.76-1.7-13.54,1.64-17.37,3.86-4.42,4.06-4.42,6.91.57C97,60.86,110.5,83.7,111.46,85.62Z"/><path class="cls-1" d="M91.07,82.62l.39.52Z"/><path class="cls-1" d="M33.2,127.8c-7.43,0-11.19-6.12-8.08-12,1.53-2.89,3.27-5.66,4.87-8.51a3.77,3.77,0,0,1,2.35-1.87c4.81-1.45,9.32-1.3,13.32,2.21,1.21,1.06,1.61,1.94.65,3.5-2.54,4.13-4.87,8.4-7.33,12.59A8.17,8.17,0,0,1,33.2,127.8Z"/></svg>