<svg id="Layer_1" data-name="Layer 1" xmlns="http://www.w3.org/2000/svg" viewBox="0 0 150 150"><defs><style>.cls-1{fill:#3b3b3b;}</style></defs><title>logoss</title><path class="cls-1" d="M124.84,122.14c-5.07,1.34-9.1-1.1-11.57-6.62a23.46,23.46,0,0,0-2.24-3.43c-2.7-3.93-4.59-9.59-8.32-11.35-4.67-2.2-6.43,4.86-10.11,7.18-12,7.54-27.74,6.28-37.38-4.54-4.32-4.85-6.18-3.57-8.7,1.05-1.64,3-4.18,5.52-5.52,8.61-3.43,7.88-9.31,10.46-17.42,9.11-1.95-.32-4.46.78-5.65-1.37s.9-3.79,2-5.42q18.38-28,36.85-55.86c5.27-8,10.65-15.89,15.79-24,2.52-4,4.46-4.59,7.32-.23q26.6,40.55,53.43,80.93c3,4.59,1.55,6.08-3.37,5.9C128.56,122.1,127.19,122.14,124.84,122.14ZM88.29,84.33C87.19,76.72,82.6,69.68,78,62.66c-1.15-1.77-2.82-1.27-3.83.37-4.14,6.75-8.89,13.31-9.81,21.44-.75,6.62,4.79,12,11.79,12.06A11.82,11.82,0,0,0,88.29,84.33Z"/></svg>