<svg id="Layer_1" data-name="Layer 1" xmlns="http://www.w3.org/2000/svg" viewBox="0 0 150 150"><defs><style>.cls-1,.cls-2,.cls-3{fill:none;stroke:#3b3b3b;stroke-miterlimit:10;stroke-width:9.14px;}.cls-1{stroke-linecap:round;}.cls-3{stroke-linecap:square;}</style></defs><title>logoss</title><path class="cls-1" d="M75.71,56.36s1.15,1.14,1.15,5.71S72.29,72.36,66.57,73.5s-19.35,0-18.28-17.14c1.14-18.29,18.28-20.57,27.42-20.57s29.72,8,29.72,30.85S86.07,95.21,76.86,95.21c-10.29,0-16-2.28-16-2.28"/><line class="cls-2" x1="60.86" y1="39.21" x2="60.86" y2="112.36"/><path class="cls-2" d="M51.71,106.64s9.15,8,16,9.15"/><path class="cls-2" d="M121.43,25.5c-1.14,5.71,3.43,22.86,3.43,22.86"/><path class="cls-3" d="M87.14,75.79l32,1.14s0,30.86,1.15,34.28c-3.43,1.15-17.15,18.29-42.29,18.29a56,56,0,1,1,40.45-94.73"/></svg>