<svg id="Layer_1" data-name="Layer 1" xmlns="http://www.w3.org/2000/svg" viewBox="0 0 152 150"><defs><style>.cls-1{fill:#3b3b3b;}</style></defs><title>icons</title><path class="cls-1" d="M131.18,95.63c0,6.42-5.9,10.88-10.88,8.24-3.16-1.67-5.12-.92-7.55.71-1.08.71-2.18,2.11-3.43-.25-1.12-2.12.12-2.53,1.45-3.24.9-.48,1.78-1,2.65-1.57a3.88,3.88,0,0,0,0-6.31c-2-1.24-4.18-2.34-6.24-3.58a6.48,6.48,0,0,0-5.66-1c-4.24,1.22-8-3-6.58-7.27a5.06,5.06,0,0,0-.67-4.68Q87.42,65,80.7,53.28c-.77-1.36-1.49-2.22-3.33-2.26-2.86-.07-5.47-1.75-5.75-4.51-.42-4-3-5.56-5.92-7-1.86-.93-2.19-1.83-.93-3.58.77-1.07,1.29-1.35,2.36-.54.72.55,1.58.92,2.34,1.42,2,1.3,3.69,2.31,6.39.76,2.5-1.44,5.38-.44,7.41,1.87s2.6,5,1.07,7.61c-1,1.74-.6,2.83.23,4.27,4.57,7.9,9.06,15.85,13.6,23.77,1.43,2.48,5.78,3.64,8.3,2.25A34.65,34.65,0,0,0,110.64,75c1.71-1.29,2.58-.91,3.69.84,1.37,2.18-.55,2.23-1.52,2.84-1.63,1-3.36,1.93-5,2.89-1.87,1.08-2.26,2.25-.12,3.46,2.78,1.57,5.56,3.16,8.39,4.64a3.76,3.76,0,0,0,5.08-2.91,26.35,26.35,0,0,0,0-3.77c-.14-1.65.5-2.14,2.14-2.19,1.86,0,2.09.86,2,2.31C125,86.2,125,89,128.61,90.66,130.55,91.59,131.12,94.08,131.18,95.63Z"/><path class="cls-1" d="M53.6,98.4c-1.83,0-3.66,0-5.48,0-1.29,0-2.7.5-2.63-1.9.06-2,.72-2.42,2.56-2.39,4.68.07,9.37,0,14.05-.16a3.06,3.06,0,0,1,3.22,1.86c2.49,4.62,5.16,9.14,7.64,13.76.84,1.59,1.64,2.38,3.66,1.94a8.86,8.86,0,0,1,8,2c1.53,1.39,2.63,1.12,4.12.16.87-.57,2-2,2.91.2.56,1.31,1.42,2.38-.51,3.23s-2.34,2.37-2.11,4.63c.61,6.06-4.54,11.28-10.69,11.32a10.56,10.56,0,0,1-10.83-11.15c.17-2.39-.2-3.91-2.38-4.83-1.75-.74-1.54-1.75-.8-3.22.89-1.79,1.79-.69,2.73-.26.62.29,1.23.6,1.82.95s1,.61,1.52.09.17-1-.12-1.5c-2.66-4.52-5.33-9-7.94-13.59-.63-1.1-1.55-1.12-2.61-1.11C57.71,98.42,55.66,98.4,53.6,98.4Z"/><path class="cls-1" d="M76,82.32c-.34-1.42.82-3.14-1.47-4.58s-3.85-.5-5.78.45c-1.19.58-2.14,2.46-3.81,1.33-2.18-1.47-1.89-2.87.29-4.44,1.57-1.13,4.33-.93,4.34-4,0-2.4-.38-4.07-2.91-5a23.37,23.37,0,0,1-4.49-2.45,5.31,5.31,0,0,0-5.31-.73c-2.9,1.13-6-.84-7-3.86a6,6,0,0,1,3.27-7.11c2.84-1.22,6.81-.08,7.39,2.89.75,3.85,3.63,4.83,6.25,6.41s4.86,3.23,8.43,1,8.09,0,10.2,3.66,1.57,8.63-2,10.68C80,78.44,79.85,80.87,80.11,84c.2,2.4-1.39,3.61-3.41,2.85C75.91,86.58,75.91,86.58,76,82.32Zm1.93-6a6.42,6.42,0,0,0,6.24-6A6.25,6.25,0,0,0,78.29,64a6.37,6.37,0,0,0-6.46,6.14A6.59,6.59,0,0,0,78,76.31Z"/><path class="cls-1" d="M31,56.17c.26-1.88,0-3.67-2.82-5.06-4-2-5.05-7.11-3-11S32.4,33.89,36,36.32c3.2,2.17,5.16.69,7.61-.56,1.07-.55,2.07-1.91,3.23.21,1,1.82.32,2.42-1.07,3.45-1.66,1.23-4.49,1.23-4.49,4.45,0,2,.36,3.17,2.25,3.94,1.47.6,2.78,1.58,4.2,2.3s2.23,1.13,1.11,3c-1,1.65-1.67,1.77-3.1.76a27.69,27.69,0,0,0-3.84-2.24c-1.2-.58-2.09-2.1-3.91-.79-1.63,1.17-3.27,2-2.76,4.43a17,17,0,0,1,0,3.42c0,1.4.5,2.9-2,2.89-2.3,0-2.34-1.12-2.21-2.74C31.06,58.14,31,57.45,31,56.17Z"/><path class="cls-1" d="M84.23,25.16c4,6.62,7.9,13.25,11.91,19.84,1,1.58,1.73,2.7-.59,4-2.49,1.35-2.41-.9-3-1.87-4.06-6.86-8-13.81-12-20.72a6.32,6.32,0,0,0-8.28-2.2c-1.6.89-3.24,1.71-4.75,2.72s-2.37.78-3.43-.85c-1.25-1.95,0-2.32,1.24-3s2.19-1.24,3.3-1.82c1.92-1,3.49-1.84,3.63-4.65s2.55-4.52,5.51-4.6c3.13-.08,5.49,1.6,5.89,4.62.31,2.32,1.43,3.31,3.21,4.24C89,22,91.08,23.19,93.13,24.42c1,.58,2.53.87,1.2,2.69-1,1.3-1.53,2.37-3.37,1.08s-4.1-2.39-6.17-3.57Z"/><path class="cls-1" d="M132.74,44c.07,7.06-7.44,11.92-13.44,8.3-2.53-1.53-4.14-1.27-6.34,0-1.22.71-2.69,2.5-4.11-.13-1.53-2.83,1.28-2.8,2.35-3.41,2.19-1.26,3.3-2.57,3-5.31-.39-3.64-3.81-3.38-5.72-5-1.29-1.09-3.21-1.46-1.42-3.75.81-1,1.35-1.31,2.43-.62.77.48,1.65.8,2.41,1.3,2.56,1.7,4.66,2.16,7.84.32C125.53,32.36,132.67,37.23,132.74,44Zm-9.11,4.89a5,5,0,0,0,4.6-4.72,4.92,4.92,0,0,0-4.89-4.71,4.55,4.55,0,0,0-4.51,5A4.89,4.89,0,0,0,123.63,48.86Z"/><path class="cls-1" d="M114.74,69.74c.06-2.18,1.09-5,3.72-6.1,3.09-1.32,3.26-3.29,2.66-5.89-.52-2.27.52-2.72,2.55-2.6s1.47,1.5,1.36,2.46c-.31,2.82.31,4.67,3.16,6.21,3.52,1.9,4.4,6.63,2.68,10.28a8.41,8.41,0,0,1-9.33,4.71C117.5,77.92,114.75,74.57,114.74,69.74Z"/><path class="cls-1" d="M33.05,106.69a10.29,10.29,0,1,1,10.34-10.1A10.31,10.31,0,0,1,33.05,106.69Zm.15-15.87A5.61,5.61,0,0,0,32.9,102a5.61,5.61,0,1,0,.3-11.21Z"/><path class="cls-1" d="M55.87,75.23a8.06,8.06,0,0,1,7.36,5.26,7.72,7.72,0,0,1-2,8.5,7.21,7.21,0,0,1-8.83,1.37c-2.08-1.31-3.61-1.33-5.37.2-1.24,1.08-2.1,1.07-3.18-.54-1.28-1.91,0-2.4,1.17-3a4.76,4.76,0,0,0,3-4.72C48.09,78.19,51.88,75.16,55.87,75.23Z"/><path class="cls-1" d="M56.17,117.19c-4.1.08-7.89-2.9-7.85-7,0-2.69-1.35-3.5-3.14-4.59-.81-.5-3-.46-1.47-2.73,1.09-1.62,1.89-2,3.34-.77,1.87,1.55,3.47,1.51,5.67.15,2.88-1.77,6-1,8.56,1.19a7.87,7.87,0,0,1-5.11,13.71Z"/><path class="cls-1" d="M70.53,96.48a7.42,7.42,0,0,1,14.82-.81c.11,1.17-.36,2.41,1.22,3.18s2.28,1,3.15-.74c1.22-2.45,2.81-4.7,4.07-7.12.82-1.59,1.53-1.77,3.08-.8,1.39.88,1.64,1.44.73,2.86-2.29,3.54-4.5,7.13-6.56,10.81-.86,1.54-1.62,1.54-2.89.64-2.63-1.87-5-2.79-8.54-1.07C75.47,105.42,70.61,101.25,70.53,96.48Zm11.92-.29a4.72,4.72,0,0,0-4.72-4.45,4.59,4.59,0,0,0-4.22,4.91A4.45,4.45,0,0,0,78,100.93C80.34,101.1,82.53,98.58,82.45,96.19Z"/><path class="cls-1" d="M55.84,22.72A8.23,8.23,0,0,1,64,31.08a8.29,8.29,0,1,1-16.57-.33A8.2,8.2,0,0,1,55.84,22.72Zm3.47,8.35c-.16-2.34-1.51-3.77-3.68-3.75a3.38,3.38,0,0,0-3.52,3.79,3.29,3.29,0,0,0,3.45,3.49C57.92,34.67,59.06,33.28,59.31,31.07Z"/><path class="cls-1" d="M108.75,109.23a8.19,8.19,0,0,1-8.15,8.36,8.24,8.24,0,0,1-.21-16.47A8.12,8.12,0,0,1,108.75,109.23Zm-8,5.47a5.34,5.34,0,0,0,5-5.46,5.27,5.27,0,0,0-5.56-5.21,5.47,5.47,0,0,0-4.91,5.58A5.55,5.55,0,0,0,100.78,114.7Z"/><path class="cls-1" d="M100.44,64.87a7.7,7.7,0,1,1,7.89-7.73A7.74,7.74,0,0,1,100.44,64.87Zm.15-13a5.36,5.36,0,0,0-5.24,5.23,5.49,5.49,0,0,0,5.42,5.44,5.37,5.37,0,0,0,5-5.45A5.27,5.27,0,0,0,100.59,51.86Z"/><path class="cls-1" d="M32.9,64.05a6.07,6.07,0,0,1,6.65,6.09A6.72,6.72,0,0,1,33.34,77a6.8,6.8,0,0,1-7-6.47C26.2,66.84,28.84,64.25,32.9,64.05Zm-4.16,6c.12,2.47,1.24,4.22,3.83,4.42a3.9,3.9,0,0,0,4.53-3.65,4.06,4.06,0,0,0-3.91-4.64C30.59,66.11,29.23,67.57,28.74,70Z"/><path class="cls-1" d="M47.83,76.64C47.66,79,45.87,80,44.19,79c-1-.58-1.91-1.21-2.88-1.79s-2.11-1-.89-2.51c.86-1,1.36-2.49,3.08-1.06C44.9,74.84,46.93,75.21,47.83,76.64Z"/><path class="cls-1" d="M58.07,45.45c-1.22,1,1.45,3.57-2,3.69s-2.3-2.33-2.3-3.91-1.19-3.84,2.14-3.77C59.5,41.54,57,44.21,58.07,45.45Z"/><path class="cls-1" d="M35.29,81.11c-.22,1.46.62,3-1.84,3-2.19-.1-2.39-1-2.53-2.89-.19-2.45,1.07-2.1,2.72-2.34C36.65,78.4,34.38,80.79,35.29,81.11Z"/><path class="cls-1" d="M95.42,31.57l0,.11Z"/><path class="cls-1" d="M100.85,24.93A6.06,6.06,0,0,1,107.5,31a6.72,6.72,0,0,1-6.21,6.86,6.8,6.8,0,0,1-7-6.47C94.15,27.72,96.79,25.13,100.85,24.93Zm-4.16,6c.12,2.48,1.24,4.22,3.83,4.43a3.9,3.9,0,0,0,4.53-3.65,4.06,4.06,0,0,0-3.91-4.64C98.54,27,97.18,28.45,96.69,30.91Z"/></svg>