<svg id="Layer_1" data-name="Layer 1" xmlns="http://www.w3.org/2000/svg" viewBox="0 0 150 150"><defs><style>.cls-1{fill:#3b3b3b;}</style></defs><title>icons</title><path class="cls-1" d="M18.45,112c-3.27,0-6.54,0-9.81,0-.59,0-.72-.11-.71-.71.05-2.53.48-7.88.52-8.13.21-1.36.34-2.74.59-4.1,3.7-20.22,13.65-36.53,30.58-48.36a64.83,64.83,0,0,1,29.1-11.17A89.84,89.84,0,0,1,78,39a51.76,51.76,0,0,1,7.36.58,60.37,60.37,0,0,1,8.12,1.59C117,47.79,132.56,63,141.4,85.49a71.14,71.14,0,0,1,4.21,17.39c0,.26.49,5.88.53,8.41,0,.6-.12.72-.71.71-3.27,0-6.54,0-9.81,0a4.89,4.89,0,0,0,0-.55c-.33-17.87-6.58-33.31-19.64-45.59C102.38,53,86.07,47.75,67.5,51,49.59,54,36.31,64.14,27.09,79.61A61,61,0,0,0,18.45,112Z"/><path class="cls-1" d="M27.29,112a54.45,54.45,0,0,1,5.79-24.36C41.22,72,53.75,62.15,71.39,60c16.29-2,30.12,3.59,41.24,15.55,9.23,9.91,13.64,21.88,14.08,35.37,0,.37,0,.74.07,1.1h-10.5a42.57,42.57,0,0,0-10.36-28,37.56,37.56,0,0,0-51.38-5.86c-11.2,8.43-16.47,20-16.74,33.87Z"/><path class="cls-1" d="M47.47,112A35.17,35.17,0,0,1,51,97.49C56.62,86.24,67.82,79.9,80.07,81c11.47,1.07,21.78,10,25.15,21.83A45.29,45.29,0,0,1,106.6,112H96.1A25.09,25.09,0,0,0,95,105.33C91.13,93.42,77.56,88.19,67.31,94.76c-6.22,4-9.07,9.94-9.34,17.22Z"/></svg>