<?xml version="1.0" encoding="utf-8"?>
<!-- Generator: Adobe Illustrator 22.0.0, SVG Export Plug-In . SVG Version: 6.00 Build 0)  -->
<svg version="1.1" id="Layer_1" xmlns="http://www.w3.org/2000/svg" xmlns:xlink="http://www.w3.org/1999/xlink" x="0px" y="0px"
	 viewBox="0 0 24 24" style="enable-background:new 0 0 24 24;" xml:space="preserve">
<style type="text/css">
	.st0{fill:#13B8B2;}
</style>
<path class="st0" d="M24,6.8c-0.9,0.4-1.8,0.7-2.8,0.8C22.2,7,23,6,23.3,4.9c-1,0.6-2,1-3.1,1.2c-0.9-1-2.2-1.6-3.6-1.6
	c-3.2,0-5.5,3-4.8,6C7.7,10.3,4.1,8.4,1.7,5.4C0.4,7.6,1,10.5,3.2,12c-0.8,0-1.6-0.2-2.2-0.6c-0.1,2.3,1.6,4.4,3.9,4.9
	c-0.7,0.2-1.5,0.2-2.2,0.1c0.6,2,2.4,3.4,4.6,3.4c-2.1,1.6-4.7,2.3-7.3,2C2.2,23.2,4.8,24,7.5,24c9.1,0,14.3-7.7,14-14.6
	C22.5,8.7,23.3,7.8,24,6.8z"/>
</svg>
